<svg width="100%" height="100%"
version="1.1"
xmlns="http://www.w3.org/2000/svg" 
xmlns:xlink="http://www.w3.org/1999/xlink"
xmlns:svgjs="http://svgjs.com/svgjs"
style="stroke-linecap: round; stroke-linejoin: round;"
viewBox="524.92138671875 1450.7838134765625 59.51446533203125 67.630126953125">
<g id="G-81-ce8616"><rect id="R-6b-1a160a" width="22.5633544921875" height="59.43043518066406" style="stroke: rgb(111, 111, 111); stroke-opacity: 1; stroke-width: 0; fill: rgb(0, 0, 0); fill-opacity: 1;" x="128" y="34" transform="matrix(2.2204460492503128e-16,0.9999999999999999,-0.9999999999999999,2.2204460492503128e-16,618.4358820619026,1322.7837524414062)"></rect><rect id="R-c6-d4fb07" width="9.804546356201172" height="9.804546356201172" style="stroke: rgb(111, 111, 111); stroke-opacity: 1; stroke-width: 0; fill: rgb(255, 255, 255); fill-opacity: 1;" transform="matrix(1,0,0,1,531.5665283203125,1456.8899993896484)"></rect><rect id="R-f9-d88c6e" width="9.804546356201172" height="9.804546356201172" style="stroke: rgb(111, 111, 111); stroke-opacity: 1; stroke-width: 0; fill: rgb(255, 255, 255); fill-opacity: 1;" transform="matrix(1,0,0,1,543.8326009114584,1456.8900146484375)"></rect><rect id="R-d3-cbf274" width="9.804546356201172" height="9.804546356201172" style="stroke: rgb(111, 111, 111); stroke-opacity: 1; stroke-width: 0; fill: rgb(255, 255, 255); fill-opacity: 1;" transform="matrix(1,0,0,1,556.0986531575521,1456.8900146484375)"></rect><rect id="R-9f-ba0e5a" width="9.804546356201172" height="9.804546356201172" style="stroke: rgb(111, 111, 111); stroke-opacity: 1; stroke-width: 0; fill: rgb(255, 255, 255); fill-opacity: 1;" transform="matrix(1,0,0,1,568.3647054036459,1456.8900146484375)"></rect></g>
<g id="G-a5-753d53"><rect id="R-7a-085145" width="22.527816772460938" height="34.18365478515625" style="stroke: rgb(111, 111, 111); stroke-opacity: 1; stroke-width: 0; fill: rgb(0, 0, 0); fill-opacity: 1;" x="128" y="34" transform="matrix(2.2204460492503128e-16,0.9999999999999999,-0.9999999999999999,2.2204460492503128e-16,593.1050109863281,1367.8861546812616)"></rect><rect id="R-08-72848c" width="9.804546356201172" height="9.804546356201172" style="stroke: rgb(111, 111, 111); stroke-opacity: 1; stroke-width: 0; fill: rgb(255, 255, 255); fill-opacity: 1;" transform="matrix(1,0,0,1,531.0130710601807,1502.109728365954)"></rect><rect id="R-b6-bc6896" width="9.804546356201172" height="9.804546356201172" style="stroke: rgb(111, 111, 111); stroke-opacity: 1; stroke-width: 0; fill: rgb(255, 255, 255); fill-opacity: 1;" transform="matrix(1,0,0,1,543.4641208648682,1502.109728365954)"></rect></g>
<g id="G-09-7f68e4" transform="matrix(1,0,0,1,0.000030517578125,0.3359151182733058)"><rect id="R-ee-b987c9" width="22.5633544921875" height="46.60540008544922" style="stroke: rgb(111, 111, 111); stroke-opacity: 1; stroke-width: 0; fill: rgb(0, 0, 0); fill-opacity: 1;" x="128" y="34" transform="matrix(2.2204460492503128e-16,0.9999999999999999,-0.9999999999999999,2.2204460492503128e-16,605.5276756286621,1344.9956665039062)"></rect><rect id="R-43-cbc894" width="9.804546356201172" height="9.804546356201172" style="stroke: rgb(111, 111, 111); stroke-opacity: 1; stroke-width: 0; fill: rgb(255, 255, 255); fill-opacity: 1;" transform="matrix(1,0,0,1,531.5665378570557,1479.1018772125244)"></rect><rect id="R-9b-07f693" width="9.804546356201172" height="9.804546356201172" style="stroke: rgb(111, 111, 111); stroke-opacity: 1; stroke-width: 0; fill: rgb(255, 255, 255); fill-opacity: 1;" transform="matrix(1,0,0,1,543.8325901031494,1479.1018772125244)"></rect><rect id="R-61-967aea" width="9.804546356201172" height="9.804546356201172" style="stroke: rgb(111, 111, 111); stroke-opacity: 1; stroke-width: 0; fill: rgb(255, 255, 255); fill-opacity: 1;" transform="matrix(1,0,0,1,556.0986423492432,1479.1018772125244)"></rect></g></svg>