<svg width="100%" height="100%" version="1.1" 
  xmlns="http://www.w3.org/2000/svg" 
  xmlns:xlink="http://www.w3.org/1999/xlink" 
  xmlns:svgjs="http://svgjs.com/svgjs" 
style="stroke-linecap: round; stroke-linejoin: round; stroke-miterlimit: 20; "
viewBox="34.39638824462891 90.32489318847657 241.87963256835937 167.08297119140624">
  <line id="L-e4-42a7fc" x1="54.97461700439453" y1="243.46405029296875" x2="202.29722595214844" y2="243.46405029296875" style="stroke: rgb(255, 255, 255); stroke-opacity: 1; stroke-width: 15; fill: none; fill-opacity: 0;" transform="matrix(1,0,0,1,-0.000011444091796875,0.00002288818359375)"></line>
  <line id="L-54-cb66d4" x1="55.81781768798828" y1="243.42642974853516" x2="202.29722595214844" y2="243.96405029296875" style="stroke: rgb(255, 255, 255); stroke-opacity: 1; stroke-width: 15; fill: none; fill-opacity: 0;" transform="matrix(0.5376208942753999,-0.8431866780485313,0.8431866780485313,0.5376208942753999,-180.709716796875,159.3889560699463)"></line>
  <path id="P-68-e58724" d="M61.99131774902344 96.5405044555664L122.5743408203125 85.25741577148438L118.357177734375 100.94571685791016Q141.88314819335938 108.18346405029297 150.033447265625 125.26749420166016Q158.1072998046875 142.22618103027344 153.0852813720703 162.3022003173828L169.6217803955078 166.9517822265625L127.26811218261719 213.4234161376953L115.82766723632812 152.02032470703125L131.87545776367188 156.3385772705078Q135.61538696289062 143.0374298095703 131.45265197753906 135.07858276367188Q126.77313995361328 126.19866180419922 112.88227844238281 122.48690032958984L108.1258773803711 138.02357482910156L61.99131774902344 96.5405044555664 " style="stroke: rgb(0, 0, 0); stroke-opacity: 1; stroke-width: 5; fill: rgb(255, 255, 255); fill-opacity: 1;" transform="matrix(1,0,0,1,86.49761581420898,18.99105453491211)"></path>
  <defs id="SvgjsDefs1152"></defs>
</svg>