<svg width="100%" height="100%" version="1.1" 
  xmlns="http://www.w3.org/2000/svg" 
  xmlns:xlink="http://www.w3.org/1999/xlink" 
  xmlns:svgjs="http://svgjs.com/svgjs" 
style="stroke-linecap: round; stroke-linejoin: round; stroke-miterlimit: 20; "
viewBox="278.4727465820313 385.98608825683596 150.80688720703125 169.94927124023437">
  <path id="P-d8-35a4a4" d="M302.99556448484134 522.0166172192421C301.3957458615391 442.6315845405449 408.58359362278566 440.44667538425074 407.7836843111346 522.74492027134 " style="stroke: rgb(255, 255, 255); stroke-opacity: 1; stroke-width: 10; fill: rgb(0, 0, 0); fill-opacity: 1;" transform="matrix(1,0,0,1,-0.000213623046875,22.754959106445312)"></path>
  <circle id="C-c9-8c8de6" r="11.89224624633789" cx="0" cy="0" style="stroke: rgb(255, 255, 255); stroke-opacity: 1; stroke-width: 10; fill: rgb(0, 0, 0); fill-opacity: 1;" transform="matrix(1,0,0,1,408.1273193359375,460.6828661010061)"></circle>
  <line id="L-54-5dfccc" x1="407.87180146574974" y1="473.29975056648254" x2="407.87180146574974" y2="544.8635017871857" style="stroke: rgb(255, 255, 255); stroke-opacity: 1; stroke-width: 10; fill: none; fill-opacity: 0;" transform="matrix(1,0,0,1,0,0.6201425194740295)"></line>
  <circle id="C-9f-2a3445" r="15.225515365600586" cx="0" cy="0" style="stroke: rgb(255, 255, 255); stroke-opacity: 1; stroke-width: 10; fill: rgb(3, 0, 172); fill-opacity: 0;" transform="matrix(1,0,0,1,302.9583435058594,411.64710031670654)"></circle>
  <circle id="C-a0-8c19ff" r="4.423068523406982" cx="0" cy="0" style="stroke: rgb(255, 255, 255); stroke-opacity: 0; stroke-width: 1; fill: rgb(255, 0, 0); fill-opacity: 0;" transform="matrix(1,0,0,1,313.0329284667969,413.52698312920654)"></circle>
  <defs id="SvgjsDefs1186"></defs>
  <line id="L-c6-87eb52" x1="302.8092441558838" y1="426.2863948941231" x2="302.8092441558838" y2="543.6538890004158" style="stroke: rgb(255, 255, 255); stroke-opacity: 1; stroke-width: 10; fill: none; fill-opacity: 0;" transform="matrix(1,0,0,1,0,0.6201425194740295)"></line>
</svg>