<svg width="100%" height="100%" 
version="1.1" 
xmlns="http://www.w3.org/2000/svg" 
style="stroke-linecap: round; stroke-linejoin: round; "
viewBox="62.938123321533205 40.689758682250975 108.77447204589843 103.9617416381836">
<path id="SvgjsPath4147" d="M448 195.5Q493 277.5 538 195.5 " style="stroke: rgb(255, 255, 255); stroke-opacity: 1; stroke-width: 10; fill: rgb(0, 0, 0); fill-opacity: 1;" transform="matrix(-0.9999411992667836,-0.010844261565763649,0.010844261565763649,-0.9999411992667836,607.86181640625,335.33484649658203)"></path>
<line id="SvgjsLine5611" x1="162" y1="135.5" x2="129" y2="193.5" style="stroke: rgb(255, 255, 255); stroke-opacity: 1; stroke-width: 10; fill: none; fill-opacity: 0;" transform="matrix(-0.9999411992667836,-0.010844261565763649,0.010844261565763649,-0.9999411992667836,232.52373886108398,272.2608642578125)"></line>
<circle id="SvgjsCircle4543" r="14" cx="0" cy="0" style="stroke: rgb(255, 255, 255); stroke-opacity: 1; stroke-width: 10; fill: rgb(0, 0, 0); fill-opacity: 1;" transform="matrix(-0.9999411992667836,-0.010844261565763649,0.010844261565763649,-0.9999411992667836,117.78081512451172,63.504234313964844)"></circle>
<circle id="SvgjsCircle4543" r="14" cx="0" cy="0" style="stroke: rgb(255, 255, 255); stroke-opacity: 1; stroke-width: 10; fill: rgb(0, 0, 0); fill-opacity: 1;" transform="matrix(-0.9999411992667836,-0.010844261565763649,0.010844261565763649,-0.9999411992667836,117.78081512451172,63.504234313964844)"></circle>
<circle id="SvgjsCircle4543" r="14" cx="0" cy="0" style="stroke: rgb(255, 255, 255); stroke-opacity: 1; stroke-width: 10; fill: rgb(0, 0, 0); fill-opacity: 1;" transform="matrix(-0.9999411992667836,-0.010844261565763649,0.010844261565763649,-0.9999411992667836,117.78081512451172,63.504234313964844)"></circle>
<line id="SvgjsLine5610" x1="72" y1="135.5" x2="106" y2="195.5" style="stroke: rgb(255, 255, 255); stroke-opacity: 1; stroke-width: 10; fill: none; fill-opacity: 0;" transform="matrix(-0.9999411992667836,-0.010844261565763649,0.010844261565763649,-0.9999411992667836,232.5237693786621,272.2608413696289)"></line></svg>