<svg width="100%" height="100%"
version="1.1"
xmlns="http://www.w3.org/2000/svg" 
xmlns:xlink="http://www.w3.org/1999/xlink"
xmlns:svgjs="http://svgjs.com/svgjs"
style="stroke-linecap: round; stroke-linejoin: round;"
viewBox="138.28657989501954 -3.9983779907226555 177.30463256835938 168.88873901367188">
<g id="G-96-91c6a9"><path id="P-ff-3c8c6c" d="M178.5952606201172 35.0231819152832Q218.24720764160156 51.71869659423828 269.8595275878906 53.42576217651367Q277.8594055175781 87.86028289794922 300.8158264160156 116.38178253173828Q279.59893798828125 127.85997009277344 269.16387939453125 150.81629943847656Q240.64247131347656 127.16426086425781 205.16439819335938 122.6426010131836Q199.4646453857422 72.58810424804688 178.5952606201172 35.0231819152832 " style="stroke: rgb(255, 255, 255); stroke-opacity: 1; fill: rgb(0, 0, 0); fill-opacity: 1; stroke-width: 10;"></path><circle id="C-8c-645869" r="5.06113338470459" cx="0" cy="0" style="stroke: rgb(255, 255, 255); stroke-opacity: 1; stroke-width: 10; fill: rgb(0, 0, 0); fill-opacity: 1;" transform="matrix(0.6800779104232787,-0.7331398129463195,0.7331398129463195,0.6800779104232787,242.51681518554682,92.87313842773435)"></circle><line id="L-ed-5c38d7" x1="162.02903747558594" y1="44.77063751220703" x2="162.382568359375" y2="123.24913787841797" style="stroke: rgb(255, 255, 255); stroke-opacity: 1; stroke-width: 10; fill: none; fill-opacity: 0;" transform="matrix(0.6799952387809752,-0.7332165241241454,0.7332165241241454,0.6799952387809752,38.032478332519474,124.96352386474607)"></line><circle id="C-da-589c80" r="5.000915050506592" cx="0" cy="0" style="stroke: rgb(255, 255, 255); stroke-opacity: 1; stroke-width: 10; fill: rgb(0, 0, 0); fill-opacity: 1;" transform="matrix(0.6800779104232787,-0.7331398129463195,0.7331398129463195,0.6800779104232787,243.156982421875,93.6219482421875)"></circle><circle id="C-f6-32be6a" r="14.646839141845703" cx="0" cy="0" style="stroke: rgb(255, 255, 255); stroke-opacity: 1; stroke-width: 10; fill: rgb(0, 0, 0); fill-opacity: 1;" transform="matrix(1,0,0,1,167.70880651210285,24.722522735595703)"></circle></g></svg>