<svg width="100%" height="100%" version="1.1" 
  xmlns="http://www.w3.org/2000/svg" 
  xmlns:xlink="http://www.w3.org/1999/xlink" 
  xmlns:svgjs="http://svgjs.com/svgjs" 
style="stroke-linecap: round; stroke-linejoin: round; stroke-miterlimit: 20; "
viewBox="170.0398210144043 18.87113666534424 139.33144500732422 140.57708930969238">
  <path id="P-7a-9ab915" d="M178.5952606201172 35.0231819152832Q217.95173478126526 51.42322373390198 269.268581867218 53.42576217651367Q277.06376105322784 87.90719842361437 300.8158264160156 116.38178253173828Q279.59893798828125 127.85997009277344 269.16387939453125 150.81629943847656Q240.64247131347656 127.16426086425781 205.16439819335938 122.6426010131836Q199.80044143063586 72.39957710202475 178.5952606201172 35.0231819152832 " style="stroke: rgb(255, 255, 255); stroke-opacity: 1; fill: rgb(0, 0, 0); fill-opacity: 1; stroke-width: 10;"></path>
  <circle id="C-ce-32230d" r="5.06113338470459" cx="0" cy="0" style="stroke: rgb(255, 255, 255); stroke-opacity: 1; stroke-width: 10; fill: rgb(0, 0, 0); fill-opacity: 1;" transform="matrix(0.6800779104232787,-0.7331398129463195,0.7331398129463195,0.6800779104232787,242.51681518554682,92.87313842773435)"></circle>
  <line id="L-2f-38f57f" x1="162.02903747558594" y1="44.77063751220703" x2="162.382568359375" y2="123.24913787841797" style="stroke: rgb(255, 255, 255); stroke-opacity: 1; stroke-width: 10; fill: none; fill-opacity: 0;" transform="matrix(0.6799952387809752,-0.7332165241241454,0.7332165241241454,0.6799952387809752,38.032478332519474,124.96352386474607)"></line>
  <circle id="C-e4-328bbe" r="12.660667347337622" cx="0" cy="0" style="stroke: rgb(255, 255, 255); stroke-opacity: 1; stroke-width: 10; fill: rgb(0, 0, 0); fill-opacity: 1;" transform="matrix(0.6800779104232787,-0.7331398129463195,0.7331398129463195,0.6800779104232787,243.156982421875,93.62194771548486)"></circle>
  <circle id="C-a0-8c19ff" r="4.423068523406982" cx="0" cy="0" style="stroke: rgb(255, 255, 255); stroke-opacity: 0; stroke-width: 1; fill: rgb(255, 0, 0); fill-opacity: 0;" transform="matrix(1,0,0,1,185.4600830078125,31.926132202148438)"></circle>
  <defs id="SvgjsDefs1202"></defs>
</svg>