<svg width="100%" height="100%"
version="1.1"
xmlns="http://www.w3.org/2000/svg" 
xmlns:xlink="http://www.w3.org/1999/xlink"
xmlns:svgjs="http://svgjs.com/svgjs"
style="stroke-linecap: round; stroke-linejoin: round;"
viewBox="89.36611633300781 224.3353698730469 177.16242065429688 152.59512939453126">
<g id="G-a1-742482" transform="matrix(1,-8.149275060906256e-17,8.149275060906256e-17,1,0.0000152587890625,-0.000030517578125)"><polygon id="P-3d-70edf5" points="42.94847869873047,246.13470458984375 42.94847869873047,354.66241455078125 66.4737548828125,354.66241455078125 66.4737548828125,315.23583984375 95.89109802246094,315.23583984375 95.89109802246094,292.780517578125 66.4737548828125,292.780517578125 66.4737548828125,269.5748291015625 95.89109802246094,269.5748291015625 95.89109802246094,246.13470458984375" style="stroke: rgb(255, 255, 255); stroke-opacity: 1; stroke-width: 6; fill: rgb(0, 0, 0); fill-opacity: 1;" transform="matrix(1,0,0,1,145.3285026550293,0)"></polygon><polygon id="P-3d-70edf5" points="95.89109802246094,246.13470458984375 95.89109802246094,354.66241455078125 72.3658218383789,354.66241455078125 72.3658218383789,315.23583984375 42.94847869873047,315.23583984375 42.94847869873047,292.780517578125 72.3658218383789,292.780517578125 72.3658218383789,269.5748291015625 42.94847869873047,269.5748291015625 42.94847869873047,246.13470458984375" style="stroke: rgb(255, 255, 255); stroke-opacity: 1; stroke-width: 6; fill: rgb(0, 0, 0); fill-opacity: 1;" transform="matrix(1,0,0,1,71.72654342651367,0.46881103515625)"></polygon></g></svg>