<svg width="100%" height="100%"
version="1.1"
xmlns="http://www.w3.org/2000/svg" xmlns:xlink="http://www.w3.org/1999/xlink"
xmlns:svgjs="http://svgjs.com/svgjs"
style="stroke-linecap: round; stroke-linejoin: round; background: rgb(255, 255, 255);"
viewBox="108.49276123046874 -115.37780685424805 742.01337890625 688.6781982421875">
<polygon id="SvgjsPolygon1348" points="690.6427001953125,53.10066223144531 718.1016845703125,-100.34668731689453 609.8809814453125,24.02642822265625 555.3773803710938,29.714935302734375 457.37744140625,-26.285064697265625 530.37744140625,47.714935302734375 514.37744140625,66.71493530273438 410.37738037109375,31.714935302734375 490.35357666015625,99.94247436523438 480.66217041015625,122.55575561523438 364.37738037109375,139.71493530273438 479.37744140625,157.71493530273438 479.37744140625,177.71493530273438 389.37738037109375,244.71493530273438 497.37738037109375,207.71493530273438 519.37744140625,227.71493530273438 505.37744140625,316.7149353027344 566.3773803710938,252.71493530273438 591.3773803710938,351.7149353027344 616.3773803710938,260.7149353027344 637.3773803710938,261.7149353027344 694.3773803710938,342.7149353027344 675.3773803710938,250.71493530273438 797.3773803710938,319.7149353027344 703.3773803710938,224.71493530273438 841.3773803710938,254.71493530273438 718.3773803710938,190.71493530273438 880.3773803710938,153.71493530273438 731.3773803710938,130.71493530273438" style="stroke: rgb(0, 0, 0); stroke-opacity: 0.9; stroke-width: 2; fill: rgb(42, 0, 255); fill-opacity: 0.5;" transform="matrix(-0.9633577602617355,-0.26821973406796784,0.26821973406796784,-0.9633577602617355,1045.3605346679688,516.9739675521851)"></polygon>
<path id="SvgjsPath1350" d="M120.78948334682532 98.81910136301586S119.96344580433322 31.426527523720118 198.44004512916737 -6.664910046380568S325.6690526507879 36.15503209923344 305.0172747006788 95.73397590134715S253.48773695970849 175.1527107601542 203.51050706738914 169.29248232482703S117.48521326431326 133.49206840754835 120.78948334682532 98.81910136301586 " style="stroke: rgb(0, 0, 0); stroke-opacity: 0.9; stroke-width: 2; fill: rgb(42, 0, 255); fill-opacity: 0.5;" transform="matrix(-0.9633577602617355,-0.26821973406796784,0.26821973406796784,-0.9633577602617355,691.9497795999065,349.23007011413574)"></path>
<path id="SvgjsPath3635" d="M758.249760430063 312.9343846365567S758.2795870226643 280.5845514929567 759.8895366969443 268.7423604194416S787.2677749818006 247.82258746271862 786.7856022321814 281.5757474727471S785.0118779693797 300.17480609494544 807.0375440423634 276.7538582794647S859.5961181632181 263.7347917738413 821.0210113321037 299.89890352972753S862.9908305132855 333.28631677011526 854.4549058227905 354.1056074881838S837.4869776666447 367.17000002675394 799.179423664274 343.6442160997383S805.3903039781007 371.43851126195864 776.6596313270906 375.602386563692S758.097138642226 331.17440960345755 758.097138642226 312.9343846365567 " style="stroke: rgb(0, 0, 0); stroke-opacity: 0.9; stroke-width: 2; fill: rgb(42, 0, 255); fill-opacity: 0.5;" transform="matrix(1,0,0,1,-296.25580224394946,-102.7515869140625)"></path></svg>