<svg width="100%" height="100%"
version="1.1"
xmlns="http://www.w3.org/2000/svg" 
style="stroke-linecap: round; stroke-linejoin: round;"
viewBox="28.032125854492186 21.729890632629395 55.40242309570313 55.030565643310545">
<rect id="R-49-42bcad" width="46.16868209838867" height="45.85880661010742" style="stroke: rgb(255, 255, 255); stroke-opacity: 1; stroke-width: 0; fill: rgb(0, 0, 0); fill-opacity: 0;" transform="matrix(1,0,0,1,32.648996353149414,26.315771102905273)"></rect>
<rect id="R-f6-ba3490" width="25.43702507019043" height="7.1588592529296875" style="stroke: rgb(120, 120, 120); stroke-opacity: 1; stroke-width: 3; fill: rgb(130, 130, 130); fill-opacity: 0;" transform="matrix(1,0,0,1,43.030738830566406,31.371295928955078)"></rect>
<line id="L-07-92780f" x1="55.90764449340397" y1="43.35511872998723" x2="56.02551534933503" y2="56.435947229272976" style="stroke: rgb(115, 115, 115); stroke-opacity: 1; stroke-width: 3; fill: none; fill-opacity: 0;" transform="matrix(-1,-1.6298551061041103e-16,1.6298551061041103e-16,-1,111.84130668640138,98.85764503479004)"></line>
<g id="G-e7-636a9b" transform="matrix(-1,-1.6298551061041103e-16,1.6298551061041103e-16,-1,165.03863143920898,140.5411033630371)"><line id="L-f6-90b5eb" x1="51.88383102416992" y1="49.80906699097378" x2="58.725345259027776" y2="42.79862976074219" style="stroke: rgb(115, 115, 115); stroke-opacity: 1; stroke-width: 3; fill: none; fill-opacity: 0;" transform="matrix(1,0,0,1,50.49031066894531,41.64881896972656)"></line><line id="L-3b-1342dc" x1="62.70866232782482" y1="51.4357187548898" x2="56.03606414794922" y2="44.4252815246582" style="stroke: rgb(115, 115, 115); stroke-opacity: 1; stroke-width: 3; fill: none; fill-opacity: 0;" transform="matrix(1,0,0,1,53.17958450317383,40.02212905883789)"></line></g>
<rect id="R-2f-870783" width="25.43702507019043" height="7.073242664337158" style="stroke: rgb(255, 255, 255); stroke-opacity: 1; stroke-width: 3; fill: none; fill-opacity: 0;" transform="matrix(1,0,0,1,43.030738830566406,59.96603775024414)"></rect></svg>