<svg width="100%" height="100%"
version="1.1"
xmlns="http://www.w3.org/2000/svg" 
xmlns:xlink="http://www.w3.org/1999/xlink"
xmlns:svgjs="http://svgjs.com/svgjs"
style="stroke-linecap: round; stroke-linejoin: round;"
viewBox="-132.1772117614746 -17.93131504058838 72.31260681152344 57.68014068603516">
<polygon id="P-b5-05233c" points="-124.17123664999045,7.525964613082323 -103.82657056267942,-13.124636302609318 -65.89065184348293,-13.124636302609318 -85.77641568822303,7.525964613082323" style="stroke: rgb(96, 96, 96); stroke-opacity: 1; stroke-width: 5; fill: rgb(0, 0, 0); fill-opacity: 1;" transform="matrix(1,0,0,1,-5.684341886080802e-14,-1.4210854715202004e-14)"></polygon><polygon id="P-39-4b65c4" points="-124.17123664999045,7.525964613082323 -103.82657056267942,-13.124636302609318 -65.89065184348293,-13.124636302609318 -85.77641568822303,7.525964613082323" style="stroke: rgb(96, 96, 96); stroke-opacity: 1; stroke-width: 5; fill: rgb(0, 0, 0); fill-opacity: 0;" transform="matrix(1,0,0,1,-0.000002872803662512524,-7.105427357601002e-15)"></polygon><polygon id="P-ce-45d07f" points="-124.17123664999045,7.525964613082323 -103.82657056267942,-13.124636302609318 -65.89065184348293,-13.124636302609318 -85.77641568822303,7.525964613082323" style="stroke: rgb(255, 255, 255); stroke-opacity: 1; stroke-width: 5; fill: rgb(0, 0, 0); fill-opacity: 1;" transform="matrix(1,0,0,1,-1.979927062988338,27.416183471679673)"></polygon><g id="G-2f-1494e4" transform="matrix(1,0,0,1,-0.000030517578125,-0.9318339824676514)"><line id="L-ce-9ba9d2" x1="-119.8881490526618" y1="54.63992969878341" x2="-112.08681092895607" y2="62.16617984961468" style="stroke: rgb(255, 255, 255); stroke-opacity: 1; stroke-width: 5; fill: rgb(0, 0, 0); fill-opacity: 0;" transform="matrix(-1,-4.3021144851202776e-16,4.3021144851202776e-16,-1,-208.8060188293457,56.90616714954376)"></line><line id="L-9e-4f3008" x1="-102.29689642077633" y1="53.41618832312829" x2="-109.02746264514991" y2="60.3403285273403" style="stroke: rgb(255, 255, 255); stroke-opacity: 1; stroke-width: 5; fill: rgb(0, 0, 0); fill-opacity: 0;" transform="matrix(-1,-4.3021144851202776e-16,4.3021144851202776e-16,-1,-206.15422439575195,55.39875066280365)"></line></g><line id="L-c1-d3d558" x1="-97.28350724949361" y1="12.837628427760132" x2="-97.02430626303101" y2="43.507715476222224" style="stroke: rgb(255, 255, 255); stroke-opacity: 1; stroke-width: 5; fill: none; fill-opacity: 0;" transform="matrix(1,0,0,1,0.534645020961733,-17.79979324340821)"></line><polygon id="P-ee-d557ca" points="-124.17123664999045,7.525964613082323 -103.82657056267942,-13.124636302609318 -65.89065184348293,-13.124636302609318 -85.77641568822303,7.525964613082323" style="stroke: rgb(96, 96, 96); stroke-opacity: 1; stroke-width: 5; fill: rgb(0, 0, 0); fill-opacity: 0;" transform="matrix(1,0,0,1,-5.684341886080802e-14,-1.4210854715202004e-14)"></polygon>
</svg>