<svg width="100%" height="100%"
version="1.1"
xmlns="http://www.w3.org/2000/svg" 
xmlns:xlink="http://www.w3.org/1999/xlink"
xmlns:svgjs="http://svgjs.com/svgjs"
style="stroke-linecap: round; stroke-linejoin: round;"
viewBox="-430.20159912109375 -239.208740234375 127.72512817382812 184.422607421875">
<svg id="layer 3" style="overflow: visible; pointer-events: auto;"><path id="P-51-cee7d1" d="M-430.66888427734375 -145.0763702392578Q-366.4947814941406 -238.32608032226562 -302.9437561035156 -145.0763702392578Q-366.4947814941406 -53.903472900390625 -430.66888427734375 -145.0763702392578 " style="stroke: rgb(117, 117, 117); stroke-opacity: 1; stroke-width: 13; fill: rgb(0, 0, 0); fill-opacity: 0;" transform="matrix(1,0,0,1,0.46728515625,-0.8826541900634197)"></path><circle id="C-e6-95d96e" r="23.129690170288086" cx="0" cy="0" style="stroke: rgb(117, 117, 117); stroke-opacity: 1; stroke-width: 0; fill: rgb(116, 116, 116); fill-opacity: 1;" transform="matrix(1,0,0,1,-366.3390197753906,-146.47822570800778)"></circle></svg>
<svg id="layer 4" style="overflow: visible; pointer-events: none; display: none;" data-disabled="true" data-hidden="true"><path id="P-a0-6d1cf7" d="M-430.66888427734375 -145.0763702392578Q-366.4947814941406 -238.32608032226562 -302.9437561035156 -145.0763702392578Q-366.4947814941406 -53.903472900390625 -430.66888427734375 -145.0763702392578 " style="stroke: rgb(117, 117, 117); stroke-opacity: 1; stroke-width: 13; fill: rgb(0, 0, 0); fill-opacity: 0;" transform="matrix(1,0,0,1,0.46728515625,-0.8826541900634197)"></path><circle id="C-6f-c3019d" r="23.129690170288086" cx="0" cy="0" style="stroke: rgb(117, 117, 117); stroke-opacity: 1; stroke-width: 0; fill: rgb(116, 116, 116); fill-opacity: 1;" transform="matrix(1,0,0,1,-366.3390197753906,-146.47822570800778)"></circle></svg>
<svg id="S-4c-fc7231" style="overflow: visible; pointer-events: auto; display: none;" data-hidden="true" data-disabled="false"><path id="P-4c-e75a59" d="M-430.66888427734375 -145.0763702392578Q-366.4947814941406 -238.32608032226562 -302.9437561035156 -145.0763702392578Q-366.4947814941406 -53.903472900390625 -430.66888427734375 -145.0763702392578 " style="stroke: rgb(117, 117, 117); stroke-opacity: 1; stroke-width: 13; fill: rgb(0, 0, 0); fill-opacity: 0;" transform="matrix(1,0,0,1,0.46728515625,-0.8826541900634197)"></path><circle id="C-d1-c7a2ab" r="23.129690170288086" cx="0" cy="0" style="stroke: rgb(117, 117, 117); stroke-opacity: 1; stroke-width: 0; fill: rgb(116, 116, 116); fill-opacity: 1;" transform="matrix(1,0,0,1,-366.3390197753906,-146.47822570800778)"></circle></svg>
<svg id="S-5a-f41c54" style="overflow: visible; pointer-events: none;" data-hidden="false" data-disabled="true"><path id="P-d4-154405" d="M-430.66888427734375 -145.0763702392578Q-366.4947814941406 -238.32608032226562 -302.9437561035156 -145.0763702392578Q-366.4947814941406 -53.903472900390625 -430.66888427734375 -145.0763702392578 " style="stroke: rgb(117, 117, 117); stroke-opacity: 1; stroke-width: 13; fill: rgb(0, 0, 0); fill-opacity: 0;" transform="matrix(1,0,0,1,0.46728515625,-0.8826541900634197)"></path><circle id="C-5c-7c7833" r="23.129690170288086" cx="0" cy="0" style="stroke: rgb(117, 117, 117); stroke-opacity: 1; stroke-width: 0; fill: rgb(116, 116, 116); fill-opacity: 1;" transform="matrix(1,0,0,1,-366.3390197753906,-146.47822570800778)"></circle></svg>
<svg id="S-18-808134" style="overflow: visible; pointer-events: auto;"><path id="P-00-274967" d="M-430.66888427734375 -145.0763702392578Q-366.4947814941406 -238.32608032226562 -302.9437561035156 -145.0763702392578Q-366.4947814941406 -53.903472900390625 -430.66888427734375 -145.0763702392578 " style="stroke: rgb(117, 117, 117); stroke-opacity: 1; stroke-width: 13; fill: rgb(0, 0, 0); fill-opacity: 0;" transform="matrix(1,0,0,1,0.46728515625,-0.8826541900634197)"></path><circle id="C-10-efc13b" r="23.129690170288086" cx="0" cy="0" style="stroke: rgb(117, 117, 117); stroke-opacity: 1; stroke-width: 0; fill: rgb(116, 116, 116); fill-opacity: 1;" transform="matrix(1,0,0,1,-366.3390197753906,-146.47822570800778)"></circle></svg></svg>