<svg width="100%" height="100%"
version="1.1"
xmlns="http://www.w3.org/2000/svg" 
xmlns:xlink="http://www.w3.org/1999/xlink"
xmlns:svgjs="http://svgjs.com/svgjs"
style="stroke-linecap: round; stroke-linejoin: round;"
viewBox="-132.55764465332032 -17.933798789978027 72.72762451171874 57.70994567871094">
<polygon id="P-ee-d557ca" points="-124.17123664999045,7.525964613082323 -103.82657056267942,-13.124636302609318 -65.89065184348293,-13.124636302609318 -85.77641568822303,7.525964613082323" style="stroke: rgb(96, 96, 96); stroke-opacity: 1; stroke-width: 5; fill: rgb(0, 0, 0); fill-opacity: 1;"></polygon>
<polygon id="P-ce-45d07f" points="-124.17123664999045,7.525964613082323 -103.82657056267942,-13.124636302609318 -65.89065184348293,-13.124636302609318 -85.77641568822303,7.525964613082323" style="stroke: rgb(96, 96, 96); stroke-opacity: 1; stroke-width: 5; fill: rgb(0, 0, 0); fill-opacity: 1;" transform="matrix(1,0,0,1,-1.9799270629882812,27.416184198366185)"></polygon>
<polygon id="P-51-5370de" points="-124.17123537340991,-2.9387989649980906 -114.13631787276822,-13.124636478694057 -95.42459200691023,-13.124636478694057 -105.23315798498088,-2.9387989649980906" style="stroke: rgb(255, 255, 255); stroke-opacity: 1; stroke-width: 5; fill: none; fill-opacity: 1;" transform="matrix(1,0,0,1,29.068556778855097,0.23256731033325195)"></polygon>
<polygon id="P-a6-7cb5b7" points="-124.17123537340991,-2.9387989649980906 -114.13631787276822,-13.124636478694057 -95.42459200691023,-13.124636478694057 -105.23315798498088,-2.9387989649980906" style="stroke: rgb(255, 255, 255); stroke-opacity: 1; stroke-width: 5; fill: none; fill-opacity: 1;" transform="matrix(1,0,0,1,-2.325775146484375,37.90578412336804)"></polygon>
<g id="G-70-4fbe4f" transform="matrix(1,0,0,1,0.000003814697265625,2.763973102316651)"><g id="G-f6-085233" transform="matrix(-1,-4.3021144851202776e-16,4.3021144851202776e-16,-1,-194.01212692260742,28.019378795876708)"><line id="L-ce-9ba9d2" x1="-119.8881490526618" y1="54.63992818369732" x2="-112.08681092895607" y2="62.28829889321274" style="stroke: rgb(255, 255, 255); stroke-opacity: 1; stroke-width: 5; fill: none; fill-opacity: 0;" transform="matrix(0.9999999999999999,0,0,0.9999999999999999,15.296611785888672,-33.34701156616211)"></line><line id="L-9e-4f3008" x1="-102.29689642077633" y1="53.41618887017485" x2="-109.02746264514991" y2="60.45268992292904" style="stroke: rgb(255, 255, 255); stroke-opacity: 1; stroke-width: 5; fill: none; fill-opacity: 0;" transform="matrix(0.9999999999999999,0,0,0.9999999999999999,12.646099090576172,-31.83495308111765)"></line></g><line id="L-ad-667560" x1="-57.43660203036845" y1="30.762414729413706" x2="-57.43660203036845" y2="43.45155107548041" style="stroke: rgb(255, 255, 255); stroke-opacity: 1; stroke-width: 5; fill: none; fill-opacity: 0;" transform="matrix(1,0,0,1,-39.70059585571289,-26.257654056296143)"></line></g></svg>