<svg width="100%" height="100%"
version="1.1"
xmlns="http://www.w3.org/2000/svg" 
xmlns:xlink="http://www.w3.org/1999/xlink"
xmlns:svgjs="http://svgjs.com/svgjs"
style="stroke-linecap: round; stroke-linejoin: round; background: rgba(34, 34, 34, 0);"
viewBox="13.035746002197266 8.67850570678711 142.93887634277343 145.02959289550782">
<line id="SvgjsLine8596" x1="-17.05336952799244" y1="-17.906030862238776" x2="6.990899434900655" y2="7.340467216594583" style="stroke: rgb(255, 255, 255); stroke-opacity: 1; stroke-width: 10; fill: none; fill-opacity: 0;" transform="matrix(1,0,0,1,102.48124694824219,98.08440399169922)"></line>
<path id="SvgjsPath1129" d="Q715.8583374023438 110.1417007446289 715.8583374023438 NaN " style="stroke: rgb(255, 255, 255); stroke-opacity: 1; stroke-width: 10; fill: rgb(0, 0, 0); fill-opacity: 1;"></path>
<path id="SvgjsPath2872" d="M759.7029651420602 94.49113138574383Q759.4145531112845 80.63869946165987 770.6765117019077 80.53894805908203Q781.1487639757473 80.53894805908203 781.282403778295 94.21499235441912L781.9801550380855 123.38124418799732Q782.0561820471747 136.00857383421646 772.1480578050271 136.00857383421646Q760.7048575871112 135.86551125813068 760.2101599328063 123.72864102853669L759.7029651420602 94.56238919495857 " style="stroke: rgb(255, 255, 255); stroke-opacity: 1; stroke-width: 10; fill: rgb(0, 0, 0); fill-opacity: 1;" transform="matrix(0.7457184791564941,-0.6662611961364746,0.6662611961364746,0.7457184791564941,-529.7479248046875,546.1666870117188)"></path>
<circle id="SvgjsCircle8385" r="35.16474151611328" cx="0" cy="0" style="stroke: rgb(255, 255, 255); stroke-opacity: 1; stroke-width: 10; fill: rgb(0, 0, 0); fill-opacity: 1;" transform="matrix(1,0,0,1,60.112060546875,55.929046630859375)"></circle>
<line id="SvgjsLine1655" x1="611.1112771926789" y1="41.96378366085636" x2="611.1112670898438" y2="72.04776782977574" style="stroke: rgb(255, 255, 255); stroke-opacity: 1; stroke-width: 10; fill: none; fill-opacity: 0;" transform="matrix(1,0,0,1,-550.9778442382812,-1.1689071655273438)"></line>
<line id="SvgjsLine1655" x1="611.2467624113523" y1="41.963783264160156" x2="611.1112670898438" y2="72.04777014362799" style="stroke: rgb(255, 255, 255); stroke-opacity: 1; stroke-width: 10; fill: none; fill-opacity: 0;" transform="matrix(0.005600659642368555,0.9999842643737793,-0.9999842643737793,0.005600659642368555,113.68453979492188,-555.8539428710938)"></line></svg>