<svg width="100%" height="100%"
version="1.1"
xmlns="http://www.w3.org/2000/svg" 
xmlns:xlink="http://www.w3.org/1999/xlink"
xmlns:svgjs="http://svgjs.com/svgjs"
style="stroke-linecap: round; stroke-linejoin: round;"
viewBox="-61.48428726196289 63.545 1022.6858139038086 577.41">
<path id="P-ce-64c203" d="M1.5 99Q345.0414459705353 101.77807188034058 408.9171077013016 243.12169075012207Q428.83421564102173 290.8021727800369 452.9999998807907 289.8436188697815Q474.8877122402191 290.12169075012207 491.1243381500244 243.80217278003693Q537.3195178508759 105.45855391025543 898 100.49999999999997Q904 394.5 821.1122875213623 504.45855391025543Q735.8221652507782 602.8195179700851 635.987949848175 605.5C529.6666666666666 605.5 518.7927696704865 550.8333333333334 451 549.5C386.6666666666667 550.8333333333334 365.06863566239673 604.6528513034185 267.1644608974457 605Q159.94187092781067 601.0695179700851 78.7002124786377 510.7646977901459Q-2.5 408.75 1.5 99 " style="stroke: rgb(109, 109, 109); stroke-opacity: 1; fill: rgb(0, 0, 0); fill-opacity: 1; stroke-width: 38;" transform="matrix(1,0,0,1,0,0)"></path>
<path id="P-e9-bf78ab" d="M369.9831512806142 238.98996728675309Q367.96479716103704 513.485270155621 92.12386644416574 427.3690935975543Q96.16056160136105 139.41813922678654 369.9831512806142 238.98996728675309 " style="stroke: rgb(109, 109, 109); stroke-opacity: 1; stroke-width: 38px; fill: rgb(32, 32, 32); fill-opacity: 1;" transform="matrix(0.9776395559310913,0.21028774976730344,-0.21028774976730344,0.9776395559310913,499.04550170898426,3.50177001953125)"></path>
<path id="P-11-f0ff18" d="M92.1238586070811 238.98996728675309Q94.14221272665827 513.485270155621 369.98314344352957 427.3690935975543Q365.94644828633426 139.41813922678654 92.1238586070811 238.98996728675309 " style="stroke: rgb(109, 109, 109); stroke-opacity: 1; stroke-width: 38px; fill: rgb(32, 32, 32); fill-opacity: 1;" transform="matrix(0.9781476259231566,-0.2079116851091385,0.2079116851091385,0.9781476259231566,-45.41397857666021,106.22044372558594)"></path>
<defs id="SvgjsDefs2918"></defs></svg>