<svg width="100%" height="100%" version="1.1" 
  xmlns="http://www.w3.org/2000/svg" 
  xmlns:xlink="http://www.w3.org/1999/xlink" 
  xmlns:svgjs="http://svgjs.com/svgjs" 
style="stroke-linecap: round; stroke-linejoin: round; stroke-miterlimit: 20; "
viewBox="-60.347742309570314 153.1721405029297 1024.2181591796875 477.9313232421875">
  <path id="P-ce-64c203" d="M1.5 194.9399127960205Q391.28293108940125 142.10011100769043 452.7483730316162 283.5487080812454Q515.3903949260712 141.09337866306305 902.1117105484009 192.3282022476196Q952.3722541332245 604.1900881528854 635.987949848175 605.5C529.6666666666666 605.5 518.7927696704865 550.8333333333334 451 549.5C386.6666666666667 550.8333333333334 365.06863566239673 604.6528513034185 267.1644608974457 605Q-49.099386215210615 603.3709659576416 1.5 194.9399127960205 " style="stroke: rgb(127, 127, 127); stroke-opacity: 1; fill: rgb(0, 0, 0); fill-opacity: 1; stroke-width: 38;" transform="matrix(1,0,0,1,-2.842170943040401e-14,0)"></path>
  <path id="P-e9-bf78ab" d="M370.8609924316406 240.32542419433594Q358.9137268066406 519.4346923828125 90.36820220947266 424.6981201171875Q105.21168518066406 133.4686737060547 370.8609924316406 240.32542419433594 " style="stroke: rgb(120, 120, 120); stroke-opacity: 1; stroke-width: 37; fill: rgb(36, 36, 36); fill-opacity: 1;" transform="matrix(0.9419267568664748,0.33581843862769434,-0.33581843862769434,0.9419267568664748,548.9588279724121,-2.7697677612304688)"></path>
  <path id="P-df-6d7a48" d="M370.8609924316406 240.32542419433594Q358.9137268066406 519.4346923828125 90.36820220947266 424.6981201171875Q105.21168518066406 133.4686737060547 370.8609924316406 240.32542419433594 " style="stroke: rgb(120, 120, 120); stroke-opacity: 1; stroke-width: 37; fill: rgb(36, 36, 36); fill-opacity: 1;" transform="matrix(0.6690538404397824,0.7432139648957865,-0.7432139648957865,0.6690538404397824,339.339542388916,-6.625640869140625)"></path>
  <defs id="SvgjsDefs1140"></defs>
</svg>