<svg width="100%" height="100%" 
version="1.1" 
xmlns="http://www.w3.org/2000/svg" 
style="stroke-linecap: round; stroke-linejoin: round; "
viewBox="246.85380859375 168.50155639648438 219.6 204">
<polygon id="SvgjsPolygon7348" points="1228,291 1217,282 1208,275 1201,271 1186,264 1166,262 1158,272 1157,290 1162,299 1172,307 1181,312 1183,315 1194,322 1203,328 1212,336 1217,346 1224,351 1231,359 1240,362 1249,363 1265,365 1278,368 1292,369 1303,366 1313,359 1322,350 1329,342 1335,331 1339,317 1340,307 1340,294 1340,282 1340,272 1340,257 1339,249 1336,230 1332,217 1323,205 1313,200 1297,199 1280,199 1260,199 1247,205 1240,214 1235,227 1232,242 1229,259" transform="matrix(1,0,0,1,-891.8461997872425,-13.498440913908963)" style="stroke: rgb(127, 127, 255); stroke-opacity: 1; stroke-width: 10; fill: rgb(50, 50, 255); fill-opacity: 0.5;"></polygon></svg>