<svg width="100%" height="100%"
version="1.1"
xmlns="http://www.w3.org/2000/svg" 
style="stroke-linecap: round; stroke-linejoin: round; "
viewBox="338.1362640380859 -3.1408309936523438 181.70504150390624 188.83071899414062">
<polygon id="SvgjsPolygon1845" points="-16.32969785683656,12.370986046234748 -28.205843809480825,4.453555411138552 -42.06134742089921,-0.4948387357965771 -58.885887520478605,-3.4638752239577 -69.77235464373598,4.453555411138552 -75.71042762005811,18.30905902255688 -66.80331815557486,29.1955261458142 -51.95813571476947,34.14392029274933 -41.07166859151221,40.08199326907146 -29.19552263886783,47.99942390416766 -22.267770833158693,60.86524868619904 -15.340019027449443,73.73107346823036 -0.4948365866440554,77.68978878577849 17.319382342322342,78.67946761516549 35.13360127128885,76.70010995639143 47.99942605332012,70.7620369800693 58.8858931765775,61.85492751558604 64.82396615289963,48.98910273355472 68.78268147044776,33.15424146336227 71.75171795860877,16.329701363782817 73.73107561738288,-1.484517565183637 75.71043327615689,-19.29873649415009 73.73107561738288,-37.112955423116574 69.77236029983476,-52.947816693308994 58.8858931765775,-61.85492615779222 47.99942605332012,-70.76203562227545 33.15424361251473,-75.71042976921058 17.319382342322342,-78.67946625737167 -1.4845154160311722,-77.68978742798464 -14.35034019806244,-71.75171445166248 -24.2471284919327,-61.85492615779222 -26.22648615070682,-44.04070722882574 -25.236807321319702,-25.236809470472252 -23.257449662545696,-12.370984688440899" transform="matrix(1,0,0,1,428.9887626596071,91.27452850341797)" style="stroke: rgb(255, 255, 255); stroke-opacity: 1; stroke-width: 10; fill: rgb(0, 0, 0); fill-opacity: 1;"></polygon>
<line id="SvgjsLine7031" x1="376.8443932797136" y1="172.4423060227369" x2="381.4951022018839" y2="241.16944898369837" style="stroke: rgb(255, 255, 255); stroke-opacity: 1; stroke-width: 10; fill: none; fill-opacity: 0;" transform="matrix(1,0,0,1,51.75572280365009,-156.66068649291992)"></line>
<line id="SvgjsLine4936" x1="401.92096924463493" y1="174.47704728867072" x2="403.5745717341971" y2="238.96754438159638" style="stroke: rgb(255, 255, 255); stroke-opacity: 1; stroke-width: 10; fill: none; fill-opacity: 0;" transform="matrix(1,0,0,1,51.756562037048525,-156.66109085083008)"></line>
<line id="SvgjsLine7032" x1="431.1026640383674" y1="183.29396017446766" x2="426.9687005519938" y2="241.68619441949505" style="stroke: rgb(255, 255, 255); stroke-opacity: 1; stroke-width: 10; fill: none; fill-opacity: 0;" transform="matrix(1,0,0,1,51.756501001892275,-156.6603012084961)"></line></svg>