<svg width="100%" height="100%"
version="1.1"
xmlns="http://www.w3.org/2000/svg" 
xmlns:xlink="http://www.w3.org/1999/xlink"
xmlns:svgjs="http://svgjs.com/svgjs"
style="stroke-linecap: round; stroke-linejoin: round; background: rgba(34, 34, 34, 0);"
viewBox="166.53677978515626 -20.339681100845336 207.23118896484374 221.77646484375">
<path id="SvgjsPath4859" d="M286.6882019042969 141.20045471191406S263.1732482910156 130.9557342529297 247.46176147460938 124.7170181274414S239.65103149414062 97.24459838867188 255.8115997314453 96.7059097290039S293.1365966796875 110.6675033569336 296.63787841796875 107.97402954101562S299.0133972167969 99.45832061767578 292.7695007324219 74.9045181274414S276.7454528808594 18.612838745117188 294.79132080078125 15.650129318237305S322.3959045410156 104.53145599365234 317.8170471191406 64.13089752197266S308.6598205566406 2.721928596496582 323.7427673339844 0.028553282842040062S340.1720275878906 19.959604263305664 344.2123107910156 60.62955856323242S337.20928955078125 6.762022972106934 354.4470520019531 7.031328201293945S370.87646484375 30.194353103637695 370.87677001953125 65.74691772460938S368.3451843261719 29.65851402282715 386.12127685546875 30.735797882080078S399.31805419921875 50.23789596557617 396.62457275390625 87.89229583740234S404.44293212890625 181.41354370117188 345.7985534667969 181.78121948242188S300.6905212402344 148.49766540527344 286.6882019042969 141.20045471191406 " style="stroke: rgb(255, 255, 255); stroke-opacity: 1; stroke-width: 10; fill: rgb(0, 0, 0); fill-opacity: 1;" transform="matrix(1,0,0,1,-47.944232025596705,0.8065129742026329)"></path></svg>