<svg width="100%" height="100%" version="1.1" 
  xmlns="http://www.w3.org/2000/svg" 
  xmlns:xlink="http://www.w3.org/1999/xlink" 
  xmlns:svgjs="http://svgjs.com/svgjs" 
style="stroke-linecap: round; stroke-linejoin: round; stroke-miterlimit: 20; "
viewBox="758.999609375 -15.71870559692383 202.8024169921875 225.6865414428711">
  <g id="G-52-291383" transform="matrix(1,0,0,1,441.8764021746383,-206.72596740722656)">
    <path id="P-c5-adc58c" d="M899.3139038085938 28.31830406188965Q922.5347900390625 48.2085075378418 907.0060424804688 60.401710510253906Q892.5195922851562 69.37947082519531 881.7708129882812 82.07131958007812Q891.793212890625 93.19830322265625 905.7239990234375 102.32808685302734Q907.2623291015625 120.69285583496094 889.0194702148438 129.9571533203125Q871.3169555664062 124.73145294189453 858.3550415039062 112.14170837402344Q827.5885009765625 148.42831420898438 799.5946044921875 181.38186645507812Q788.1927490234375 193.72547912597656 756.7980346679688 195.09158325195312Q756.3908081054688 163.7593231201172 765.614501953125 153.1531219482422Q794.7664794921875 119.5607681274414 826.3070678710938 83.1828384399414Q811.055419921875 72.37145233154297 804.4913940429688 58.85725021362305Q809.7040405273438 38.58604049682617 827.6585693359375 34.338645935058594Q838.0879516601562 46.33833312988281 850.6326293945312 55.189151763916016Q860.4431762695312 41.83211135864258 867.6218872070312 25.457969665527344Q876.919189453125 9.410355567932129 899.28369140625 28.353866577148438 " style="stroke: rgb(255, 255, 255); stroke-opacity: 1; stroke-width: 10; fill: rgb(0, 0, 0); fill-opacity: 1;" transform="matrix(0.9999754312796733,0.007009767259283071,-0.007009767259283071,0.9999754312796733,-417.988525390625,193.50838565826416)"></path>
    <line id="L-7d-914cd9" x1="781.3772303467481" y1="89.35622230951616" x2="821.6643676757812" y2="90.66993713378906" transform="matrix(0.7575978461893961,0.6527216125188343,-0.6527216125188343,0.7575978461893961,-124.63345336914062,-294.20294189453125)" style="stroke: rgb(255, 255, 255); stroke-opacity: 1; stroke-width: 10; fill: none; fill-opacity: 0;"></line>
  </g>
  <defs id="SvgjsDefs6909"></defs>
  <circle id="C-a0-8c19ff" r="4.423068523406982" cx="0" cy="0" style="stroke: rgb(255, 255, 255); stroke-opacity: 0; stroke-width: 1; fill: rgb(255, 0, 0); fill-opacity: 0;" transform="matrix(1,0,0,1,778.8906860351562,188.33139038085938)"></circle>
</svg>