<svg width="100%" height="100%" version="1.1" 
  xmlns="http://www.w3.org/2000/svg" 
  xmlns:xlink="http://www.w3.org/1999/xlink" 
  xmlns:svgjs="http://svgjs.com/svgjs" 
style="stroke-linecap: round; stroke-linejoin: round; stroke-miterlimit: 20; "
viewBox="-7.005108947753904 -56.014930787086485 665.8475897216797 668.8722225475311">
  <path id="P-82-3e7e6e" d="M63.61415100097656 202.00927734375L317.7657470703125 76.6507339477539L318.62432861328125 151.35069274902344Q431.78082275390625 154.1082763671875 489.1263732910156 219.5929718017578Q545.9774169921875 284.6179504394531 548.7345581054688 379.7436828613281L627.7276611328125 379.74371337890625L498.07598876953125 638.1884155273438L371.0001525878906 380.6022644042969L447.4173889160156 379.74371337890625Q447.41754150390625 316.20550537109375 419.08294677734375 286.1538391113281Q387.3140563964844 252.66787719726562 321.2002258300781 253.52650451660156L319.48297119140625 328.2264709472656L63.61415100097656 202.00927734375 " style="stroke: rgb(0, 0, 0); stroke-opacity: 1; stroke-width: 35; fill: rgb(255, 255, 255); fill-opacity: 1;" transform="matrix(0.004868879518461078,0.9999881469358706,-0.9999881469358706,0.004868879518461078,681.6509971618652,-68.98585319519043)"></path>
  <circle id="C-10-a93dfb" r="50" cx="0" cy="0" style="stroke: rgb(0, 0, 0); stroke-opacity: 1; stroke-width: 35; fill: rgb(255, 255, 255); fill-opacity: 1;" transform="matrix(1,0,0,1,95.93528747558594,46.41938166522457)"></circle>
  <defs id="SvgjsDefs14727"></defs>
  <circle id="C-a0-8c19ff" r="4.423068523406982" cx="0" cy="0" style="stroke: rgb(255, 255, 255); stroke-opacity: 0; stroke-width: 1; fill: rgb(255, 0, 0); fill-opacity: 0;" transform="matrix(1,0,0,1,96.73145294189453,45.665688264559826)"></circle>
</svg>