<svg width="100%" height="100%" version="1.1" 
  xmlns="http://www.w3.org/2000/svg" 
  xmlns:xlink="http://www.w3.org/1999/xlink" 
  xmlns:svgjs="http://svgjs.com/svgjs" 
style="stroke-linecap: round; stroke-linejoin: round; stroke-miterlimit: 20; "
viewBox="-151.6150375366211 -199.13784637451172 955.0689880371094 955.1156433105468">
  <path id="P-ce-ef87b7" d="M63.61415100097656 202.00927734375L317.7657470703125 76.6507339477539L318.62432861328125 151.35069274902344Q431.78082275390625 154.1082763671875 489.1263732910156 219.5929718017578Q545.9774169921875 284.6179504394531 548.7345581054688 379.7436828613281L627.7276611328125 379.74371337890625L498.07598876953125 638.1884155273438L371.0001525878906 380.6022644042969L447.4173889160156 379.74371337890625Q447.41754150390625 316.20550537109375 419.08294677734375 286.1538391113281Q387.3140563964844 252.66787719726562 321.2002258300781 253.52650451660156L319.48297119140625 328.2264709472656L63.61415100097656 202.00927734375 " style="stroke: rgb(0, 0, 0); stroke-opacity: 1; stroke-width: 35; fill: rgb(255, 255, 255); fill-opacity: 1;" transform="matrix(0.6995199379364045,0.7146130816249108,-0.7146130816249108,0.6995199379364045,339.532470703125,-218.62309646606445)"></path>
  <circle id="C-8e-69ded3" r="50" cx="0" cy="0" style="stroke: rgb(0, 0, 0); stroke-opacity: 1; stroke-width: 35; fill: rgb(255, 255, 255); fill-opacity: 1;" transform="matrix(1,0,0,1,21.054885805832658,274.4217834472656)"></circle>
  <defs id="SvgjsDefs1448"></defs>
  <circle id="C-a0-8c19ff" r="4.423068523406982" cx="0" cy="0" style="stroke: rgb(255, 255, 255); stroke-opacity: 0; stroke-width: 1; fill: rgb(255, 0, 0); fill-opacity: 0;" transform="matrix(1,0,0,1,22.061492919921875,272.9007237713879)"></circle>
</svg>