<svg width="32" height="32" 
version="1.1" 
xmlns="http://www.w3.org/2000/svg" 
style="stroke-linecap: round; stroke-linejoin: round; "
viewBox="-34.54181804656982 -13.084379196166992 750.9929740905761 752.8816452026367">
<polygon id="SvgjsPolygon2730" points="207.46735816504957,-99 -99.5,53.02749574783212 207.46735816504957,205.05499149566424 207.46735816504957,205.05499149566424" transform="matrix(1,0,0,1,127.54092980196894,148.65575800957592)" style="stroke: rgb(170, 170, 170); stroke-opacity: 0.9; stroke-width: 0; fill: rgb(255, 255, 255); fill-opacity: 1;"></polygon>
<rect id="SvgjsRect12074" width="243.26084899902344" height="130.31800104411158" style="stroke: rgb(170, 170, 170); stroke-opacity: 0.9; stroke-width: 0; fill: rgb(255, 255, 255); fill-opacity: 1;" transform="matrix(1,0,0,1,269.3061681985173,137.92536459340246)"></rect>
<circle id="SvgjsCircle13250" r="47.168395774039524" cx="0" cy="0" style="stroke: rgb(170, 170, 170); stroke-opacity: 0.9; stroke-width: 0; fill: rgb(255, 255, 255); fill-opacity: 1;" transform="matrix(1,0,0,1,513.7672059188401,185.4645704683573)"></circle>
<polygon id="SvgjsPolygon2730" points="214.36650342786146,-99 -99.5,56.44434040316213 214.36650342786146,211.88868080632426 214.36650342786146,211.88868080632426" transform="matrix(1.1911045066925752e-15,-0.9999999999999969,0.9999999999999969,1.1911045066925752e-15,441.97971335168734,577.557106310084)" style="stroke: rgb(170, 170, 170); stroke-opacity: 0.9; stroke-width: 0; fill: rgb(255, 255, 255); fill-opacity: 1;"></polygon>
<rect id="SvgjsRect12074" width="227.40414428710938" height="128.89657822167584" style="stroke: rgb(170, 170, 170); stroke-opacity: 0.9; stroke-width: 0; fill: rgb(255, 255, 255); fill-opacity: 1;" transform="matrix(-0.001745328365901089,0.999998476913286,-0.999998476913286,-0.001745328365901089,560.7532153200037,186.12215746950756)"></rect>
<polygon id="SvgjsPolygon2730" points="99.5,-99 -99.5,0 99.5,99 99.5,99" transform="matrix(1,0,0,1,200.96937023629164,202.36663770808366)" style="stroke: rgb(170, 170, 170); stroke-opacity: 0.9; stroke-width: 0; fill: rgb(0, 0, 0); fill-opacity: 1;"></polygon>
<rect id="SvgjsRect12074" width="201.0873926981144" height="65.217532766956" style="stroke: rgb(170, 170, 170); stroke-opacity: 0.9; stroke-width: 0; fill: rgb(0, 0, 0); fill-opacity: 1;" transform="matrix(1,0,0,1,298.6742753001342,168.66009614513544)"></rect>
<circle id="SvgjsCircle13250" r="31.71923828125" cx="0" cy="0" style="stroke: rgb(170, 170, 170); stroke-opacity: 0.9; stroke-width: 0; fill: rgb(0, 0, 0); fill-opacity: 1;" transform="matrix(1,0,0,1,499.1852411785063,200.68723934649597)"></circle>
<rect id="SvgjsRect12074" width="201.0873926981144" height="65.217532766956" style="stroke: rgb(170, 170, 170); stroke-opacity: 0.9; stroke-width: 0; fill: rgb(0, 0, 0); fill-opacity: 1;" transform="matrix(-0.001745328365901089,0.999998476913286,-0.999998476913286,-0.001745328365901089,531.0704706456805,199.85053845002622)"></rect>
<polygon id="SvgjsPolygon2730" points="99.5,-99 -99.5,0 99.5,99 99.5,99" transform="matrix(1.1911045066925752e-15,-0.9999999999999969,0.9999999999999969,1.1911045066925752e-15,498.73642803633817,499.38087685520463)" style="stroke: rgb(170, 170, 170); stroke-opacity: 0.9; stroke-width: 0; fill: rgb(0, 0, 0); fill-opacity: 1;"></polygon></svg>