<svg width="100%" height="100%" version="1.1" 
  xmlns="http://www.w3.org/2000/svg" 
  xmlns:xlink="http://www.w3.org/1999/xlink" 
  xmlns:svgjs="http://svgjs.com/svgjs" 
style="stroke-linecap: round; stroke-linejoin: round;"
viewBox="154.9591064453125 201.6775375366211 141.531005859375 141.17979125976564">
  <circle id="C-b7-48240e" r="23.61252784729004" cx="0" cy="0" style="stroke: rgb(255, 255, 255); stroke-opacity: 1; stroke-width: 10; fill: rgb(0, 0, 0); fill-opacity: 1;" transform="matrix(1,0,0,1,261.0833435058594,237.0550537109375)"></circle>
  <circle id="C-5c-f2eceb" r="23.61252784729004" cx="0" cy="0" style="stroke: rgb(255, 255, 255); stroke-opacity: 1; stroke-width: 10; fill: rgb(0, 0, 0); fill-opacity: 1;" transform="matrix(1,0,0,1,261.0833435058594,307.4798278808594)"></circle>
  <line id="L-19-a3e7a2" x1="200.2563018798828" y1="312.3700404763222" x2="200.2563018798828" y2="286.9100139141083" style="stroke: rgb(127, 127, 127); stroke-opacity: 1; fill: none; fill-opacity: 0; stroke-width: 8;" transform="matrix(1,0,0,1,60.56413269042969,-27.4486083984375)"></line>
  <circle id="C-8f-3c6610" r="23.61252784729004" cx="0" cy="0" style="stroke: rgb(255, 255, 255); stroke-opacity: 1; stroke-width: 10; fill: rgb(0, 0, 0); fill-opacity: 1;" transform="matrix(1,0,0,1,190.3658904846597,237.0550537109375)"></circle>
  <circle id="C-c3-cdc910" r="23.61252784729004" cx="0" cy="0" style="stroke: rgb(255, 255, 255); stroke-opacity: 1; stroke-width: 10; fill: rgb(0, 0, 0); fill-opacity: 1;" transform="matrix(1,0,0,1,190.3658904846597,307.4798278808594)"></circle>
  <line id="L-ec-8e53fc" x1="200.2563018798828" y1="312.3700404763222" x2="200.2563018798828" y2="286.9100139141083" style="stroke: rgb(127, 127, 127); stroke-opacity: 1; fill: none; fill-opacity: 0; stroke-width: 8;" transform="matrix(1,0,0,1,-10.153320330769986,-27.4486083984375)"></line>
  <line id="L-d5-b9fcfb" x1="200.2563018798828" y1="312.3700404763222" x2="200.2563018798828" y2="286.9100139141083" style="stroke: rgb(127, 127, 127); stroke-opacity: 1; fill: none; fill-opacity: 0; stroke-width: 8;" transform="matrix(1.1102230246251565e-16,-1,1,1.1102230246251565e-16,-73.84555051883939,437.9812316894531)"></line>
  <line id="L-d8-df3269" x1="200.2563018798828" y1="312.3700404763222" x2="200.2563018798828" y2="286.9100139141083" style="stroke: rgb(127, 127, 127); stroke-opacity: 1; fill: none; fill-opacity: 0; stroke-width: 8;" transform="matrix(1.1102230246251565e-16,-1,1,1.1102230246251565e-16,-73.84555053710938,508.1142727058893)"></line>
  <defs id="SvgjsDefs1145"></defs>
</svg>