<svg width="100%" height="100%"
version="1.1"
xmlns="http://www.w3.org/2000/svg" 
xmlns:xlink="http://www.w3.org/1999/xlink"
xmlns:svgjs="http://svgjs.com/svgjs"
style="stroke-linecap: round; stroke-linejoin: round; background: rgba(34, 34, 34, 0);"
viewBox="2.0721536636352536 191.0324478149414 111.32348327636718 167.02267456054688">
<rect id="R-b4-03bb36" width="26.93729591369629" height="54.96153259277344" style="stroke: rgb(111, 111, 111); stroke-opacity: 1; stroke-width: 10; fill: rgb(0, 0, 0); fill-opacity: 1;" x="128" y="34" transform="matrix(0.0004040345374960453,0.9999998807907106,-0.9999998807907106,0.0004040345374960453,100.25891304016113,76.93729330587664)"></rect>
<rect id="R-ec-d2d002" width="26.93729591369629" height="54.96153259277344" style="stroke: rgb(111, 111, 111); stroke-opacity: 1; stroke-width: 10; fill: rgb(0, 0, 0); fill-opacity: 1;" x="128" y="34" transform="matrix(0.0004040345374960453,0.9999998807907106,-0.9999998807907106,0.0004040345374960453,138.0560786576243,189.16336059570312)"></rect>
<line id="L-d9-43006a" x1="14.795876872847003" y1="264.22382329822136" x2="14.795876872847003" y2="281.40954581559487" style="stroke: rgb(255, 255, 255); stroke-opacity: 1; stroke-width: 6; fill: none; fill-opacity: 0;" transform="matrix(0.0004040345374960453,0.9999998807907106,-0.9999998807907106,0.0004040345374960453,330.553357664949,216.48104318763416)"></line>
<rect id="R-57-95fde8" width="26.93729591369629" height="54.96153259277344" style="stroke: rgb(111, 111, 111); stroke-opacity: 1; stroke-width: 10; fill: rgb(0, 0, 0); fill-opacity: 1;" x="128" y="34" transform="matrix(0.0004040345374960453,0.9999998807907106,-0.9999998807907106,0.0004040345374960453,119.18365740666582,132.85831791742447)"></rect>
<line id="L-76-2ea886" x1="15.4451478418802" y1="272.9920490723915" x2="44.204928381158254" y2="272.9920490723915" style="stroke: rgb(255, 255, 255); stroke-opacity: 1; stroke-width: 10; fill: none; fill-opacity: 0;" transform="matrix(0.0004040345374960453,0.9999998807907106,-0.9999998807907106,0.0004040345374960453,330.5761145853738,272.8052323350832)"></line>
<line id="L-69-1df102" x1="14.795876872847003" y1="264.22382329822136" x2="14.795876872847003" y2="281.40954581559487" style="stroke: rgb(255, 255, 255); stroke-opacity: 1; stroke-width: 10; fill: none; fill-opacity: 0;" transform="matrix(0.0004040345374960453,0.9999998807907106,-0.9999998807907106,0.0004040345374960453,330.57625629122793,273.1559593745721)"></line>
<line id="L-60-98c991" x1="14.795876872847003" y1="264.22382329822136" x2="14.795876872847003" y2="281.40954581559487" style="stroke: rgb(255, 255, 255); stroke-opacity: 1; stroke-width: 10; fill: none; fill-opacity: 0;" transform="matrix(0.0004040345374960453,0.9999998807907106,-0.9999998807907106,0.0004040345374960453,330.58801796959267,302.26653253395966)"></line>
<line id="L-08-7063cd" x1="15.4451478418802" y1="272.9920490723915" x2="44.204928381158254" y2="272.9920490723915" style="stroke: rgb(255, 255, 255); stroke-opacity: 1; stroke-width: 10; fill: none; fill-opacity: 0;" transform="matrix(0.0004040345374960453,0.9999998807907106,-0.9999998807907106,0.0004040345374960453,330.5533576661049,216.48104604865722)"></line>
<line id="L-fb-29801a" x1="14.795876872847003" y1="264.22382329822136" x2="14.795876872847003" y2="281.40954581559487" style="stroke: rgb(255, 255, 255); stroke-opacity: 1; stroke-width: 10; fill: none; fill-opacity: 0;" transform="matrix(0.0004040345374960453,0.9999998807907106,-0.9999998807907106,0.0004040345374960453,330.5534993727055,216.83177493588988)"></line>
<line id="L-cd-71ee14" x1="14.795876872847003" y1="264.22382329822136" x2="14.795876872847003" y2="281.40954581559487" style="stroke: rgb(255, 255, 255); stroke-opacity: 1; stroke-width: 10; fill: none; fill-opacity: 0;" transform="matrix(0.0004040345374960453,0.9999998807907106,-0.9999998807907106,0.0004040345374960453,330.5652610495532,245.94234434018523)"></line></svg>