<svg width="100%" height="100%"
version="1.1"
xmlns="http://www.w3.org/2000/svg" 
xmlns:xlink="http://www.w3.org/1999/xlink"
xmlns:svgjs="http://svgjs.com/svgjs"
style="stroke-linecap: round; stroke-linejoin: round; background: rgba(34, 34, 34, 0);"
viewBox="-25.618374633789063 218.72271575927735 167.02236328125 111.12691040039063">
<rect id="R-b4-03bb36" width="26.93729591369629" height="54.96153259277344" style="stroke: rgb(111, 111, 111); stroke-opacity: 1; stroke-width: 10; fill: rgb(0, 0, 0); fill-opacity: 1;" x="128" y="34" transform="matrix(1,0,0,1,-139.69984912872314,193.9832901372627)"></rect>
<rect id="R-ec-d2d002" width="26.93729591369629" height="54.96153259277344" style="stroke: rgb(111, 111, 111); stroke-opacity: 1; stroke-width: 10; fill: rgb(0, 0, 0); fill-opacity: 1;" x="128" y="34" transform="matrix(1,0,0,1,-27.45183414361037,231.62751007080078)"></rect>
<line id="L-d9-43006a" x1="14.795876872847003" y1="264.22382329822136" x2="14.795876872847003" y2="281.40954581559487" style="stroke: rgb(255, 255, 255); stroke-opacity: 1; stroke-width: 6; fill: none; fill-opacity: 0;" transform="matrix(1,0,0,1,0,1.5350519816080919)"></line>
<rect id="R-57-95fde8" width="26.93729591369629" height="54.96153259277344" style="stroke: rgb(111, 111, 111); stroke-opacity: 1; stroke-width: 10; fill: rgb(0, 0, 0); fill-opacity: 1;" x="128" y="34" transform="matrix(1,0,0,1,-83.7081184387207,212.87095896402997)"></rect>
<g id="G-04-70e078" transform="matrix(1,0,0,1,0.558258056640625,1.5350519816080919)"><line id="L-76-2ea886" x1="15.4451478418802" y1="272.9920490723915" x2="44.204928381158254" y2="272.9920490723915" style="stroke: rgb(255, 255, 255); stroke-opacity: 1; stroke-width: 10; fill: none; fill-opacity: 0;" transform="matrix(1,0,0,1,55.765937805175795,0)"></line><line id="L-69-1df102" x1="14.795876872847003" y1="264.22382329822136" x2="14.795876872847003" y2="281.40954581559487" style="stroke: rgb(255, 255, 255); stroke-opacity: 1; stroke-width: 10; fill: none; fill-opacity: 0;" transform="matrix(1,0,0,1,56.11666488647461,0)"></line><line id="L-60-98c991" x1="14.795876872847003" y1="264.22382329822136" x2="14.795876872847003" y2="281.40954581559487" style="stroke: rgb(255, 255, 255); stroke-opacity: 1; stroke-width: 10; fill: none; fill-opacity: 0;" transform="matrix(1,0,0,1,85.22724151611328,0)"></line></g>
<g id="G-fe-392af3" transform="matrix(1,0,0,1,0.00000286102294921875,1.5350519816080919)"><line id="L-08-7063cd" x1="15.4451478418802" y1="272.9920490723915" x2="44.204928381158254" y2="272.9920490723915" style="stroke: rgb(255, 255, 255); stroke-opacity: 1; stroke-width: 10; fill: none; fill-opacity: 0;" transform="matrix(1,0,0,1,0,0)"></line><line id="L-fb-29801a" x1="14.795876872847003" y1="264.22382329822136" x2="14.795876872847003" y2="281.40954581559487" style="stroke: rgb(255, 255, 255); stroke-opacity: 1; stroke-width: 10; fill: none; fill-opacity: 0;" transform="matrix(1,0,0,1,0.35072892904281616,0)"></line><line id="L-cd-71ee14" x1="14.795876872847003" y1="264.22382329822136" x2="14.795876872847003" y2="281.40954581559487" style="stroke: rgb(255, 255, 255); stroke-opacity: 1; stroke-width: 10; fill: none; fill-opacity: 0;" transform="matrix(1,0,0,1,29.46130180358888,0)"></line></g></svg>