<svg width="100%" height="100%" version="1.1" 
  xmlns="http://www.w3.org/2000/svg" 
  xmlns:xlink="http://www.w3.org/1999/xlink" 
  xmlns:svgjs="http://svgjs.com/svgjs" 
style="stroke-linecap: round; stroke-linejoin: round; stroke-miterlimit: 20; "
viewBox="-58.664339294433596 -58.80979736328125 180.93684814453124 185.41106811523437">
  <g id="G-91-b940e8" transform="matrix(1,0,0,1,-396.3231135989597,-42.05877685546875)">
    <line id="L-bb-c36f7a" x1="-17.053369529839966" y1="-17.906030927188148" x2="14.523084051987063" y2="15.24926536030997" style="stroke: rgb(255, 255, 255); stroke-opacity: 1; stroke-width: 10; fill: rgb(0, 0, 0); fill-opacity: 0;" transform="matrix(0.9994481801986694,-0.033215343952178955,0.033215343952178955,0.9994481801986694,444.7678527832031,94.37950897216797)"></line>
    <path id="P-ad-f05cbe" d="M759.7052220783198 98.86183178501065Q759.3264609479818 80.66994786808249 774.1163854671901 80.53894805908203Q787.8692171287403 80.53894805908203 788.044721467221 98.49918865993905L788.9610530610943 136.80214301164847Q789.0608965933536 153.38514564712193 776.0489139538236 153.38514564712193Q761.0209713344932 153.19726688393638 760.3713027259536 137.25836636873348L759.7052220783198 98.95541201702426 " style="stroke: rgb(255, 255, 255); stroke-opacity: 1; stroke-width: 10; fill: rgb(0, 0, 0); fill-opacity: 1;" transform="matrix(0.7231768965721129,-0.6906630396842957,0.6906630396842957,0.7231768965721129,-170.4508666992187,569.3872680664062)"></path>
    <circle id="C-6e-4aa5b8" r="46.1805534362793" cx="0" cy="0" style="stroke: rgb(255, 255, 255); stroke-opacity: 1; stroke-width: 10; fill: rgb(0, 0, 0); fill-opacity: 1;" transform="matrix(1,0,0,1,396.3177185058594,42.21650314331052)"></circle>
  </g>
  <line id="L-73-67f5dc" x1="376.391348089617" y1="42.92336229855117" x2="417.02862548828125" y2="43.4930419921875" transform="matrix(1,0,0,1,-396.51304213060644,-43.38806076347828)" style="stroke: rgb(255, 255, 255); stroke-opacity: 1; stroke-width: 10; fill: none; fill-opacity: 0;"></line>
  <circle id="C-a0-8c19ff" r="4.423068523406982" cx="0" cy="0" style="stroke: rgb(255, 255, 255); stroke-opacity: 0; stroke-width: 1; fill: rgb(255, 0, 0); fill-opacity: 0;" transform="matrix(1,0,0,1,0.15556748853419222,-0.23671264946460724)"></circle>
  <defs id="SvgjsDefs17163"></defs>
</svg>