<svg width="100%" height="100%"
version="1.1"
xmlns="http://www.w3.org/2000/svg" 
xmlns:xlink="http://www.w3.org/1999/xlink"
xmlns:svgjs="http://svgjs.com/svgjs"
style="stroke-linecap: round; stroke-linejoin: round; background: rgba(34, 34, 34, 0);"
viewBox="334.53917236328124 -19.94776306152344 187.1760498046875 191.80455322265624">
<g id="SvgjsG4189"><line id="SvgjsLine8596" x1="-17.053369529839966" y1="-17.906030927188148" x2="14.523084051987063" y2="15.24926536030997" style="stroke: rgb(255, 255, 255); stroke-opacity: 1; stroke-width: 10; fill: rgb(0, 0, 0); fill-opacity: 0;" transform="matrix(0.9994481801986694,-0.033215343952178955,0.033215343952178955,0.9994481801986694,444.7678527832031,94.37950897216797)"></line><path id="SvgjsPath2872" d="M759.7052220783198 98.86183178501065Q759.3264609479818 80.66994786808249 774.1163854671901 80.53894805908203Q787.8692171287403 80.53894805908203 788.044721467221 98.49918865993905L788.9610530610943 136.80214301164847Q789.0608965933536 153.38514564712193 776.0489139538236 153.38514564712193Q761.0209713344932 153.19726688393638 760.3713027259536 137.25836636873348L759.7052220783198 98.95541201702426 " style="stroke: rgb(255, 255, 255); stroke-opacity: 1; stroke-width: 10; fill: rgb(0, 0, 0); fill-opacity: 1;" transform="matrix(0.7231768965721129,-0.6906630396842957,0.6906630396842957,0.7231768965721129,-170.4508666992187,569.3872680664062)"></path><circle id="SvgjsCircle8385" r="46.1805534362793" cx="0" cy="0" style="stroke: rgb(255, 255, 255); stroke-opacity: 1; stroke-width: 10; fill: rgb(0, 0, 0); fill-opacity: 1;" transform="matrix(1,0,0,1,396.3177185058594,42.21650314331052)"></circle></g>
<g id="SvgjsG5922"><line id="SvgjsLine5645" x1="376.391348089617" y1="42.92336229855117" x2="417.02862548828125" y2="43.4930419921875" transform="matrix(1,0,0,1,-0.18988037109375,-1.3292675737934871)" style="stroke: rgb(255, 255, 255); stroke-opacity: 1; stroke-width: 10; fill: none; fill-opacity: 0;"></line><line id="SvgjsLine5645" x1="376.391348089617" y1="42.92336229855117" x2="417.02862548828125" y2="43.4930419921875" transform="matrix(0.005434544289248409,0.9999852327551486,-0.9999852327551486,0.005434544289248409,437.5717372894287,-355.05992889404297)" style="stroke: rgb(255, 255, 255); stroke-opacity: 1; stroke-width: 10; fill: none; fill-opacity: 0;"></line></g></svg>