<svg width="100%" height="100%"
version="1.1"
xmlns="http://www.w3.org/2000/svg" 
xmlns:xlink="http://www.w3.org/1999/xlink"
xmlns:svgjs="http://svgjs.com/svgjs"
style="stroke-linecap: round; stroke-linejoin: round;background: rgba(37, 37, 37, 1);"
viewBox="-1201.7146850585937 -63.26202392578125 1587.2352783203125 1113.129638671875">
<defs id="SvgjsDefs37916"></defs>
<svg id="layer 3" style="overflow: visible; pointer-events: none;" data-hidden="false" data-disabled="true"><g id="G-f4-e61310" class="" style="" transform="matrix(1,0,0,1,-0.5194952698513475,1.19500732421875)"><g id="SvgjsG10750" transform="matrix(1,0,0,1,-1134.3944091796877,154.7340698242188)" class="" style=""><path id="SvgjsPath10748" d="M566.0508422851562 19.150814056396484C541.751091003418 19.07424545288086 515.426155090332 -26.240646362304688 513.2731475830078 -66.7676773071289Q510.0560989379883 -95.49742126464844 539.7610931396484 -112.7968521118164Q522.018928527832 -123.34120178222656 494.7379379272461 -101.31843566894531Q476.1272506713867 -117.20243072509766 525.3773803710938 -156.06698608398438Q477.9278335571289 -157.21275329589844 456.3955192565918 -134.25439453125Q445.13135147094727 -153.513427734375 463.3432197570801 -178.3831787109375C419.74817180633545 -166.87733459472656 415.69389629364014 -144.08816528320312 393.6432685852051 -141.126953125C334.6721496582031 -134.76632690429688 343.1059875488281 -100.77532196044922 323.1606140136719 -97.13008880615234C191.72933959960938 -37.42609405517578 268.57940673828125 64.32122039794922 328.0876159667969 54.03977584838867Q306.4394226074219 23.631454467773438 345.46771240234375 6.827040672302246Q394.3187141418457 -8.365678787231445 427.5456733703613 5.312232971191406C475.39072788736803 26.947193262405904 488.70777960082023 83.39101480875797 461.9447505470757 98.55811535801854C406.5646970924984 138.47168963003344 260.2872753985881 141.92862718195636 157.5026984780402 104.79785406206611Q129.35927780959264 142.75075430393838 -156.1912142487556 135.1588956532628Q-127.98036180113331 250.14831155663563 71.22657563805637 191.10852859439944L-128.91815693462036 261.14650191691214Q-42.965280280919615 356.9599105711271 117.05817932531 220.76017119697042L-30.63346680812151 348.03551216838355Q78.56188272589537 416.78883618068096 167.0256561347494 236.38234772303701Q142.22180702223585 282.51275153497835 89.57130789388839 397.0873332677477Q200.14758492050498 424.635311286623 218.5902543301836 245.4984973582482L205.00959002502964 400.311982485454Q278.7909851074219 415.5500478744507 277.1023864746094 241.5506534576416L279.1903076171875 386.8290710449219Q345.6049499511719 389.42255306243896 342.4226837158203 232.8781032562256L345.20655822753906 371.3363952636719Q415.5982817406584 359.29880043448856 403.3805491155366 223.95664372166596Q415.22809313664663 340.6597185544499 459.9462529645844 375.73049425209194C489.666629906544 402.18731899191937 477.4546037807058 426.32480484377686 458.1581202574066 460.7055811199813C439.9677360151703 485.35335444545126 422.34986941628114 530.7262170377974 458.24869593262633 532.7541284773421L343.5969182970142 689.0740362648473Q428.58971021825334 717.932566190722 474.34643834066264 622.0729316109109L415.8069045913603 744.5788432297136Q505.2892355046788 791.1507325607676 533.6027962860451 617.3065884201421L510.5324651558484 761.790476398123Q503.35230238578237 807.4830032602035 565.5253664475267 833.4186185837151 " style="stroke: rgb(0, 0, 0); stroke-opacity: 1; stroke-width: 10; fill: rgb(115, 115, 115); fill-opacity: 0;" transform="matrix(1,0,0,1,161.98732902109623,9.856328010559082)" data-fill="#737373" class=""></path></g><g id="SvgjsG10754" transform="matrix(1,0,0,1,-415.1398620605469,154.7340698242188)" class="" style=""><path id="SvgjsPath10752" d="M-156.19122314453125 19.150814056396484C-131.89147186279297 19.07424545288086 -105.56653594970703 -26.240646362304688 -103.41352844238281 -66.7676773071289Q-100.19647979736328 -95.49742126464844 -129.90147399902344 -112.7968521118164Q-112.15930938720703 -123.34120178222656 -84.8783187866211 -101.31843566894531Q-66.26763153076172 -117.20243072509766 -115.51776123046875 -156.06698608398438Q-68.0682144165039 -157.21275329589844 -46.5359001159668 -134.25439453125Q-35.271732330322266 -153.513427734375 -53.48360061645508 -178.3831787109375C-9.88855266571045 -166.87733459472656 -5.834277153015137 -144.08816528320312 16.216350555419922 -141.126953125C75.18746948242188 -134.76632690429688 66.75363159179688 -100.77532196044922 86.69900512695312 -97.13008880615234C218.13027954101562 -37.42609405517578 141.28021240234375 64.32122039794922 81.77200317382812 54.03977584838867Q103.42019653320312 23.631454467773438 64.39190673828125 6.827040672302246Q15.540904998779297 -8.365678787231445 -17.686054229736328 5.312232971191406C-65.53110874674303 26.947193262405904 -78.84816046019523 83.39101480875797 -52.08513140645073 98.55811535801854C3.294922048126594 138.47168963003344 149.57234374203688 141.92862718195636 252.3569206625848 104.79785406206611Q280.50034133103236 142.75075430393838 566.0508333893806 135.1588956532628Q537.8399809417583 250.14831155663563 338.6330435025686 191.10852859439944L538.7777760752454 261.14650191691214Q452.8248994215446 356.9599105711271 292.801439815315 220.76017119697042L440.4930859487465 348.03551216838355Q331.2977364147296 416.78883618068096 242.8339630058756 236.38234772303701L320.2883112467366 397.0873332677477Q209.71203422012002 424.635311286623 191.2693648104414 245.4984973582482L204.85002911559536 400.311982485454Q131.06863403320312 415.5500478744507 132.75723266601562 241.5506534576416L130.6693115234375 386.8290710449219Q64.25466918945312 389.42255306243896 67.43693542480469 232.8781032562256L64.65306091308594 371.3363952636719Q-5.738662600033408 359.29880043448856 6.4790700250884115 223.95664372166596Q-5.368473996021599 340.6597185544499 -50.08663382395942 375.73049425209194C-79.80701076591902 402.18731899191937 -67.5949846400808 426.32480484377686 -48.29850111678164 460.7055811199813C-30.10811687454529 485.35335444545126 -12.490250275656123 530.7262170377974 -48.38907679200133 532.7541284773421L66.26270084361076 689.0740362648473Q-18.730091077628373 717.932566190722 -64.48681920003764 622.0729316109109L-5.947285450735308 744.5788432297136Q-95.4296163640538 791.1507325607676 -123.74317714542008 617.3065884201421L-100.6728460152234 761.790476398123Q-93.49268324515738 807.4830032602035 -155.66574730690172 833.4186185837151 " style="stroke: rgb(0, 0, 0); stroke-opacity: 1; stroke-width: 10; fill: rgb(115, 115, 115); fill-opacity: 0;" transform="matrix(1,0,0,1,161.9873075634241,9.856335639953613)" data-fill="#737373" class=""></path></g></g></svg>
<svg id="layer 2" style="overflow: visible; pointer-events: none;" data-disabled="true"><g id="G-27-3f7eba" class="" style="" transform="matrix(1,0,0,1,-516.4283447265626,-889.5360717773438)"><path id="SvgjsPath93674" d="M-156.19122314453125 19.150814056396484C-131.89147186279297 19.07424545288086 -105.56653594970703 -26.240646362304688 -103.41352844238281 -66.7676773071289Q-100.19647979736328 -95.49742126464844 -129.90147399902344 -112.7968521118164Q-112.15930938720703 -123.34120178222656 -84.8783187866211 -101.31843566894531Q-66.26763153076172 -117.20243072509766 -115.51776123046875 -156.06698608398438Q-68.0682144165039 -157.21275329589844 -46.5359001159668 -134.25439453125Q-35.271732330322266 -153.513427734375 -53.48360061645508 -178.3831787109375C-9.88855266571045 -166.87733459472656 -5.834277153015137 -144.08816528320312 16.216350555419922 -141.126953125C75.18746948242188 -134.76632690429688 66.75363159179688 -100.77532196044922 86.69900512695312 -97.13008880615234C218.13027954101562 -37.42609405517578 141.28021240234375 64.32122039794922 81.77200317382812 54.03977584838867Q103.42019653320312 23.631454467773438 64.39190673828125 6.827040672302246Q15.540904998779297 -8.365678787231445 -17.686054229736328 5.312232971191406C-65.53110874674303 26.947193262405904 -78.84816046019523 83.39101480875797 -52.08513140645073 98.55811535801854C3.294922048126594 138.47168963003344 149.57234374203688 141.92862718195636 252.3569206625848 104.79785406206611Q280.50034133103236 142.75075430393838 566.0508333893806 135.1588956532628Q537.8399809417583 250.14831155663563 338.6330435025686 191.10852859439944L538.7777760752454 261.14650191691214Q452.8248994215446 356.9599105711271 292.801439815315 220.76017119697042L440.4930859487465 348.03551216838355Q331.2977364147296 416.78883618068096 242.8339630058756 236.38234772303701L320.2883112467366 397.0873332677477Q209.71203422012002 424.635311286623 191.2693648104414 245.4984973582482L204.85002911559536 400.311982485454Q131.06863403320312 415.5500478744507 132.75723266601562 241.5506534576416L130.6693115234375 386.8290710449219Q64.25466918945312 389.42255306243896 67.43693542480469 232.8781032562256L64.65306091308594 371.3363952636719Q-5.738662600033408 359.29880043448856 6.4790700250884115 223.95664372166596Q-5.368473996021599 340.6597185544499 -50.08663382395942 375.73049425209194C-79.80701076591902 402.18731899191937 -67.5949846400808 426.32480484377686 -48.29850111678164 460.7055811199813C-30.10811687454529 485.35335444545126 -12.490250275656123 530.7262170377974 -48.38907679200133 532.7541284773421L66.26270084361076 689.0740362648473Q-18.730091077628373 717.932566190722 -64.48681920003764 622.0729316109109L-5.947285450735308 744.5788432297136Q-95.4296163640538 791.1507325607676 -123.74317714542008 617.3065884201421L-100.6728460152234 761.790476398123Q-93.49268324515738 807.4830032602035 -155.66574730690172 833.4186185837151 " style="stroke: rgb(0, 0, 0); stroke-opacity: 1; stroke-width: 0; fill: rgb(54, 54, 54); fill-opacity: 1;" data-fill="#737373" transform="matrix(1,0,0,1,263.7509290420045,1055.3882751464844)" class=""></path><path id="SvgjsPath93670" d="M566.0508422851562 19.150814056396484C541.751091003418 19.07424545288086 515.426155090332 -26.240646362304688 513.2731475830078 -66.7676773071289Q510.0560989379883 -95.49742126464844 539.7610931396484 -112.7968521118164Q522.018928527832 -123.34120178222656 494.7379379272461 -101.31843566894531Q476.1272506713867 -117.20243072509766 525.3773803710938 -156.06698608398438Q477.9278335571289 -157.21275329589844 456.3955192565918 -134.25439453125Q445.13135147094727 -153.513427734375 463.3432197570801 -178.3831787109375C419.74817180633545 -166.87733459472656 415.69389629364014 -144.08816528320312 393.6432685852051 -141.126953125C334.6721496582031 -134.76632690429688 343.1059875488281 -100.77532196044922 323.1606140136719 -97.13008880615234C191.72933959960938 -37.42609405517578 268.57940673828125 64.32122039794922 328.0876159667969 54.03977584838867Q306.4394226074219 23.631454467773438 345.46771240234375 6.827040672302246Q394.3187141418457 -8.365678787231445 427.5456733703613 5.312232971191406C475.39072788736803 26.947193262405904 488.70777960082023 83.39101480875797 461.9447505470757 98.55811535801854C406.5646970924984 138.47168963003344 260.2872753985881 141.92862718195636 157.5026984780402 104.79785406206611Q129.35927780959264 142.75075430393838 -156.1912142487556 135.1588956532628Q-127.98036180113331 250.14831155663563 71.22657563805637 191.10852859439944L-128.91815693462036 261.14650191691214Q-42.965280280919615 356.9599105711271 117.05817932531 220.76017119697042L-30.63346680812151 348.03551216838355Q78.56188272589537 416.78883618068096 167.0256561347494 236.38234772303701Q142.22180702223585 282.51275153497835 89.57130789388839 397.0873332677477Q200.14758492050498 424.635311286623 218.5902543301836 245.4984973582482L205.00959002502964 400.311982485454Q278.7909851074219 415.5500478744507 277.1023864746094 241.5506534576416L279.1903076171875 386.8290710449219Q345.6049499511719 389.42255306243896 342.4226837158203 232.8781032562256L345.20655822753906 371.3363952636719Q415.5982817406584 359.29880043448856 403.3805491155366 223.95664372166596Q415.22809313664663 340.6597185544499 459.9462529645844 375.73049425209194C489.666629906544 402.18731899191937 477.4546037807058 426.32480484377686 458.1581202574066 460.7055811199813C439.9677360151703 485.35335444545126 422.34986941628114 530.7262170377974 458.24869593262633 532.7541284773421L343.5969182970142 689.0740362648473Q428.58971021825334 717.932566190722 474.34643834066264 622.0729316109109L415.8069045913603 744.5788432297136Q505.2892355046788 791.1507325607676 533.6027962860451 617.3065884201421L510.5324651558484 761.790476398123Q503.35230238578237 807.4830032602035 565.5253664475267 833.4186185837151 " style="stroke: rgb(0, 0, 0); stroke-opacity: 1; stroke-width: 0; fill: rgb(54, 54, 54); fill-opacity: 1;" data-fill="#737373" transform="matrix(1,0,0,1,-456.94812774658203,1055.2539738677451)" class=""></path></g></svg>
<svg id="S-11-83ed69" style="overflow: visible; pointer-events: all;" data-hidden="false" data-disabled="false"><g id="G-f4-6e3b2e" transform="matrix(1,0,0,1,-1543.07597448371,-183.31784057617188)" style="" class=""><path id="P-2f-9e2f50" d="M-74.17639835125533 -101.27026023690998L-36.436464085140216 -101.27025457775495Q-17.16137424985547 -101.45204605185954 -17.317251153515784 -82.6789606935447Q-17.4290252801607 -64.45584729878658 -36.07315226085875 -64.45588408329415L-74.26423653965034 -64.45588974244916L-111.04754558884206 -64.9099718517306Q-129.1904069027021 -64.83377056372302 -129.36674819914617 -83.03129927686382Q-129.51516050714346 -101.57883524994118 -110.63884433724866 -101.7243423461914L-74.17639835125533 -101.27026023690998 " style="stroke: rgb(0, 0, 0); stroke-opacity: 1; stroke-width: 2; fill: rgb(255, 255, 255); fill-opacity: 1;" transform="matrix(1,0,0,1,791.2602882385254,602.0396995544434)" class=""></path><text id="T-1d-756124" font-family="Noteworthy" font-size="26.295062679213125" font-weight="bold" font-style="normal" style="stroke: rgb(0, 0, 0); stroke-opacity: 1; stroke-width: 0; fill: rgb(0, 0, 0); fill-opacity: 1;" text-anchor="middle" transform="matrix(1,0,0,1,717.9185180664062,496.8487548828125)" class="" svgjs:data="{&quot;leading&quot;:&quot;1.15&quot;}"><tspan id="SvgjsTspan87363" dy="30.23932208109509" x="0" svgjs:data="{&quot;newLined&quot;:true}">grid</tspan></text><g id="G-ca-b85376" style="" transform="matrix(1,0,0,1,-0.0001220703125,0.088134765625)" class=""><path id="P-e6-a1b86b" d="M-103.2201943946404 -101.50921482648451L-85.34039460055422 -101.50921214538353Q-76.20856239232091 -101.59533830655262 -76.28241116509082 -92.7013360813352Q-76.33536565601483 -84.06789048675783 -85.1682707533007 -84.06790791391408L-103.26180891393724 -84.06791059501508L-120.6883946871415 -84.283038114722Q-129.28381845487567 -84.24693672743436 -129.36736250806916 -92.8682612342474Q-129.43767482857456 -101.65540639809691 -120.49476699021562 -101.7243423461914L-103.2201943946404 -101.50921482648451 " style="stroke: rgb(0, 0, 0); stroke-opacity: 1; stroke-width: 2; fill: rgb(106, 106, 106); fill-opacity: 1;" transform="matrix(1,0,0,1,820.7431335449219,639.6027908325195)" class=""></path><text id="T-e8-6fb452" font-family="Noteworthy" font-size="11.756173482084195" font-weight="bold" font-style="normal" style="stroke: rgb(0, 0, 0); stroke-opacity: 1; stroke-width: 0; fill: rgb(0, 0, 0); fill-opacity: 1;" text-anchor="middle" transform="matrix(1,0,0,1,717.9104614257812,537.9673461914062)" class="" svgjs:data="{&quot;leading&quot;:&quot;1.15&quot;}"><tspan id="SvgjsTspan32855" dy="13.519599504396824" x="0" svgjs:data="{&quot;newLined&quot;:true}">opacity</tspan></text></g></g><text id="T-df-42a268" font-family="Bodoni Ornaments" font-size="0" font-weight="normal" font-style="normal" style="stroke: rgb(120, 120, 120); stroke-opacity: 1; stroke-width: 0; fill: rgb(69, 69, 69); fill-opacity: 1;" text-anchor="middle" transform="matrix(1,0,0,1,-38.14580154418945,-55.27540189201444)" class="" svgjs:data="{&quot;leading&quot;:&quot;1.15&quot;}"><tspan id="SvgjsTspan1771" dy="161" x="0" svgjs:data="{&quot;newLined&quot;:true}"></tspan></text><g id="G-d3-09d8e9" transform="matrix(1,0,0,1,-1601.411467712328,-183.15957720954697)" style="stroke-width: 4;" class=""><path id="P-65-81bc23" d="M-74.17639083549224 -101.27026019043139L-36.43645143010082 -101.27025453127577Q-17.161358970009786 -101.45204602398803 -17.31723589489691 -82.67895874411167Q-17.42901003676269 -64.45584348408566 -36.073139556344955 -64.45588026859699L-74.26422903584874 -64.45588592775258L-111.04754309404736 -64.90996808351264Q-129.19040687853118 -64.83376678770529 -129.3667481989887 -83.03129736349521Q-129.5151605271962 -101.57883523504745 -110.6388417867986 -101.7243423461914L-74.17639083549224 -101.27026019043139 " style="stroke: rgb(0, 0, 0); stroke-opacity: 1; stroke-width: 2; fill: rgb(255, 255, 255); fill-opacity: 1;" transform="matrix(1,0,0,1,891.4309959411621,696.7870712280273)" class=""></path><text id="T-a3-6f5a7d" font-family="Noteworthy" font-size="25.401725441206533" font-weight="bold" font-style="normal" style="stroke: rgb(0, 0, 0); stroke-opacity: 1; stroke-width: 0; fill: rgb(0, 0, 0); fill-opacity: 1;" transform="matrix(1,0,0,1,818.0919189453125,594.2681274414062)" text-anchor="middle" class="" svgjs:data="{&quot;leading&quot;:&quot;1.15&quot;}"><tspan id="SvgjsTspan2979" dy="29.21198425738751" x="0" svgjs:data="{&quot;newLined&quot;:true}">line</tspan></text><path id="P-5d-1a4d0f" d="M-98.17999683273487 -101.45552877594098L-56.842619915272635 -101.31905558864224Q-45.95054990105774 -101.42667492487304 -46.038633648670626 -90.31313401093841Q-46.10179556509229 -79.52517281934809 -56.63731774231887 -79.52519459553038L-98.22963290219542 -79.6616677828291L-119.01534030703885 -79.93048135307953Q-129.26760462214497 -79.8853707004722 -129.3672524973911 -90.65818593174244Q-129.4511181116888 -101.63820311885715 -118.7843892357186 -101.7243423461914L-98.17999683273487 -101.45552877594098 " style="stroke: rgb(0, 0, 0); stroke-opacity: 1; stroke-width: 2; fill: rgb(41, 41, 41); fill-opacity: 1;" transform="matrix(1,-1.9428904254429222e-16,1.9428904254429222e-16,1,905.7919082641602,733.8780632019043)" class=""></path><text id="T-ad-fc42f6" font-family="Noteworthy" font-size="16.8209990638076" font-weight="bold" font-style="normal" style="stroke: rgb(0, 0, 0); stroke-opacity: 1; stroke-width: 0; fill: rgb(151, 151, 151); fill-opacity: 1;" transform="matrix(1,-1.9428904254429222e-16,1.9428904254429222e-16,1,818.0889892578125,630.3568725585938)" text-anchor="middle" class="" svgjs:data="{&quot;leading&quot;:&quot;1.15&quot;}"><tspan id="SvgjsTspan4310" dy="19.34414892337874" x="0" svgjs:data="{&quot;newLined&quot;:true}">bbox</tspan></text></g><g id="G-d8-429ab1" style="" transform="matrix(1,0,0,1,-1618.913417654662,-663.2299728393555)" class=""><g id="G-4a-5b87f0" style="" transform="matrix(1,0,0,1,0.00006103515625,0.1326904296875)" class=""><path id="P-f5-256c88" d="M-99.0411271465162 -101.47483177297688L-78.30368657127329 -101.47482866336526Q-67.7123583717281 -101.57472005741538 -67.79801003195405 -91.25922161998433Q-67.8594279796591 -81.24592363721584 -78.10405301300592 -81.24594384969151L-99.08939271050032 -81.24594695930313L-119.30118428887837 -81.49545753251763Q-129.27037251554816 -81.45358619105353 -129.36726900535615 -91.45282581643394Q-129.44881899948248 -101.64438861480649 -119.07661002602508 -101.7243423461914L-99.0411271465162 -101.47483177297688 " style="stroke: rgb(0, 0, 0); stroke-opacity: 1; stroke-width: 2; fill: rgb(172, 101, 0); fill-opacity: 1;" transform="matrix(1,-1.9428904254429217e-16,1.9428904254429217e-16,1,1162.7911109924316,863.0285987854004)" class=""></path><text id="T-c2-10aec1" font-family="Noteworthy" font-size="11.87091634923664" font-weight="bold" font-style="normal" style="stroke: rgb(0, 0, 0); stroke-opacity: 1; stroke-width: 0; fill: rgb(255, 164, 34); fill-opacity: 1;" text-anchor="middle" transform="matrix(1,-1.9428904254429217e-16,1.9428904254429217e-16,1,1064.1978759765625,762.290771484375)" class="" svgjs:data="{&quot;leading&quot;:&quot;1.15&quot;}"><tspan id="SvgjsTspan2184" dy="13.651553801622136" x="0" svgjs:data="{&quot;newLined&quot;:true}">edit</tspan></text></g><g id="G-ac-df9df5" style="" transform="matrix(1,0,0,1,0.0001220703125,-0.64202880859375)" class=""><path id="P-d8-c2687f" d="M-74.17640962489993 -101.27026022929847L-36.43648306769937 -101.27025457014338Q-17.16139716962394 -101.4520460472952 -17.317274041444193 -82.67896037429914Q-17.429048145257624 -64.45584667407871 -36.07317131762947 -64.45588345858687L-74.26424779535277 -64.45588911774199L-111.04754933103413 -64.90997123463492Q-129.19040693895852 -64.83376994535001 -129.3667481993824 -83.0312989635243Q-129.5151604770644 -101.57883524750214 -110.63884816292372 -101.7243423461914L-74.17640962489993 -101.27026022929847 " style="stroke: rgb(0, 0, 0); stroke-opacity: 1; stroke-width: 2; fill: rgb(173, 174, 255); fill-opacity: 1;" transform="matrix(1,-1.9428904254429217e-16,1.9428904254429217e-16,1,1137.5505828857422,827.3623924255371)" class=""></path><text id="T-c8-e625c0" font-family="Noteworthy" font-size="24.355588801301028" font-weight="bold" font-style="normal" style="stroke: rgb(0, 0, 0); stroke-opacity: 1; stroke-width: 0; fill: rgb(0, 0, 0); fill-opacity: 1;" text-anchor="middle" transform="matrix(1,-1.9428904254429217e-16,1.9428904254429217e-16,1,1064.203857421875,723.9869384765625)" class="" svgjs:data="{&quot;leading&quot;:&quot;1.15&quot;}"><tspan id="SvgjsTspan3258" dy="28.008927121496182" x="0" svgjs:data="{&quot;newLined&quot;:true}">groups</tspan></text></g><g id="G-fb-7aee02" style="" transform="matrix(1,0,0,1,0.000152587890625,0.034423828125)" class=""><path id="P-5d-1a4d0f" d="M-98.18000244581927 -101.4555288252467L-56.8426329681039 -101.31905566297986Q-45.950564914203156 -101.42667497947114 -46.03864864596305 -90.31313610398018Q-46.10181055101707 -79.52517689111573 -56.637330832099664 -79.52519866729405L-98.22963850634646 -79.66167182956087L-119.01534217025583 -79.93048535050556Q-129.26760464019776 -79.88537470617241 -129.36725249750955 -90.65818796149483Q-129.45111809671346 -101.63820313465679 -118.78439114050133 -101.7243423461914L-98.18000244581927 -101.4555288252467 " style="stroke: rgb(0, 0, 0); stroke-opacity: 1; stroke-width: 2; fill: rgb(7, 0, 168); fill-opacity: 1;" transform="matrix(1,-1.9428904254429217e-16,1.9428904254429217e-16,1,1151.9115447998047,884.3824615478516)" class=""></path><text id="T-ad-fc42f6" font-family="Noteworthy" font-size="15.670049036732308" font-weight="bold" font-style="normal" style="stroke: rgb(0, 0, 0); stroke-opacity: 1; stroke-width: 0; fill: rgb(173, 174, 255); fill-opacity: 1;" text-anchor="middle" transform="matrix(1,-1.9428904254429217e-16,1.9428904254429217e-16,1,1064.2008056640625,780.5486450195312)" class="" svgjs:data="{&quot;leading&quot;:&quot;1.15&quot;}"><tspan id="SvgjsTspan3307" dy="18.020556392242153" x="0" svgjs:data="{&quot;newLined&quot;:true}">show perf.</tspan></text></g></g><g id="G-5c-9e3420" transform="matrix(1,0,0,1,-1553.844847839281,-342.8479309082031)" style="" class=""><path id="P-69-8b1046" d="M-96.89605387491974 -101.45718365823008L-74.69180883617021 -101.45718032867272Q-63.35133286107437 -101.56413713386637 -63.44304285029561 -90.51901390439124Q-63.50880502358174 -79.79746604861192 -74.47805476031678 -79.79748769073471L-96.94773336765894 -79.79749102029207L-118.5891491079514 -80.06464970825343Q-129.26347979110514 -80.019816767891 -129.3672299812641 -90.72631190559775Q-129.45454818458427 -101.63873341307404 -118.34869021700493 -101.7243423461914L-96.89605387491974 -101.45718365823008 " style="stroke: rgb(0, 0, 0); stroke-opacity: 1; stroke-width: 2; fill: rgb(41, 41, 41); fill-opacity: 1;" transform="matrix(1,-1.1102230246251565e-16,1.1102230246251565e-16,1,974.6723861694336,824.1054573059082)" class=""></path><text id="T-b1-e3b1d9" font-family="Noteworthy" font-size="16.83465046094338" font-weight="bold" font-style="normal" style="stroke: rgb(0, 0, 0); stroke-opacity: 1; stroke-width: 0; fill: rgb(151, 151, 151); fill-opacity: 1;" transform="matrix(1,-1.1102230246251565e-16,1.1102230246251565e-16,1,878.264404296875,720.2955932617188)" text-anchor="middle" class="" svgjs:data="{&quot;leading&quot;:&quot;1.15&quot;}"><tspan id="SvgjsTspan12673" dy="19.359848030084883" x="0" svgjs:data="{&quot;newLined&quot;:true}">load</tspan></text><path id="P-99-258e59" d="M-74.17639083549224 -101.27026019043139L-36.43645143010082 -101.27025453127575Q-17.161358970009786 -101.45204602398805 -17.31723589489691 -82.67895874411167Q-17.42901003676269 -64.45584348408568 -36.073139556344955 -64.45588026859699L-74.26422903584874 -64.45588592775258L-111.04754309404736 -64.90996808351264Q-129.19040687853118 -64.83376678770529 -129.3667481989887 -83.03129736349521Q-129.5151605271962 -101.57883523504746 -110.6388417867986 -101.7243423461914L-74.17639083549224 -101.27026019043139 " style="stroke: rgb(0, 0, 0); stroke-opacity: 1; stroke-width: 2; fill: rgb(255, 255, 255); fill-opacity: 1;" transform="matrix(1,-1.1102230246251565e-16,1.1102230246251565e-16,1,951.6092796325684,787.5785751342773)" class=""></path><text id="T-d7-dd71d5" font-family="Noteworthy" font-size="26.29507281906454" font-weight="bold" font-style="normal" style="stroke: rgb(0, 0, 0); stroke-opacity: 1; stroke-width: 0; fill: rgb(0, 0, 0); fill-opacity: 1;" transform="matrix(1,-1.1102230246251565e-16,1.1102230246251565e-16,1,878.267333984375,682.3875122070312)" text-anchor="middle" class="" svgjs:data="{&quot;leading&quot;:&quot;1.15&quot;}"><tspan id="SvgjsTspan12616" dy="30.23933374192422" x="0" svgjs:data="{&quot;newLined&quot;:true}">image</tspan></text></g><g id="G-e3-240b5a" transform="matrix(1,0,0,1,-1385.5693359375,-432.4531515258035)" style="" class=""><g id="G-5e-7f2445" transform="matrix(1,0,0,1,0.00006103515625,-0.532470703125)" style="" class=""><path id="P-3f-e89c90" d="M-74.1763983512553 -101.27026019043139L-36.436464085140216 -101.27025453127578Q-17.16137424985547 -101.45204602398802 -17.317251153515784 -82.67895874411167Q-17.42902528016063 -64.45584348408566 -36.07315226085875 -64.455880268597L-74.2642365396504 -64.45588592775258L-111.04754558884207 -64.90996808351261Q-129.19040690270208 -64.83376678770529 -129.36674819914617 -83.03129736349521Q-129.5151605071435 -101.57883523504746 -110.63884433724866 -101.7243423461914L-74.1763983512553 -101.27026019043139 " style="stroke: rgb(0, 0, 0); stroke-opacity: 1; stroke-width: 2; fill: rgb(255, 255, 255); fill-opacity: 1;" transform="matrix(1,0,0,1,1052.0925636291504,1223.9526596069336)" class=""></path><text id="T-32-331845" font-family="Noteworthy" font-size="25.40172104570038" font-weight="bold" font-style="normal" style="stroke: rgb(0, 0, 0); stroke-opacity: 1; stroke-width: 0; fill: rgb(0, 0, 0); fill-opacity: 1;" transform="matrix(1,0,0,1,978.7506713867188,1122.466552734375)" text-anchor="middle" class="" svgjs:data="{&quot;leading&quot;:&quot;1.15&quot;}"><tspan id="SvgjsTspan2589" dy="29.211979202555437" x="0" svgjs:data="{&quot;newLined&quot;:true}">defs</tspan></text></g><g id="G-ca-b85376" transform="matrix(1,0,0,1,0,0.1326904296875)" style="" class=""><path id="P-e6-a1b86b" d="M-103.2201943946404 -101.50921478759923L-85.34039460055422 -101.50921210649777Q-76.20856239232091 -101.59533828323457 -76.28241116509082 -92.70133445038667Q-76.33536565601483 -84.0678872952756 -85.1682707533007 -84.06790472243502L-103.26180891393724 -84.06790740353648L-120.6883946871415 -84.28303496212868Q-129.28381845487567 -84.24693356831554 -129.36736250806916 -92.86825963347135Q-129.43767482857456 -101.65540638563644 -120.49476699021562 -101.7243423461914L-103.2201943946404 -101.50921478759923 " style="stroke: rgb(0, 0, 0); stroke-opacity: 1; stroke-width: 2; fill: rgb(106, 106, 106); fill-opacity: 1;" transform="matrix(1,0,0,1,1081.6902160644531,1260.3319129943848)" class=""></path><text id="T-e8-6fb452" font-family="Noteworthy" font-size="13.202250455005185" font-weight="bold" font-style="normal" style="stroke: rgb(0, 0, 0); stroke-opacity: 1; stroke-width: 0; fill: rgb(0, 0, 0); fill-opacity: 1;" text-anchor="middle" transform="matrix(1,0,0,1,978.8652954101562,1157.2725830078125)" class="" svgjs:data="{&quot;leading&quot;:&quot;1.15&quot;}"><tspan id="SvgjsTspan14114" dy="15.182588023255962" x="0" svgjs:data="{&quot;newLined&quot;:true}">clone</tspan></text></g><g id="G-ca-b85376" transform="matrix(1,0,0,1,-0.0001220703125,0.08795166015625)" style="" class=""><path id="P-e6-a1b86b" d="M-103.2201943946404 -101.50921478868167L-85.34039460055422 -101.50921210758023Q-76.20856239232091 -101.59533828388366 -76.28241116509082 -92.70133449578685Q-76.33536565601483 -84.06788738411592 -85.1682707533007 -84.06790481127523L-103.26180891393724 -84.06790749237668L-120.6883946871415 -84.28303504988642Q-129.28381845487567 -84.24693365625494 -129.36736250806916 -92.86825967803165Q-129.43767482857456 -101.65540638598328 -120.49476699021562 -101.7243423461914L-103.2201943946404 -101.50921478868167 " style="stroke: rgb(0, 0, 0); stroke-opacity: 1; stroke-width: 2; fill: rgb(106, 106, 106); fill-opacity: 1;" transform="matrix(1,0,0,1,1081.6899108886719,1277.8917274475098)" class=""></path><text id="T-e8-6fb452" font-family="Noteworthy" font-size="11.756173256933712" font-weight="bold" font-style="normal" style="stroke: rgb(0, 0, 0); stroke-opacity: 1; stroke-width: 0; fill: rgb(0, 0, 0); fill-opacity: 1;" text-anchor="middle" transform="matrix(1,0,0,1,978.860107421875,1176.256103515625)" class="" svgjs:data="{&quot;leading&quot;:&quot;1.15&quot;}"><tspan id="SvgjsTspan14288" dy="13.519599245473767" x="0" svgjs:data="{&quot;newLined&quot;:true}">template</tspan></text></g></g><g id="G-b2-faf836" class="" style=""><g id="G-28-79b08d" class="" style=""><g id="G-97-9f7494" class="" style=""><path id="P-58-9c1adb" d="M-74.17640210913686 -101.27026023690999L-36.43647041265996 -101.27025457775494Q-17.161381889778298 -101.45204605185953 -17.317258782825263 -82.67896069354461Q-17.429032901859685 -64.45584729878644 -36.07315861311565 -64.455884083294L-74.26424029155115 -64.45588974244905L-111.04754683623942 -64.90997185173046Q-129.1904069147876 -64.8337705637229 -129.36674819922493 -83.03129927686373Q-129.5151604971171 -101.57883524994115 -110.63884561247367 -101.7243423461914L-74.17640210913686 -101.27026023690999 " style="stroke: rgb(0, 0, 0); stroke-opacity: 1; stroke-width: 2; fill: rgb(242, 255, 47); fill-opacity: 1;" transform="matrix(0.9999999999999999,0,0,0.9999999999999999,-116.96875,206.693115234375)" class=""></path><text id="T-33-aaa6bf" font-family="Noteworthy" font-size="21.40381967973595" font-weight="bold" font-style="normal" style="stroke: rgb(0, 0, 0); stroke-opacity: 1; stroke-width: 0; fill: rgb(0, 0, 0); fill-opacity: 1;" text-anchor="middle" transform="matrix(0.9999999999999999,0,0,0.9999999999999999,-190.32153320312506,105.59497070312497)" class="" svgjs:data="{&quot;leading&quot;:&quot;1.15&quot;}"><tspan id="SvgjsTspan2701" dy="24.61439263169634" x="0" svgjs:data="{&quot;newLined&quot;:true}">objects</tspan></text></g><g id="G-ca-186ee0" transform="matrix(1,0,0,1,-0.00000762939453125,-1.2576074316070844)" class="" style=""><path id="P-4b-b33ec5" d="M-87.28299743672906 -101.46001574166502L-58.50534639685735 -101.46001244740344Q-43.807604606140046 -101.56583542985472 -43.92646467375653 -90.63779883070207Q-44.011695262373664 -80.02990746242355 -58.22831197427175 -80.02992887512355L-87.34997626917172 -80.02993216938509L-115.39817647125332 -80.29425877391148Q-129.232565478757 -80.24990109650497 -129.36703016163656 -90.84289931686699Q-129.4801982869293 -101.63964093228373 -115.08653146638976 -101.7243423461914L-87.28299743672906 -101.46001574166502 " style="stroke: rgb(0, 0, 0); stroke-opacity: 1; stroke-width: 2; fill: rgb(184, 196, 0); fill-opacity: 1;" transform="matrix(0.9999999999999999,0,0,0.9999999999999999,-103.66392517089844,244.9782257080078)" class=""></path><text id="T-b5-cbae9e" font-family="Noteworthy" font-size="11.547680258850685" font-weight="bold" font-style="normal" style="stroke: rgb(0, 0, 0); stroke-opacity: 1; stroke-width: 0; fill: rgb(0, 0, 0); fill-opacity: 1;" text-anchor="middle" transform="matrix(0.9999999999999999,0,0,0.9999999999999999,-191.14651581783755,144.13700959225162)" class="" svgjs:data="{&quot;leading&quot;:&quot;1.15&quot;}"><tspan id="SvgjsTspan1454" dy="13.279832297678286" x="0" svgjs:data="{&quot;newLined&quot;:true}">open/close</tspan></text></g></g><g id="G-ff-49984f" style="" transform="matrix(0.9999999999999999,0,0,0.9999999999999999,-1429.3408241271973,-519.1037597656249)" class=""><path id="P-b9-2bf64e" d="M-74.17640210913686 -101.27026019043139L-36.43647041265996 -101.27025453127578Q-17.161381889778298 -101.45204602398805 -17.317258782825263 -82.67895874411171Q-17.429032901859685 -64.45584348408579 -36.07315861311565 -64.45588026859713L-74.26424029155115 -64.45588592775272L-111.04754683623942 -64.90996808351277Q-129.1904069147876 -64.83376678770543 -129.36674819922493 -83.03129736349527Q-129.5151604971171 -101.57883523504748 -110.63884561247367 -101.7243423461914L-74.17640210913686 -101.27026019043139 " style="stroke: rgb(0, 0, 0); stroke-opacity: 1; stroke-width: 2; fill: rgb(173, 174, 255); fill-opacity: 1;" transform="matrix(0.9999999999999999,0,0,0.9999999999999999,1242.4138565063477,666.5818099975586)" class=""></path><text id="T-68-6ee68d" font-family="Noteworthy" font-size="25.40171875864719" font-weight="bold" font-style="normal" style="stroke: rgb(0, 0, 0); stroke-opacity: 1; stroke-width: 0; fill: rgb(0, 0, 0); fill-opacity: 1;" text-anchor="middle" transform="matrix(0.9999999999999999,0,0,0.9999999999999999,1169.0640869140625,564.1552734375)" class="" svgjs:data="{&quot;leading&quot;:&quot;1.15&quot;}"><tspan id="SvgjsTspan55019" dy="29.211976572444264" x="0" svgjs:data="{&quot;newLined&quot;:true}">dots</tspan></text><g id="G-b5-93df2b" style="" transform="matrix(0.9999999999999999,0,0,0.9999999999999999,-0.00030517578125,0)" class=""><path id="P-00-fcfdcc" d="M-98.75404665945683 -101.45552868512102L-77.82029514139202 -101.455525334938Q-67.12870415304977 -101.5631447075285 -67.2151666345586 -90.44960003883234Q-67.27716599515188 -79.66163520247912 -77.61877175241489 -79.66165697866876L-98.80276912931315 -79.66166032885184L-119.20589559525719 -79.93047398992216Q-129.26945712382243 -79.88536332207397 -129.36727088407187 -90.65818219298997Q-129.44959287106659 -101.63820308975464 -118.97919540056026 -101.7243423461914L-98.75404665945683 -101.45552868512102 " style="stroke: rgb(0, 0, 0); stroke-opacity: 1; stroke-width: 2; fill: rgb(172, 101, 0); fill-opacity: 1;" transform="matrix(1,0,0,1,1268.2896003723145,725.5268020629883)" class=""></path><text id="T-4d-c8bae2" font-family="Noteworthy" font-size="16.817520217516186" font-weight="bold" font-style="normal" style="stroke: rgb(0, 0, 0); stroke-opacity: 1; stroke-width: 0; fill: rgb(255, 164, 34); fill-opacity: 1;" text-anchor="middle" transform="matrix(1,0,0,1,1169.998291015625,622.567626953125)" class="" svgjs:data="{&quot;leading&quot;:&quot;1.15&quot;}"><tspan id="SvgjsTspan8008" dy="19.340148250143613" x="0" svgjs:data="{&quot;newLined&quot;:true}">link</tspan></text></g><g id="G-10-a207e1" transform="matrix(1,0,0,1,0.0001220703125,0.176971435546875)" style="" class=""><path id="P-5d-1a4d0f" d="M-98.17999961116801 -101.45552875750336L-56.84262637632335 -101.31905556084412Q-45.95055733244892 -101.42667490445639 -46.03864107221473 -90.31313322825713Q-46.10180298300942 -79.52517129673328 -56.6373242216593 -79.52519307291706L-98.22963567620663 -79.66166626957633L-119.01534122931642 -79.93047985826433Q-129.2676046310804 -79.88536920256294 -129.36725249744916 -90.65818517272784Q-129.45111810427557 -101.63820311294899 -118.7843901785709 -101.7243423461914L-98.17999961116801 -101.45552875750336 " style="stroke: rgb(0, 0, 0); stroke-opacity: 1; stroke-width: 2; fill: rgb(7, 0, 168); fill-opacity: 1;" transform="matrix(1,-1.9428904254429217e-16,1.9428904254429217e-16,1,1257.7027969360352,704.3056144714355)" class=""></path><text id="T-ad-fc42f6" font-family="Noteworthy" font-size="15.670052705803696" font-weight="bold" font-style="normal" style="stroke: rgb(0, 0, 0); stroke-opacity: 1; stroke-width: 0; fill: rgb(173, 174, 255); fill-opacity: 1;" text-anchor="middle" transform="matrix(1,-1.9428904254429217e-16,1.9428904254429217e-16,1,1169.9970703125,599.84375)" class="" svgjs:data="{&quot;leading&quot;:&quot;1.15&quot;}"><tspan id="SvgjsTspan4623" dy="18.02056061167425" x="0" svgjs:data="{&quot;newLined&quot;:true}">oppctrl</tspan></text></g></g></g><g id="G-d3-09d8e9" transform="matrix(1,0,0,1,-1255.2052040100098,-18.711914856031342)" style="stroke-width: 4;" class=""><path id="P-65-81bc23" d="M-74.17640210913686 -101.27026019043139L-36.43647041265996 -101.27025453127578Q-17.161381889778298 -101.45204602398803 -17.317258782825263 -82.67895874411167Q-17.429032901859685 -64.45584348408568 -36.07315861311565 -64.45588026859699L-74.26424029155115 -64.45588592775259L-111.04754683623942 -64.90996808351264Q-129.1904069147876 -64.83376678770529 -129.36674819922493 -83.03129736349521Q-129.5151604971171 -101.57883523504746 -110.63884561247367 -101.7243423461914L-74.17640210913686 -101.27026019043139 " style="stroke: rgb(0, 0, 0); stroke-opacity: 1; stroke-width: 2; fill: rgb(0, 250, 70); fill-opacity: 1;" transform="matrix(1,0,0,1,1389.1838760375977,537.7252426147461)" class=""></path><text id="T-a3-6f5a7d" font-family="Noteworthy" font-size="26.295070338758865" font-weight="bold" font-style="normal" style="stroke: rgb(0, 0, 0); stroke-opacity: 1; stroke-width: 0; fill: rgb(0, 0, 0); fill-opacity: 1;" transform="matrix(1,0,0,1,1315.8447265625,432.5343933105469)" text-anchor="middle" class="" svgjs:data="{&quot;leading&quot;:&quot;1.15&quot;}"><tspan id="SvgjsTspan7875" dy="30.23933088957269" x="0" svgjs:data="{&quot;newLined&quot;:true}">gradient</tspan></text><path id="P-5d-1a4d0f" d="M-98.18000823374584 -101.45552880011478L-56.84264642751981 -101.3190556250888Q-45.9505803949955 -101.42667495164163 -46.038664110408604 -90.31313503712309Q-46.10182600374088 -79.52517481567021 -56.63734432961607 -79.52519659185057L-98.22964428506145 -79.66166976687653L-119.0153440915095 -79.93048331295313Q-129.26760465881168 -79.88537266440252 -129.36725249763057 -90.65818692689732Q-129.45111808127052 -101.63820312660346 -118.78439310461545 -101.7243423461914L-98.18000823374584 -101.45552880011478 " style="stroke: rgb(0, 0, 0); stroke-opacity: 1; stroke-width: 2; fill: rgb(0, 146, 41); fill-opacity: 1;" transform="matrix(1,-1.9428904254429222e-16,1.9428904254429222e-16,1,1403.5448532104492,574.8162078857422)" class=""></path><text id="T-ad-fc42f6" font-family="Noteworthy" font-size="16.820994066616656" font-weight="bold" font-style="normal" style="stroke: rgb(0, 0, 0); stroke-opacity: 1; stroke-width: 0; fill: rgb(0, 250, 70); fill-opacity: 1;" transform="matrix(1,-1.9428904254429222e-16,1.9428904254429222e-16,1,1315.8369140625,471.2950134277344)" text-anchor="middle" class="" svgjs:data="{&quot;leading&quot;:&quot;1.15&quot;}"><tspan id="SvgjsTspan8781" dy="19.34414317660915" x="0" svgjs:data="{&quot;newLined&quot;:true}">edit</tspan></text></g><g id="G-8e-0d2f6c" class="" style=""><g id="G-eb-286875" class="" style=""><path id="P-58-9c1adb" d="M-74.17640210913686 -101.27026014395278L-36.43647041265996 -101.2702544847966Q-17.161381889778298 -101.45204599611652 -17.317258782825263 -82.67895679467864Q-17.429032901859685 -64.45583966938474 -36.07315861311565 -64.45587645389983L-74.26424029155115 -64.45588211305599L-111.04754683623942 -64.90996431529464Q-129.1904069147876 -64.83376301168755 -129.36674819922493 -83.03129545012658Q-129.5151604971171 -101.57883522015375 -110.63884561247367 -101.7243423461914L-74.17640210913686 -101.27026014395278 " style="stroke: rgb(0, 0, 0); stroke-opacity: 1; stroke-width: 2; fill: rgb(242, 255, 47); fill-opacity: 1;" transform="matrix(1,0,0,1,69.910400390625,425.1924133300781)" class=""></path><text id="T-33-aaa6bf" font-family="Noteworthy" font-size="25.40171857257648" font-weight="bold" font-style="normal" style="stroke: rgb(0, 0, 0); stroke-opacity: 1; stroke-width: 0; fill: rgb(0, 0, 0); fill-opacity: 1;" text-anchor="middle" transform="matrix(1,0,0,1,-3.434814453125057,322.6734313964844)" class="" svgjs:data="{&quot;leading&quot;:&quot;1.15&quot;}"><tspan id="SvgjsTspan2015" dy="29.21197635846295" x="0" svgjs:data="{&quot;newLined&quot;:true}">lists</tspan></text></g><g id="G-1d-c54794" transform="matrix(1,0,0,1,0,-1.4503456294995658)" class="" style=""><path id="P-4b-b33ec5" d="M-89.92589380423556 -101.47661514144646L-62.95545545354824 -101.47661205406071Q-49.180719693786614 -101.57578947771579 -49.2921154474417 -91.33402072005006Q-49.37199362557048 -81.39229244941347 -62.69581856362238 -81.39231251742109L-89.98866642138529 -81.3923156048069L-116.27546284371584 -81.64004280955179Q-129.2410636611468 -81.59847074209912 -129.36708407312983 -91.52624113698644Q-129.47314533373233 -101.64496008142514 -115.98338888745977 -101.7243423461914L-89.92589380423556 -101.47661514144646 " style="stroke: rgb(0, 0, 0); stroke-opacity: 1; stroke-width: 2; fill: rgb(184, 196, 0); fill-opacity: 1;" transform="matrix(1,0,0,1,85.89807510375977,463.4774856567383)" class=""></path><text id="T-b5-cbae9e" font-family="Noteworthy" font-size="13.13243941377858" font-weight="bold" font-style="normal" style="stroke: rgb(0, 0, 0); stroke-opacity: 1; stroke-width: 0; fill: rgb(0, 0, 0); fill-opacity: 1;" text-anchor="middle" transform="matrix(1,0,0,1,-3.4364013463252863,361.08721923828125)" class="" svgjs:data="{&quot;leading&quot;:&quot;1.15&quot;}"><tspan id="SvgjsTspan2222" dy="15.102305325845364" x="0" svgjs:data="{&quot;newLined&quot;:true}">scroll active</tspan></text></g></g><g id="G-b8-69ca82" transform="matrix(1,0,0,1,-1.094757080078125,42.695088776407204)" class="" style=""><g id="G-23-4bf6a2" style="" transform="matrix(1,0,0,1,-1387.1568603515625,-89.28176879882812)" class=""><path id="P-db-0ac300" d="M-74.17639835125533 -101.27026022929847L-36.436464085140216 -101.2702545701434Q-17.16137424985547 -101.4520460472952 -17.317251153515784 -82.67896037429914Q-17.429025280160673 -64.45584667407871 -36.07315226085875 -64.45588345858687L-74.2642365396504 -64.45588911774199L-111.04754558884207 -64.90997123463492Q-129.1904069027021 -64.83376994535 -129.36674819914617 -83.0312989635243Q-129.51516050714346 -101.57883524750213 -110.63884433724866 -101.7243423461914L-74.17639835125533 -101.27026022929847 " style="stroke: rgb(0, 0, 0); stroke-opacity: 1; stroke-width: 2; fill: rgb(255, 255, 255); fill-opacity: 1;" transform="matrix(0.9999999403953553,-3.95211141590579e-10,3.95211141590579e-10,0.9999999403953553,1051.2963514328003,406.5899848937988)" class=""></path><text id="T-8a-479955" font-family="Noteworthy" font-size="25.40172325617655" font-weight="bold" font-style="normal" style="stroke: rgb(0, 0, 0); stroke-opacity: 1; stroke-width: 0; fill: rgb(0, 0, 0); fill-opacity: 1;" transform="matrix(0.9999999403953553,-3.95211141590579e-10,3.95211141590579e-10,0.9999999403953553,977.9547119140625,304.0708941221237)" text-anchor="middle" class="" svgjs:data="{&quot;leading&quot;:&quot;1.15&quot;}"><tspan id="SvgjsTspan85574" dy="29.21198174460303" x="0" svgjs:data="{&quot;newLined&quot;:true}">tools</tspan></text></g><g id="G-f7-22b6bc" transform="matrix(1,0,0,1,-1387.1604309082031,-88.52963256835938)" style="" class=""><path id="P-64-c0c534" d="M-83.28967732166436 -101.34523862769622L-51.78139352396501 -101.34523390298533Q-35.68902313259437 -101.49700782760175 -35.81916150759518 -85.82374891364334Q-35.912479394127246 -70.60965016519422 -51.47807206119275 -70.6096808758153L-83.36301159269706 -70.60968560052626L-114.07262895366333 -70.98878931902142Q-129.219725372765 -70.9251704469115 -129.366949042378 -86.11790907625576Q-129.49085538218452 -101.60286149475863 -113.73141280493141 -101.7243423461914L-83.28967732166436 -101.34523862769622 " style="stroke: rgb(0, 0, 0); stroke-opacity: 1; stroke-width: 2; fill: rgb(106, 106, 106); fill-opacity: 1;" transform="matrix(0.9999997615814208,1.1856327031267708e-9,-1.1856327031267708e-9,0.9999997615814208,1007.7154273986816,511.8695068359375)" class=""></path><text id="T-73-7af4f3" font-family="Noteworthy" font-size="20.398152152102234" font-weight="bold" font-style="normal" style="stroke: rgb(0, 0, 0); stroke-opacity: 1; stroke-width: 0; fill: rgb(0, 0, 0); fill-opacity: 1;" text-anchor="middle" transform="matrix(0.9999997615814208,1.1856327031267708e-9,-1.1856327031267708e-9,0.9999997615814208,925.122314453125,408.65033304691315)" class="" svgjs:data="{&quot;leading&quot;:&quot;1.15&quot;}"><tspan id="SvgjsTspan3194" dy="23.45787497491757" x="0" svgjs:data="{&quot;newLined&quot;:true}">mask</tspan></text></g><g id="G-5f-116702" transform="matrix(1,0,0,1,-1387.1535949707031,-88.52960205078125)" style="" class=""><path id="P-64-c0c534" d="M-83.28967732166436 -101.34523869678455L-51.78139352396501 -101.34523397207452Q-35.68902313259437 -101.49700786903149 -35.81916150759518 -85.82375181138707Q-35.912479394127246 -70.60965583557402 -51.47807206119275 -70.60968654618951L-83.36301159269706 -70.6096912708996L-114.07262895366333 -70.98879492030642Q-129.219725372765 -70.92517605979046 -129.366949042378 -86.11791192039135Q-129.49085538218452 -101.60286151689746 -113.73141280493141 -101.7243423461914L-83.28967732166436 -101.34523869678455 " style="stroke: rgb(0, 0, 0); stroke-opacity: 0.6; stroke-width: 2; fill: rgb(106, 106, 106); fill-opacity: 0.6;" transform="matrix(0.9999997615814208,1.1856327031267708e-9,-1.1856327031267708e-9,0.9999997615814208,1006.3327980041504,557.078800201416)" class=""></path><text id="T-73-7af4f3" font-family="Noteworthy" font-size="20.398149685051646" font-weight="bold" font-style="normal" style="stroke: rgb(0, 0, 0); stroke-opacity: 1; stroke-width: 0; fill: rgb(0, 0, 0); fill-opacity: 1;" text-anchor="middle" transform="matrix(0.9999997615814208,1.1856327031267708e-9,-1.1856327031267708e-9,0.9999997615814208,923.7396850585938,453.8595920801163)" class="" svgjs:data="{&quot;leading&quot;:&quot;1.15&quot;}"><tspan id="SvgjsTspan19600" dy="23.457872137809392" x="0" svgjs:data="{&quot;newLined&quot;:true}">select</tspan></text></g><g id="G-c4-118f3c" transform="matrix(1,0,0,1,-1387.1604309082031,-88.54837036132812)" style="" class=""><path id="P-0f-4a0e08" d="M-83.28967742446618 -101.3452386248225L-51.7813936970624 -101.34523390011154Q-35.68902334159412 -101.49700782587851 -35.81916171630478 -85.8237487931112Q-35.91247960262848 -70.60964992933383 -51.478072234967016 -70.60968063995514L-83.36301169533525 -70.60968536466609L-114.07262898778782 -70.98878908603497Q-129.21972537309603 -70.9251702134428 -129.36694904238058 -86.11790895795347Q-129.49085538191065 -101.60286149383775 -113.73141283981714 -101.7243423461914L-83.28967742446618 -101.3452386248225 " style="stroke: rgb(0, 0, 0); stroke-opacity: 0.6; stroke-width: 2; fill: rgb(106, 106, 106); fill-opacity: 0.6;" transform="matrix(0.9999999403953552,-3.9521114159057897e-10,3.9521114159057897e-10,0.9999999403953552,1006.9566478729248,601.1024894714355)" class=""></path><text id="T-db-868718" font-family="Noteworthy" font-size="17.189613668345352" font-weight="bold" font-style="normal" style="stroke: rgb(0, 0, 0); stroke-opacity: 1; stroke-width: 0; fill: rgb(0, 0, 0); fill-opacity: 1;" text-anchor="middle" transform="matrix(0.9999999403953552,-3.9521114159057897e-10,3.9521114159057897e-10,0.9999999403953552,924.3607788085938,500.66674888134)" class="" svgjs:data="{&quot;leading&quot;:&quot;1.15&quot;}"><tspan id="SvgjsTspan82476" dy="19.768055718597154" x="0" svgjs:data="{&quot;newLined&quot;:true}">replay</tspan></text></g><g id="G-f7-22b6bc" transform="matrix(1,0,0,1,-1387.1569519042969,-88.5517578125)" style="" class=""><path id="P-64-c0c534" d="M-83.28968483742759 -101.34523867129835L-51.781406179004165 -101.34523394658797Q-35.68903841243949 -101.49700785374836 -35.81917676621356 -85.82375074242916Q-35.9124946375247 -70.60965374380959 -51.47808476570624 -70.60968445442711L-83.36301909649885 -70.60968917913752L-114.07263144845867 -70.98879285403059Q-129.2197253969368 -70.92517398923766 -129.36694904253636 -86.11791087120913Q-129.49085536213266 -101.60286150873058 -113.7314153553821 -101.7243423461914L-83.28968483742759 -101.34523867129835 " style="stroke: rgb(0, 0, 0); stroke-opacity: 1; stroke-width: 2; fill: rgb(106, 106, 106); fill-opacity: 1;" transform="matrix(0.9999997615814208,1.1856327031267708e-9,-1.1856327031267708e-9,0.9999997615814208,1116.7193412780762,510.92639541625977)" class=""></path><text id="T-73-7af4f3" font-family="Noteworthy" font-size="16.955328997898896" font-weight="bold" font-style="normal" style="stroke: rgb(0, 0, 0); stroke-opacity: 1; stroke-width: 0; fill: rgb(0, 0, 0); fill-opacity: 1;" text-anchor="middle" transform="matrix(0.9999997615814208,1.1856327031267708e-9,-1.1856327031267708e-9,0.9999997615814208,1034.12890625,410.3251062631607)" class="" svgjs:data="{&quot;leading&quot;:&quot;1.15&quot;}"><tspan id="SvgjsTspan6531" dy="19.49862834758373" x="0" svgjs:data="{&quot;newLined&quot;:true}">shapesize</tspan></text></g><g id="G-c4-118f3c" transform="matrix(1,0,0,1,-1387.1569519042969,-88.52963256835938)" style="" class=""><path id="P-0f-4a0e08" d="M-83.28968182839347 -101.3452386480618L-51.78140111239338 -101.34523392335112Q-35.68903229495314 -101.49700783981426 -35.81917065722584 -85.82374976782774Q-35.9124885346307 -70.60965183668431 -51.47807967928793 -70.60968254730375L-83.36301609225364 -70.60968727201441L-114.07263044963501 -70.98879097014398Q-129.2197253872597 -70.9251721014517 -129.36694904247335 -86.11790991463779Q-129.4908553701611 -101.60286150128461 -113.73141433427604 -101.7243423461914L-83.28968182839347 -101.3452386480618 " style="stroke: rgb(0, 0, 0); stroke-opacity: 0.6; stroke-width: 2; fill: rgb(106, 106, 106); fill-opacity: 0.6;" transform="matrix(0.9999999403953552,-3.9521114159057897e-10,3.9521114159057897e-10,0.9999999403953552,1115.2192287445068,556.8088798522949)" class=""></path><text id="T-db-868718" font-family="Noteworthy" font-size="20.599003083471587" font-weight="bold" font-style="normal" style="stroke: rgb(0, 0, 0); stroke-opacity: 1; stroke-width: 0; fill: rgb(0, 0, 0); fill-opacity: 1;" text-anchor="middle" transform="matrix(0.9999999403953552,-3.9521114159057897e-10,3.9521114159057897e-10,0.9999999403953552,1032.62646484375,453.63418662548065)" class="" svgjs:data="{&quot;leading&quot;:&quot;1.15&quot;}"><tspan id="SvgjsTspan8318" dy="23.688853545992323" x="0" svgjs:data="{&quot;newLined&quot;:true}">filter</tspan></text></g><g id="G-f7-22b6bc" transform="matrix(1,0,0,1,-1388.7467041015625,-88.55172729492188)" style="" class=""><path id="P-64-c0c534" d="M-83.28968483742759 -101.34523874101899L-51.781406179004165 -101.34523401630949Q-35.68903841243949 -101.49700789555726 -35.81917676621356 -85.82375366669383Q-35.9124946375247 -70.6096594660863 -51.47808476570624 -70.6096901766982L-83.36301909649885 -70.60969490140772L-114.07263144845867 -70.98879850658014Q-129.2197253969368 -70.92517965348732 -129.36694904253636 -86.11791374137506Q-129.49085536213266 -101.60286153107204 -113.7314153553821 -101.7243423461914L-83.28968483742759 -101.34523874101899 " style="stroke: rgb(0, 0, 0); stroke-opacity: 1; stroke-width: 2; fill: rgb(106, 106, 106); fill-opacity: 1;" transform="matrix(0.9999997615814208,1.1856327031267708e-9,-1.1856327031267708e-9,0.9999997615814208,1059.9916191101074,459.99072647094727)" class=""></path><text id="T-73-7af4f3" font-family="Noteworthy" font-size="16.955325165552193" font-weight="bold" font-style="normal" style="stroke: rgb(0, 0, 0); stroke-opacity: 1; stroke-width: 0; fill: rgb(0, 0, 0); fill-opacity: 1;" text-anchor="middle" transform="matrix(0.9999997615814208,1.1856327031267708e-9,-1.1856327031267708e-9,0.9999997615814208,977.390625,359.3894373178482)" class="" svgjs:data="{&quot;leading&quot;:&quot;1.15&quot;}"><tspan id="SvgjsTspan36816" dy="19.49862394038502" x="0" svgjs:data="{&quot;newLined&quot;:true}">pattern</tspan></text></g><g id="G-c4-118f3c" transform="matrix(1,0,0,1,-1387.1569519042969,-88.52627563476562)" style="" class=""><path id="P-0f-4a0e08" d="M-83.28968182839347 -101.345238647435L-51.78140111239338 -101.34523392272429Q-35.68903229495314 -101.49700783943837 -35.81917065722584 -85.82374974153689Q-35.9124885346307 -70.60965178523769 -51.47807967928793 -70.60968249585716L-83.36301609225364 -70.60968722056785L-114.07263044963501 -70.98879091932429Q-129.2197253872597 -70.92517205052677 -129.36694904247335 -86.11790988883328Q-129.4908553701611 -101.60286150108377 -113.73141433427604 -101.7243423461914L-83.28968182839347 -101.345238647435 " style="stroke: rgb(0, 0, 0); stroke-opacity: 0.6; stroke-width: 2; fill: rgb(106, 106, 106); fill-opacity: 0.6;" transform="matrix(0.9999999403953552,-3.9521114159057897e-10,3.9521114159057897e-10,0.9999999403953552,1113.8985500335693,602.1295280456543)" class=""></path><text id="T-db-868718" font-family="Noteworthy" font-size="20.764743085358372" font-weight="bold" font-style="normal" style="stroke: rgb(0, 0, 0); stroke-opacity: 1; stroke-width: 0; fill: rgb(0, 0, 0); fill-opacity: 1;" text-anchor="middle" transform="matrix(0.9999999403953552,-3.9521114159057897e-10,3.9521114159057897e-10,0.9999999403953552,1031.295166015625,498.7673958539963)" class="" svgjs:data="{&quot;leading&quot;:&quot;1.15&quot;}"><tspan id="SvgjsTspan14207" dy="23.879454548162126" x="0" svgjs:data="{&quot;newLined&quot;:true}">grid</tspan></text></g></g><g id="G-1c-6e68fd" transform="matrix(1,0,0,1,244.12965995266833,-148.8858846748447)" class="" style=""><g id="G-96-d6ad3a" transform="matrix(1,0,0,1,-1385.5651245117188,-432.8564718383035)" class="" style=""><path id="P-6b-650fb9" d="M-94.5139717684263 -101.45552879919391L-48.31753697622685 -101.31905562370041Q-36.14514386167518 -101.42667495062192 -36.24358153252628 -90.31313499803179Q-36.314167901834395 -79.52517473962264 -48.08810228170108 -79.52519651580309L-94.5694423767996 -79.66166969129655L-117.79843386928968 -79.93048323829404Q-129.25581445855292 -79.88537258958891 -129.36717557805937 -90.65818688898808Q-129.46089928941035 -101.63820312630838 -117.54033534195116 -101.7243423461914L-94.5139717684263 -101.45552879919391 " style="stroke: rgb(0, 0, 0); stroke-opacity: 1; stroke-width: 2; fill: rgb(7, 0, 168); fill-opacity: 1;" transform="matrix(1,0,0,1,1059.820484161377,1020.7158966064453)" class=""></path><text id="T-e2-f99308" font-family="Noteworthy" font-size="13.892742873388368" font-weight="bold" font-style="normal" style="stroke: rgb(0, 0, 0); stroke-opacity: 1; stroke-width: 0; fill: rgb(173, 174, 255); fill-opacity: 1;" text-anchor="middle" transform="matrix(1,0,0,1,977.01220703125,918.224853515625)" class="" svgjs:data="{&quot;leading&quot;:&quot;1.15&quot;}"><tspan id="SvgjsTspan7205" dy="15.976654304396622" x="0" svgjs:data="{&quot;newLined&quot;:true}">update perf.</tspan></text></g><g id="G-ce-41fca8" transform="matrix(1,0,0,1,-1385.5671997070312,-432.1540792601785)" class="" style=""><g id="G-22-3bd8af" transform="matrix(1,0,0,1,0,0.287689208984375)" class="" style=""><path id="P-10-0c8b2d" d="M-74.17640210913686 -101.27026018281987L-36.43647041265996 -101.2702545236642Q-17.161381889778298 -101.45204601942368 -17.317258782825263 -82.6789584248661Q-17.429032901859685 -64.45584285937773 -36.07315861311565 -64.45587964388963L-74.26424029155115 -64.45588530304533L-111.04754683623942 -64.90996746641687Q-129.1904069147876 -64.83376616933221 -129.36674819922493 -83.03129705015564Q-129.5151604971171 -101.57883523260843 -110.63884561247367 -101.7243423461914L-74.17640210913686 -101.27026018281987 " style="stroke: rgb(0, 0, 0); stroke-opacity: 1; stroke-width: 2; fill: rgb(173, 174, 255); fill-opacity: 1;" transform="matrix(1,0,0,1,1049.269874572754,1042.355857849121)" class=""></path><text id="T-6e-1877b1" font-family="Noteworthy" font-size="26.186921002009335" font-weight="bold" font-style="normal" style="stroke: rgb(0, 0, 0); stroke-opacity: 1; stroke-width: 0; fill: rgb(0, 0, 0); fill-opacity: 1;" text-anchor="middle" transform="matrix(1,0,0,1,975.9171752929688,937.2899169921875)" class="" svgjs:data="{&quot;leading&quot;:&quot;1.15&quot;}"><tspan id="SvgjsTspan10401" dy="30.114959152310732" x="0" svgjs:data="{&quot;newLined&quot;:true}">layerlist</tspan></text></g><g id="G-96-d6ad3a" transform="matrix(1,0,0,1,0,0.0341796875)" class="" style=""><path id="P-6b-650fb9" d="M-107.43341153882096 -101.45552882274573L-78.36077310127095 -101.31905565920918Q-70.70036412099097 -101.42667497670175 -70.76231355120484 -90.31313599781302Q-70.8067354206141 -79.52517668457999 -78.2163837788269 -79.52519846075853L-107.46832066002052 -79.66167162429505L-122.0869394769887 -79.93048514774068Q-129.29737216105593 -79.8853745029879 -129.3674546593694 -90.65818785853797Q-129.42643747017252 -101.63820313385538 -121.92451124631829 -101.7243423461914L-107.43341153882096 -101.45552882274573 " style="stroke: rgb(0, 0, 0); stroke-opacity: 1; stroke-width: 2; fill: rgb(7, 0, 168); fill-opacity: 1;" transform="matrix(1,0,0,1,1075.992603302002,1079.449966430664)" class=""></path><text id="T-e2-f99308" font-family="Noteworthy" font-size="15.654415566538631" font-weight="bold" font-style="normal" style="stroke: rgb(0, 0, 0); stroke-opacity: 1; stroke-width: 0; fill: rgb(173, 174, 255); fill-opacity: 1;" text-anchor="middle" transform="matrix(1,0,0,1,975.919921875,975.6323852539062)" class="" svgjs:data="{&quot;leading&quot;:&quot;1.15&quot;}"><tspan id="SvgjsTspan13659" dy="18.002577901519423" x="0" svgjs:data="{&quot;newLined&quot;:true}">opacity</tspan></text></g><g id="G-e2-bd1e5b" transform="matrix(1,0,0,1,0.00006103515625,0.0452880859375)" class="" style=""><path id="P-e9-b49610" d="M-98.75404665945683 -101.45552872187174L-77.82029514139202 -101.4555253716892Q-67.12870415304977 -101.56314472956655 -67.2151666345586 -90.44960158025293Q-67.27716599515188 -79.66163821877075 -77.61877175241489 -79.66165999495743L-98.80276912931315 -79.66166334514001L-119.20589559525719 -79.93047696945965Q-129.26945712382243 -79.88536630777874 -129.36727088407187 -90.65818370589434Q-129.44959287106659 -101.63820310153113 -118.97919540056026 -101.7243423461914L-98.75404665945683 -101.45552872187174 " style="stroke: rgb(0, 0, 0); stroke-opacity: 1; stroke-width: 2; fill: rgb(7, 0, 168); fill-opacity: 1;" transform="matrix(1,0,0,1,1074.2190437316895,1123.386360168457)" class=""></path><text id="T-1e-c91c96" font-family="Noteworthy" font-size="15.65441144801053" font-weight="bold" font-style="normal" style="stroke: rgb(0, 0, 0); stroke-opacity: 1; stroke-width: 0; fill: rgb(173, 174, 255); fill-opacity: 1;" text-anchor="middle" transform="matrix(1,0,0,1,975.9247436523438,1019.409912109375)" class="" svgjs:data="{&quot;leading&quot;:&quot;1.15&quot;}"><tspan id="SvgjsTspan13716" dy="18.00257316521211" x="0" svgjs:data="{&quot;newLined&quot;:true}">swap</tspan></text></g><g id="G-11-b44982" transform="matrix(1,0,0,1,0.00006103515625,0)" class="" style=""><path id="P-f7-5a9212" d="M-98.75404665945683 -101.45552869917023L-77.82029514139202 -101.4555253489874Q-67.12870415304977 -101.5631447159533 -67.2151666345586 -90.44960062809285Q-67.27716599515188 -79.66163635555932 -77.61877175241489 -79.6616581317478L-98.80276912931315 -79.66166148193071L-119.20589559525719 -79.93047512895184Q-129.26945712382243 -79.88536446346131 -129.36727088407187 -90.6581827713492Q-129.44959287106659 -101.63820309425661 -118.97919540056026 -101.7243423461914L-98.75404665945683 -101.45552869917023 " style="stroke: rgb(0, 0, 0); stroke-opacity: 1; stroke-width: 2; fill: rgb(7, 0, 168); fill-opacity: 1;" transform="matrix(1,0,0,1,1074.2190437316895,1102.0014114379883)" class=""></path><text id="T-45-89feaa" font-family="Noteworthy" font-size="16.817516189649265" font-weight="bold" font-style="normal" style="stroke: rgb(0, 0, 0); stroke-opacity: 1; stroke-width: 0; fill: rgb(173, 174, 255); fill-opacity: 1;" text-anchor="middle" transform="matrix(1,0,0,1,975.9169311523438,997.3269653320312)" class="" svgjs:data="{&quot;leading&quot;:&quot;1.15&quot;}"><tspan id="SvgjsTspan13599" dy="19.340143618096654" x="0" svgjs:data="{&quot;newLined&quot;:true}">list size</tspan></text></g></g></g></svg></svg>