<svg width="100%" height="100%"
version="1.1"
xmlns="http://www.w3.org/2000/svg" 
xmlns:xlink="http://www.w3.org/1999/xlink"
xmlns:svgjs="http://svgjs.com/svgjs"
style="stroke-linecap: round; stroke-linejoin: round;"
viewBox="148.37373901367187 -235.46750061035158 776.4289440917969 1128.1527288818359">
<path id="P-c0-0b6067" d="M295.06121826171875 529.6453247070312L295.06121826171875 529.6453247070312C241.7918243408203 547.9061279296875 203.8175048828125 588.4127197265625 201.95748901367188 668.9796752929688S268.7213134765625 809.921630859375 360.9957580566406 809.921630859375S500.32904052734375 735.1076049804688 500.32904052734375 663.2532958984375S465.2783203125 548.071533203125 411.51739501953125 527.8289184570312Q428.915771484375 425.6920166015625 522.2665660140817 380.63958627520213Q635.95361328125 418.0843200683594 657.8421630859375 523.3165283203125C606.7849731445312 546.3712768554688 551.22265625 590.9326171875 553.60498046875 666.4924926757812S622.7964477539062 814.881591796875 713.4064331054688 814.881591796875S868.1337890625 745.49267578125 871.13916015625 664.9378662109375S818.5465087890625 544.3474731445312 768.4271850585938 523.3165283203125Q725.1321830749512 389.08311796188354 601.9857788085938 323.32586669921875S712.0912985801697 230.83884418010712 765.7543845176697 123.56002032756805S793.856062412262 -147.20222234725952 792.7444071769714 -148.3540072441101L518.9914967336961 274.19983466266507L283.24359703063965 -157.66386032104492S247.3746337890625 15.241485595703125 291.18768310546875 122.52030944824219S429.04400634765625 321.18017578125 429.04400634765625 321.18017578125Q333.74737548828125 398.1956481933594 295.06121826171875 529.6453247070312 " style="stroke: rgb(119, 119, 119); stroke-opacity: 1; stroke-width: 38; fill: rgb(0, 0, 0); fill-opacity: 1;"></path>
<circle id="C-34-51ea1c" r="60.110107421875" cx="0" cy="0" style="stroke: rgb(119, 119, 119); stroke-opacity: 1; stroke-width: 38px; fill: rgb(0, 0, 0); fill-opacity: 0;" transform="matrix(1,0,0,1,351.58282470703125,663.8572998046875)"></circle>
<circle id="C-9e-90abd9" r="60.110107421875" cx="0" cy="0" style="stroke: rgb(119, 119, 119); stroke-opacity: 1; stroke-width: 38px; fill: rgb(0, 0, 0); fill-opacity: 0;" transform="matrix(1,0,0,1,713.5675048828125,663.8572998046875)"></circle>
<defs id="SvgjsDefs49332"></defs></svg>