<svg width="100%" height="100%"
version="1.1"
xmlns="http://www.w3.org/2000/svg" 
style="stroke-linecap: round; stroke-linejoin: round;"
viewBox="28.032125854492186 21.729890632629395 55.40242309570313 55.030565643310545">
<rect id="R-30-944ba0" width="46.16868209838867" height="45.85880661010742" style="stroke: rgb(255, 255, 255); stroke-opacity: 1; stroke-width: 0; fill: rgb(0, 0, 0); fill-opacity: 0;" transform="matrix(1,0,0,1,32.648996353149414,26.315771102905273)"></rect>
<rect id="R-1d-86fa6a" width="12.614086151123047" height="7.1588592529296875" style="stroke: rgb(255, 255, 255); stroke-opacity: 1; stroke-width: 3; fill: none; fill-opacity: 0;" transform="matrix(1,0,0,1,55.85366821289065,31.371295928955085)"></rect>
<g id="G-4e-b2782e" transform="matrix(1,0,0,1,-21.830398559570305,-16.564573287963867)"><line id="L-89-252a30" x1="55.90764449340397" y1="43.35511872998723" x2="56.02551534933503" y2="56.435947229272976" style="stroke: rgb(115, 115, 115); stroke-opacity: 1; stroke-width: 3; fill: none; fill-opacity: 0;" transform="matrix(1,0,0,1,21.803956985473633,16.22231101989746)"></line><g id="G-98-a27218" transform="matrix(1,0,0,1,-31.393367767333984,-25.46114730834961)"><line id="L-3a-f06251" x1="51.88383102416992" y1="49.80906699097378" x2="58.725345259027776" y2="42.79862976074219" style="stroke: rgb(115, 115, 115); stroke-opacity: 1; stroke-width: 3; fill: none; fill-opacity: 0;" transform="matrix(1,0,0,1,50.49031066894531,41.64881896972656)"></line><line id="L-9b-f24d1d" x1="62.70866232782482" y1="51.4357187548898" x2="56.03606414794922" y2="44.4252815246582" style="stroke: rgb(115, 115, 115); stroke-opacity: 1; stroke-width: 3; fill: none; fill-opacity: 0;" transform="matrix(1,0,0,1,53.17958450317383,40.02212905883789)"></line></g></g>
<rect id="R-2d-10e58f" width="12.987569808959961" height="7.073242664337158" style="stroke: rgb(255, 255, 255); stroke-opacity: 1; stroke-width: 3; fill: none; fill-opacity: 0;" transform="matrix(1,0,0,1,43.03073120117189,59.96603775024414)"></rect></svg>