<svg width="100%" height="100%"
version="1.1"
xmlns="http://www.w3.org/2000/svg" 
xmlns:xlink="http://www.w3.org/1999/xlink"
xmlns:svgjs="http://svgjs.com/svgjs"
style="stroke-linecap: round; stroke-linejoin: round;"
viewBox="-430.66888427734375 -239.60195922851562 127.8934326171875 185.698486328125">
<path id="P-51-cee7d1" d="M-430.66888427734375 -145.0763702392578Q-366.4947814941406 -238.32608032226562 -302.9437561035156 -145.0763702392578Q-366.4947814941406 -53.903472900390625 -430.66888427734375 -145.0763702392578 " style="stroke: rgb(117, 117, 117); stroke-opacity: 1; stroke-width: 13; fill: rgb(0, 0, 0); fill-opacity: 0;" transform="matrix(1,0,0,1,-1.1368683772161603e-13,0)"></path>
<path id="P-a0-6d1cf7" d="M-430.66888427734375 -145.0763702392578Q-366.4947814941406 -238.32608032226562 -302.9437561035156 -145.0763702392578Q-366.4947814941406 -53.903472900390625 -430.66888427734375 -145.0763702392578 " style="stroke: rgb(117, 117, 117); stroke-opacity: 1; stroke-width: 13; fill: rgb(0, 0, 0); fill-opacity: 0;" transform="matrix(1,0,0,1,-1.1368683772161603e-13,0)"></path>
<path id="P-4c-e75a59" d="M-430.66888427734375 -145.0763702392578Q-366.4947814941406 -238.32608032226562 -302.9437561035156 -145.0763702392578Q-366.4947814941406 -53.903472900390625 -430.66888427734375 -145.0763702392578 " style="stroke: rgb(117, 117, 117); stroke-opacity: 1; stroke-width: 13; fill: rgb(0, 0, 0); fill-opacity: 0;" transform="matrix(1,0,0,1,-1.1368683772161603e-13,0)"></path>
<path id="P-d4-154405" d="M-430.66888427734375 -145.0763702392578Q-366.4947814941406 -238.32608032226562 -302.9437561035156 -145.0763702392578Q-366.4947814941406 -53.903472900390625 -430.66888427734375 -145.0763702392578 " style="stroke: rgb(117, 117, 117); stroke-opacity: 1; stroke-width: 13; fill: rgb(0, 0, 0); fill-opacity: 0;" transform="matrix(1,0,0,1,-1.1368683772161603e-13,0)"></path>
<path id="P-00-274967" d="M-430.66888427734375 -145.0763702392578Q-366.4947814941406 -238.32608032226562 -302.9437561035156 -145.0763702392578Q-366.4947814941406 -53.903472900390625 -430.66888427734375 -145.0763702392578 " style="stroke: rgb(117, 117, 117); stroke-opacity: 1; stroke-width: 13; fill: rgb(0, 0, 0); fill-opacity: 0;" transform="matrix(1,0,0,1,0.168304443359375,-1.2758808135986328)"></path>
<circle id="C-10-efc13b" r="23.129690170288086" cx="0" cy="0" style="stroke: rgb(117, 117, 117); stroke-opacity: 1; stroke-width: 0; fill: rgb(116, 116, 116); fill-opacity: 1;" transform="matrix(1,0,0,1,-366.6380310058594,-146.8714599609375)"></circle></svg>