<svg width="100%" height="100%"
version="1.1"
xmlns="http://www.w3.org/2000/svg" 
xmlns:xlink="http://www.w3.org/1999/xlink"
xmlns:svgjs="http://svgjs.com/svgjs"
style="stroke-linecap: round; stroke-linejoin: round;"
viewBox="159.72637939453125 201.916015625 136.8035888671875 141.3260498046875">
<rect id="R-4b-f7cab9" width="122.12110136566801" height="125.43061630782705" style="stroke: rgb(255, 255, 255); stroke-opacity: 1; fill: rgb(0, 0, 0); fill-opacity: 1;" transform="matrix(1,0,0,1,167.03808212280273,209.3386342945089)"></rect>
<circle id="C-70-5c69ff" r="33.21013641357422" cx="0" cy="0" style="stroke: rgb(255, 255, 255); stroke-opacity: 1; stroke-width: 10; fill: rgb(0, 0, 0); fill-opacity: 1;" transform="matrix(1,0,0,1,204.8217010498047,296.6262512207031)"></circle>
<line id="L-03-b48b3e" x1="200.2563018798828" y1="373.6906791329384" x2="200.2563018798828" y2="232.36463809013367" style="stroke: rgb(127, 127, 127); stroke-opacity: 1; fill: none; fill-opacity: 0; stroke-width: 8;" transform="matrix(1,0,0,1,4.3023187694559795,-30.44861602783203)"></line>
<line id="L-e0-4075dc" x1="132.2563018798828" y1="300.6906791329384" x2="269.0598974227905" y2="300.69066566228867" style="stroke: rgb(127, 127, 127); stroke-opacity: 1; fill: none; fill-opacity: 0; stroke-width: 8;" transform="matrix(1,0,0,1,27.470069885253906,-3.309619707106549)"></line>
<circle id="C-b7-48240e" r="23.61252784729004" cx="0" cy="0" style="stroke: rgb(255, 255, 255); stroke-opacity: 1; stroke-width: 10; fill: rgb(0, 0, 0); fill-opacity: 1;" transform="matrix(1,0,0,1,261.0833435058594,237.0550537109375)"></circle>
<line id="L-1a-1dcff1" x1="132.2563018798828" y1="300.6906791329384" x2="269.0598974227905" y2="300.69066566228867" style="stroke: rgb(127, 127, 127); stroke-opacity: 1; fill: none; fill-opacity: 0; stroke-width: 8;" transform="matrix(1,0,0,1,27.470069885253906,-63.873699384690354)"></line>
<line id="L-19-a3e7a2" x1="200.2563018798828" y1="373.6906791329384" x2="200.2563018798828" y2="232.36463809013367" style="stroke: rgb(127, 127, 127); stroke-opacity: 1; fill: none; fill-opacity: 0; stroke-width: 8;" transform="matrix(1,0,0,1,60.56412104987999,-30.44861602783203)"></line>
<defs id="SvgjsDefs8472"></defs></svg>