<svg width="100%" height="100%" version="1.1" 
  xmlns="http://www.w3.org/2000/svg" 
  xmlns:xlink="http://www.w3.org/1999/xlink" 
  xmlns:svgjs="http://svgjs.com/svgjs" 
style="stroke-linecap: round; stroke-linejoin: round; stroke-miterlimit: 20; "
viewBox="22.643214111328124 -1.1346294903755187 154.816416015625 155.3744770336151">
  <g id="G-62-ceb98d" transform="matrix(1,0,0,1,57.10833740234375,-835.4339599609375)">
    <rect id="R-07-4ad7d9" width="148.8619384765625" height="109" style="stroke: rgb(255, 255, 255); stroke-opacity: 1; stroke-width: 10; fill: rgb(0, 0, 0); fill-opacity: 1;" x="128" y="34" transform="matrix(1,0,0,1,-159.48788833618164,823.486083984375)"></rect>
    <rect id="R-8c-574f30" width="148.8619384765625" height="109" style="stroke: rgb(255, 255, 255); stroke-opacity: 1; stroke-width: 10; fill: rgb(0, 0, 0); fill-opacity: 1;" x="128" y="34" transform="matrix(1,0,0,1,-159.48788833618164,823.486083984375)"></rect>
    <rect id="R-cd-374547" width="148.8619384765625" height="109" style="stroke: rgb(255, 255, 255); stroke-opacity: 1; stroke-width: 10; fill: rgb(0, 0, 0); fill-opacity: 1;" x="128" y="34" transform="matrix(1,0,0,1,-159.48788833618164,823.486083984375)"></rect>
  </g>
  <circle id="C-a0-8c19ff" r="4.423068523406982" cx="0" cy="0" style="stroke: rgb(255, 255, 255); stroke-opacity: 0; stroke-width: 1; fill: rgb(255, 0, 0); fill-opacity: 0;" transform="matrix(1,0,0,1,100.050048828125,76.55328478514541)"></circle>
  <circle id="C-b3-8362c8" r="20.201075932398837" cx="0" cy="0" style="stroke: rgb(255, 255, 255); stroke-opacity: 1; stroke-width: 8; fill: rgb(0, 0, 0); fill-opacity: 1;" transform="matrix(1,0,0,1,100.05266571044922,22.05441775023329)"></circle>
  <circle id="C-dc-a45788" r="20.201075932398837" cx="0" cy="0" style="stroke: rgb(255, 255, 255); stroke-opacity: 1; stroke-width: 8; fill: rgb(0, 0, 0); fill-opacity: 1;" transform="matrix(1,0,0,1,100.05065155029297,131.05080523192274)"></circle>
  <rect id="R-64-3ed022" width="116.77547454833984" height="32.4598503112793" style="stroke: rgb(255, 255, 255); stroke-opacity: 1; stroke-width: 8; fill: rgb(0, 0, 0); fill-opacity: 1;" transform="matrix(1,0,0,1,41.66901779174805,58.9694766998291)"></rect>
  <defs id="SvgjsDefs1209"></defs>
</svg>