<svg width="100%" height="100%" version="1.1" 
  xmlns="http://www.w3.org/2000/svg" 
  xmlns:xlink="http://www.w3.org/1999/xlink" 
  xmlns:svgjs="http://svgjs.com/svgjs" 
style="stroke-linecap: round; stroke-linejoin: round; stroke-miterlimit: 20; background: rgba(79, 79, 79, 1);"
viewBox="-187.71437255859377 -302.4397716062615 2315.0798681640626 1394.626426604857">
  <svg id="S-42-cbeaf3" style="overflow: visible; pointer-events: none; display: none;" data-hidden="true" data-disabled="true">
    <g id="G-1f-831e14" transform="matrix(1,0,0,1,880.6574478149414,1.24462066650392)">
      <polygon id="P-2a-6303cd" points="41.144317626953125,229.27402114868164 260.42156982421875,-51.622314453125 490.4289245605469,229.27496337890625" style="stroke: rgb(255, 255, 255); stroke-opacity: 1; stroke-width: 0; fill: rgb(255, 255, 0); fill-opacity: 1;" transform="matrix(1.0000000000000002,0,0,1.0000000000000002,269.5677185058596,47.36569976806652)"></polygon>
      <polygon id="P-79-57d257" points="-40.22930908203125,389.87823486328125 -259.5065612792969,670.7745361328125 93.22401428222656,490.9942127834531" style="stroke: rgb(212, 212, 116); stroke-opacity: 1; stroke-width: 0; fill: rgb(240, 240, 0); fill-opacity: 1;" transform="matrix(-1.0000000000000002,-1.6298552384530086e-16,1.6298552384530086e-16,-1.0000000000000002,270.4827270507815,666.517761230469)"></polygon>
      <polygon id="P-ab-9b8dd7" points="-611.5198669433594,484.069580078125 -259.5065612792969,670.7745361328125 -489.5139465332031,389.8772277832031" style="stroke: rgb(212, 212, 116); stroke-opacity: 1; stroke-width: 0; fill: rgb(217, 217, 0); fill-opacity: 1;" transform="matrix(-1.0000000000000002,-1.6298552384530086e-16,1.6298552384530086e-16,-1.0000000000000002,270.4827270507815,666.517761230469)"></polygon>
      <polygon id="P-f9-66b40e" points="-40.22930908203125,389.87823486328125 -259.5065612792969,670.7745361328125 93.22401428222656,490.9942127834531" style="stroke: rgb(255, 255, 255); stroke-opacity: 1; stroke-width: 0px; fill: rgb(98, 74, 255); fill-opacity: 1;" transform="matrix(-1.0000000000000002,-1.6298552384530086e-16,1.6298552384530086e-16,-1.0000000000000002,270.4827270507815,666.517761230469)"></polygon>
      <polygon id="P-ee-72aa66" points="-611.5198669433594,484.069580078125 -259.5065612792969,670.7745361328125 -489.5139465332031,389.8772277832031" style="stroke: rgb(255, 255, 255); stroke-opacity: 1; stroke-width: 0px; fill: rgb(58, 27, 255); fill-opacity: 1;" transform="matrix(-1.0000000000000002,-1.6298552384530086e-16,1.6298552384530086e-16,-1.0000000000000002,270.4827270507815,666.517761230469)"></polygon>
      <polygon id="P-0d-5baef1" points="-183.14756804554213,389.87823486328125 -259.5065612792969,487.6948432181011 -136.67507117830655,425.0898840232373" style="stroke: rgb(255, 255, 255); stroke-opacity: 1; stroke-width: 0px; fill: rgb(98, 74, 255); fill-opacity: 1;" transform="matrix(-1,-1.6298552384530084e-16,1.6298552384530084e-16,-1,270.48270416259766,483.43797302246094)"></polygon>
      <polygon id="P-34-5297cd" points="41.144317626953125,47.83731285999086 118.78591467076389,-51.622314453125 200.22682189941406,47.837646484375" style="stroke: rgb(255, 255, 255); stroke-opacity: 1; stroke-width: 0px; fill: rgb(108, 85, 255); fill-opacity: 1;" transform="matrix(1,0,0,1,410.94058990478516,46.12297058105469)"></polygon>
      <polygon id="P-35-85f75e" points="-611.5198866387766,423.2797532404701 -486.68872344139805,489.4891311322975 -568.2540761801763,389.8772277832031" style="stroke: rgb(255, 255, 255); stroke-opacity: 1; stroke-width: 0px; fill: rgb(58, 27, 255); fill-opacity: 1;" transform="matrix(-1,-1.6298552384530084e-16,1.6298552384530084e-16,-1,43.30096435546875,485.23258209228516)"></polygon>
      <polygon id="P-89-206f3c" points="30.427001953125,389.8784484863281 260.4276123046875,-21.29241943359375 479.71197509765625,389.87945556640625" style="stroke: rgb(249, 249, 249); stroke-opacity: 1; stroke-width: 0; fill: rgb(233, 233, 0); fill-opacity: 1;" transform="matrix(-1.0000000000000002,-1.6298552384530086e-16,1.6298552384530086e-16,-1.0000000000000002,790.4238281250002,666.5189819335938)"></polygon>
      <polygon id="P-76-fc99bb" points="-91.5740966796875,177.176025390625 260.43084716796875,-0.364990234375 260.433349609375,105.82733154296875" style="stroke: rgb(181, 181, 0); stroke-opacity: 1; stroke-width: 0; fill: rgb(148, 148, 0); fill-opacity: 1;" transform="matrix(-1.0000000000000002,-1.6298552384530086e-16,1.6298552384530086e-16,-1.0000000000000002,790.4295654296877,793.6387329101565)"></polygon>
      <polygon id="P-6d-6fa2b0" points="555.3495483398438,225.14837646484375 203.34051513671875,48.8353271484375 203.343017578125,155.02764892578125" style="stroke: rgb(181, 181, 0); stroke-opacity: 1; stroke-width: 0; fill: rgb(168, 168, 0); fill-opacity: 1;" transform="matrix(-1.0000000000000002,-1.6298552384530086e-16,1.6298552384530086e-16,-1.0000000000000002,733.3392333984377,842.839050292969)"></polygon>
      <polygon id="P-54-2c334b" points="30.427001953125,389.8784484863281 260.4276123046875,-21.29241943359375 -91.579833984375,50.0562744140625" style="stroke: rgb(194, 194, 55); stroke-opacity: 1; stroke-width: 0; fill: rgb(174, 174, 0); fill-opacity: 1;" transform="matrix(-1.0000000000000002,-1.6298552384530086e-16,1.6298552384530086e-16,-1.0000000000000002,790.4238281250002,666.5189819335938)"></polygon>
      <polygon id="P-0d-09921d" points="-40.22930908203125,389.87823486328125 92.49305725097656,48.82708740234375 93.22401428222656,490.9942127834531" style="stroke: rgb(212, 212, 116); stroke-opacity: 1; stroke-width: 0; fill: rgb(219, 219, 0); fill-opacity: 1;" transform="matrix(-1.0000000000000002,-1.6298552384530086e-16,1.6298552384530086e-16,-1.0000000000000002,270.4827270507815,666.517761230469)"></polygon>
      <polygon id="P-9e-6ff0fd" points="-40.22930908203125,389.87823486328125 92.49305725097656,48.82708740234375 -259.51348876953125,-21.29364013671875" style="stroke: rgb(212, 212, 116); stroke-opacity: 1; stroke-width: 0; fill: rgb(199, 199, 0); fill-opacity: 1;" transform="matrix(-1.0000000000000002,-1.6298552384530086e-16,1.6298552384530086e-16,-1.0000000000000002,270.4827270507815,666.517761230469)"></polygon>
      <polygon id="P-4e-99f933" points="-611.5198669433594,484.069580078125 -611.5209350585938,50.0550537109375 -489.5139465332031,389.8772277832031" style="stroke: rgb(212, 212, 116); stroke-opacity: 1; stroke-width: 0; fill: rgb(160, 160, 0); fill-opacity: 1;" transform="matrix(-1.0000000000000002,-1.6298552384530086e-16,1.6298552384530086e-16,-1.0000000000000002,270.4827270507815,666.517761230469)"></polygon>
      <polygon id="P-34-5b6424" points="-91.5740966796875,177.176025390625 260.43084716796875,-0.364990234375 260.433349609375,105.82733154296875" style="stroke: rgb(255, 255, 255); stroke-opacity: 1; stroke-width: 0; fill: rgb(28, 0, 210); fill-opacity: 1;" transform="matrix(-1.0000000000000002,-1.6298552384530086e-16,1.6298552384530086e-16,-1.0000000000000002,790.4295654296877,793.6387329101565)"></polygon>
      <polygon id="P-cb-236f1e" points="555.3495483398438,225.14837646484375 203.34051513671875,48.8353271484375 203.343017578125,155.02764892578125" style="stroke: rgb(255, 255, 255); stroke-opacity: 1; stroke-width: 0; fill: rgb(31, 0, 231); fill-opacity: 1;" transform="matrix(-1.0000000000000002,-1.6298552384530086e-16,1.6298552384530086e-16,-1.0000000000000002,733.3392333984377,842.839050292969)"></polygon>
      <polygon id="P-ae-615baf" points="-40.22930908203125,389.87823486328125 92.49305725097656,48.82708740234375 93.22401428222656,490.9942127834531" style="stroke: rgb(255, 255, 255); stroke-opacity: 1; stroke-width: 0px; fill: rgb(78, 50, 255); fill-opacity: 1;" transform="matrix(-1.0000000000000002,-1.6298552384530086e-16,1.6298552384530086e-16,-1.0000000000000002,270.4827270507815,666.517761230469)"></polygon>
      <polygon id="P-47-4e8b9a" points="-611.5198669433594,484.069580078125 -611.5209350585938,50.0550537109375 -489.5139465332031,389.8772277832031" style="stroke: rgb(255, 255, 255); stroke-opacity: 1; stroke-width: 0; fill: rgb(34, 0, 255); fill-opacity: 1;" transform="matrix(-1.0000000000000002,-1.6298552384530086e-16,1.6298552384530086e-16,-1.0000000000000002,270.4827270507815,666.517761230469)"></polygon>
      <polygon id="P-c3-87e6fa" points="-91.5740966796875,177.176025390625 0.3675537109375,128.15509033203125 0.37005615234375,160.25927734375" style="stroke: rgb(255, 255, 255); stroke-opacity: 1; stroke-width: 0; fill: rgb(28, 0, 210); fill-opacity: 1;" transform="matrix(-1.0000000000000002,-1.6298552384530086e-16,1.6298552384530086e-16,-1.0000000000000002,790.4295654296877,793.6387329101565)"></polygon>
      <polygon id="P-78-863e60" points="-58.781005859375,135.86288452148438 0.36431884765625,33.1395263671875 -91.579833984375,50.0562744140625" style="stroke: rgb(255, 255, 255); stroke-opacity: 1; stroke-width: 0px; fill: rgb(64, 34, 255); fill-opacity: 1;" transform="matrix(-1.0000000000000002,-1.6298552384530086e-16,1.6298552384530086e-16,-1.0000000000000002,790.4238281250002,666.5189819335938)"></polygon>
      <polygon id="P-e3-5be024" points="-611.5198669433594,158.98980712890625 -611.5209350585938,50.0550537109375 -578.7215576171875,135.86166381835938" style="stroke: rgb(255, 255, 255); stroke-opacity: 1; stroke-width: 0; fill: rgb(34, 0, 255); fill-opacity: 1;" transform="matrix(-1.0000000000000002,-1.6298552384530086e-16,1.6298552384530086e-16,-1.0000000000000002,270.4827270507815,666.517761230469)"></polygon>
      <polygon id="P-6f-c6e76f" points="556.21533203125,224.25946044921875 446.83758544921875,169.93194580078125 447.44757080078125,203.03485107421875" style="stroke: rgb(255, 255, 255); stroke-opacity: 1; stroke-width: 0; fill: rgb(31, 0, 231); fill-opacity: 1;" transform="matrix(-1,-1.6298552384530084e-16,1.6298552384530084e-16,-1,733.3392333984375,842.8390502929686)"></polygon>
      <polygon id="P-d2-07be4e" points="50.612213134765625,154.56536865234375 93.35914611816406,47.93817138671875 92.84869384765625,197.11032104492188" style="stroke: rgb(255, 255, 255); stroke-opacity: 1; stroke-width: 0px; fill: rgb(78, 50, 255); fill-opacity: 1;" transform="matrix(-1,-1.6298552384530084e-16,1.6298552384530084e-16,-1,270.48272705078125,666.5177612304686)"></polygon>
      <polygon id="P-a5-d9b229" points="50.612213134765625,154.56536865234375 93.35914611816406,47.93817138671875 -15.4085693359375,26.71356201171875" style="stroke: rgb(255, 255, 255); stroke-opacity: 1; stroke-width: 0px; fill: rgb(65, 36, 255); fill-opacity: 1;" transform="matrix(-1,-1.6298552384530084e-16,1.6298552384530084e-16,-1,270.48272705078125,666.5177612304686)"></polygon>
      <polygon id="P-32-a85a9e" points="-40.22930908203125,389.87823486328125 -112.43521118164062,480.2583923339844 5.2009124755859375,424.3713490139219" style="stroke: rgb(255, 255, 255); stroke-opacity: 1; stroke-width: 0px; fill: rgb(98, 74, 255); fill-opacity: 1;" transform="matrix(-1,-1.6298552384530084e-16,1.6298552384530084e-16,-1,270.4827270507813,666.5177612304689)"></polygon>
      <polygon id="P-51-8065f3" points="41.144317626953125,229.27402114868164 113.3502197265625,138.89362335205078 183.62039184570312,229.27496337890625" style="stroke: rgb(255, 255, 255); stroke-opacity: 1; stroke-width: 0px; fill: rgb(108, 85, 255); fill-opacity: 1;" transform="matrix(1,0,0,1,269.56771850585943,47.365699768066406)"></polygon>
      <polygon id="P-95-f7b89f" points="-40.22930908203125,389.87823486328125 5.2081451416015625,272.31060791015625 5.20013427734375,424.3713490139219" style="stroke: rgb(255, 255, 255); stroke-opacity: 1; stroke-width: 0px; fill: rgb(78, 50, 255); fill-opacity: 1;" transform="matrix(-1,-1.6298552384530084e-16,1.6298552384530084e-16,-1,270.4827270507813,666.5177612304689)"></polygon>
      <polygon id="P-70-6ceb28" points="337.2347412109375,389.8780212402344 407.50616455078125,255.4041748046875 479.71197509765625,389.87945556640625" style="stroke: rgb(255, 255, 255); stroke-opacity: 1; stroke-width: 0px; fill: rgb(93, 68, 255); fill-opacity: 1;" transform="matrix(-1,-1.6298552384530084e-16,1.6298552384530084e-16,-1,790.423828125,666.5189819335938)"></polygon>
      <polygon id="P-55-10a6ab" points="-40.22930908203125,389.87823486328125 5.208099365234375,272.3099365234375 -112.4345703125,255.40234375" style="stroke: rgb(255, 255, 255); stroke-opacity: 1; stroke-width: 0px; fill: rgb(65, 36, 255); fill-opacity: 1;" transform="matrix(-1,-1.6298552384530084e-16,1.6298552384530084e-16,-1,270.4827270507813,666.5177612304689)"></polygon>
      <polygon id="P-54-64ddbd" points="30.427001953125,389.8784484863281 103.1802978515625,255.402587890625 -12.9554443359375,272.31884765625" style="stroke: rgb(255, 255, 255); stroke-opacity: 1; stroke-width: 0px; fill: rgb(64, 34, 255); fill-opacity: 1;" transform="matrix(-1,-1.6298552384530084e-16,1.6298552384530084e-16,-1,790.423828125,666.5189819335936)"></polygon>
      <polygon id="P-4c-7ff7ae" points="-526.8482360839844,419.05303955078125 -418.2658996582031,480.2630615234375 -489.5139465332031,389.8772277832031" style="stroke: rgb(255, 255, 255); stroke-opacity: 1; stroke-width: 0px; fill: rgb(58, 27, 255); fill-opacity: 1;" transform="matrix(-1,-1.6298552384530084e-16,1.6298552384530084e-16,-1,270.48272705078125,666.5177612304686)"></polygon>
      <polygon id="P-d2-9db379" points="-526.8482360839844,419.05303955078125 -532.8973083496094,272.317626953125 -489.5139465332031,389.8772277832031" style="stroke: rgb(255, 255, 255); stroke-opacity: 1; stroke-width: 0; fill: rgb(34, 0, 255); fill-opacity: 1;" transform="matrix(-1,-1.6298552384530084e-16,1.6298552384530084e-16,-1,270.48272705078125,666.5177612304686)"></polygon>
      <polygon id="P-07-3e0f83" points="339.0071258544922,229.27399063110352 419.18089294433594,138.8890037536621 490.4289245605469,229.27496337890625" style="stroke: rgb(255, 255, 255); stroke-opacity: 1; stroke-width: 0px; fill: rgb(108, 85, 255); fill-opacity: 1;" transform="matrix(1,0,0,1,269.5677185058594,47.36569976806641)"></polygon>
      <polygon id="P-ca-1c7581" points="30.427001953125,389.8784484863281 103.1802978515625,255.402587890625 181.8482666015625,389.87921142578125" style="stroke: rgb(255, 255, 255); stroke-opacity: 1; stroke-width: 0px; fill: rgb(93, 68, 255); fill-opacity: 1;" transform="matrix(-1,-1.6298552384530084e-16,1.6298552384530084e-16,-1,790.423828125,666.5189819335936)"></polygon>
      <polygon id="P-4f-03c625" points="30.427001953125,128.90763687601032 114.44589384041477,-21.29241943359375 194.55015592004156,128.9080047607422" style="stroke: rgb(255, 255, 255); stroke-opacity: 1; stroke-width: 0px; fill: rgb(93, 68, 255); fill-opacity: 1;" transform="matrix(-1.0000000000000002,-1.6298552384530086e-16,1.6298552384530086e-16,-1.0000000000000002,645.3574597464551,667.761344909668)"></polygon>
      <polygon id="P-e3-523333" points="-91.5740966796875,65.60785672549808 39.228180830165286,-0.36499025936515733 39.22911071777344,39.09524247007721" style="stroke: rgb(255, 255, 255); stroke-opacity: 1; stroke-width: 0; fill: rgb(28, 0, 210); fill-opacity: 1;" transform="matrix(-1.0000000000000002,-1.6298552384530086e-16,1.6298552384530086e-16,-1.0000000000000002,569.2256393432617,726.8087046219359)"></polygon>
      <polygon id="P-95-6c735c" points="334.15386507828424,114.35664991319032 203.34051513671875,48.8353271484375 203.34144509223836,88.29843788975" style="stroke: rgb(255, 255, 255); stroke-opacity: 1; stroke-width: 0; fill: rgb(31, 0, 231); fill-opacity: 1;" transform="matrix(-1.0000000000000002,-1.6298552384530086e-16,1.6298552384530086e-16,-1.0000000000000002,733.3389587402344,774.3005335701953)"></polygon>
      <polygon id="P-c0-35b2f6" points="-47.1198073258895,128.540771484375 36.69380187988281,-21.29241943359375 -91.579833984375,4.707483042730512" style="stroke: rgb(255, 255, 255); stroke-opacity: 1; stroke-width: 0px; fill: rgb(64, 34, 255); fill-opacity: 1;" transform="matrix(-1.0000000000000002,-1.6298552384530086e-16,1.6298552384530086e-16,-1.0000000000000002,566.6898574829102,666.5188903808594)"></polygon>
      <polygon id="P-37-73e2ea" points="-178.93109357196502,129.8035888671875 -130.15837229930386,4.474288729744309 -259.51348876953125,-21.29364013671875" style="stroke: rgb(255, 255, 255); stroke-opacity: 1; stroke-width: 0px; fill: rgb(65, 36, 255); fill-opacity: 1;" transform="matrix(-1.0000000000000002,-1.6298552384530086e-16,1.6298552384530086e-16,-1.0000000000000002,270.4827346801758,666.5174255371094)"></polygon>
    </g>
  </svg>
  <svg id="S-12-bcf786" style="overflow: visible; pointer-events: all;" data-hidden="false" data-disabled="false">
    <g id="G-bf-1c724b">
      <polygon id="P-45-2138c9" points="0.37762451171875,130.17974853515625 -91.57159423828125,177.176025390625 -91.5740966796875,147.09649658203125" style="stroke: rgb(255, 255, 255); stroke-opacity: 1; stroke-width: 0; fill: rgb(28, 0, 210); fill-opacity: 1;" transform="matrix(1,0,0,1,881.6260070800781,486.2829284667969)"></polygon>
      <polygon id="P-09-a1e066" points="41.144317626953125,229.27402114868164 260.42156982421875,-51.622314453125 490.4289245605469,229.27496337890625" style="stroke: rgb(255, 255, 255); stroke-opacity: 1; stroke-width: 0; fill: rgb(255, 255, 0); fill-opacity: 1;" transform="matrix(1,0,0,1,269.56771850585926,47.36569976806629)"></polygon>
      <polygon id="P-99-39ee7b" points="-38.59490966796875,33.1395263671875 -91.579833984375,154.56838989257812 0.37188720703125,137.65164184570312" style="stroke: rgb(255, 255, 255); stroke-opacity: 1; stroke-width: 0px; fill: rgb(64, 34, 255); fill-opacity: 1;" transform="matrix(1,0,0,1,881.6317443847656,478.8110809326172)"></polygon>
      <polygon id="P-3e-e0f389" points="479.71197509765625,-21.291412353515625 249.71136474609375,389.87945556640625 30.427001953125,-21.29241943359375" style="stroke: rgb(249, 249, 249); stroke-opacity: 1; stroke-width: 0; fill: rgb(233, 233, 0); fill-opacity: 1;" transform="matrix(1,0,0,1,280.2848205566406,297.93194580078125)"></polygon>
      <polygon id="P-bf-622657" points="-572.5537109375,50.0550537109375 -573.0206298828125,197.1109619140625 -611.9878540039062,92.59884643554688" style="stroke: rgb(255, 255, 255); stroke-opacity: 1; stroke-width: 0; fill: rgb(34, 0, 255); fill-opacity: 1;" transform="matrix(1,0,0,1,1455.0242614746094,419.35174560546875)"></polygon>
      <polygon id="P-22-9acaaf" points="260.433349609375,-0.3649902939796448 -91.57159423828125,177.176025390625 -91.5740966796875,70.98370361328125" style="stroke: rgb(181, 181, 0); stroke-opacity: 1; stroke-width: 0; fill: rgb(148, 148, 0); fill-opacity: 1;" transform="matrix(1,0,0,1,621.5703125,616.8276977688074)"></polygon>
      <polygon id="P-d0-57ac68" points="446.83758544921875,169.93194580078125 556.215576171875,224.25946044921875 555.6055908203125,191.15655517578125" style="stroke: rgb(255, 255, 255); stroke-opacity: 1; stroke-width: 0; fill: rgb(31, 0, 231); fill-opacity: 1;" transform="matrix(1,0,0,1,-269.71392822265625,448.64764404296875)"></polygon>
      <polygon id="P-94-69346e" points="203.34051513671875,48.8353271484375 555.3495483398438,225.14837646484375 555.3470458984375,118.9560546875" style="stroke: rgb(181, 181, 0); stroke-opacity: 1; stroke-width: 0; fill: rgb(168, 168, 0); fill-opacity: 1;" transform="matrix(1,0,0,1,-25.350830078125,568.8553161621094)"></polygon>
      <polygon id="P-7b-3ceeff" points="138.4207763671875,-21.29241943359375 -91.579833984375,389.8784484863281 260.4276123046875,318.5297546386719" style="stroke: rgb(194, 194, 55); stroke-opacity: 1; stroke-width: 0; fill: rgb(174, 174, 0); fill-opacity: 1;" transform="matrix(1,0,0,1,621.5760498046875,297.9329376220703)"></polygon>
      <polygon id="P-c0-dc3a6f" points="93.35903930664062,90.48312377929688 50.612213134765625,197.11032104492188 51.12255859375,47.93817138671875" style="stroke: rgb(255, 255, 255); stroke-opacity: 1; stroke-width: 0px; fill: rgb(78, 50, 255); fill-opacity: 1;" transform="matrix(1,0,0,1,126.511474609375,421.4692840576172)"></polygon>
      <polygon id="P-c2-ff5887" points="93.22401428222656,149.94305419921875 -39.49835205078125,490.99420166015625 -40.22930908203125,48.82708740234375" style="stroke: rgb(212, 212, 116); stroke-opacity: 1; stroke-width: 0; fill: rgb(219, 219, 0); fill-opacity: 1;" transform="matrix(1,0,0,1,217.48802947998047,126.69647216796875)"></polygon>
      <polygon id="P-fd-663747" points="27.3382568359375,26.71356201171875 -15.4085693359375,133.34075927734375 93.35903930664062,154.56536865234375" style="stroke: rgb(255, 255, 255); stroke-opacity: 1; stroke-width: 0px; fill: rgb(65, 36, 255); fill-opacity: 1;" transform="matrix(1,0,0,1,192.53225708007812,485.23883056640625)"></polygon>
      <polygon id="P-a5-4a5a1b" points="2.6520919799804688,93.75773620605469 -29.53840446472168,189.74705505371094 -29.67053985595703,66.78985595703125" style="stroke: rgb(255, 255, 255); stroke-opacity: 1; stroke-width: 0px; fill: rgb(78, 50, 255); fill-opacity: 1;" transform="matrix(1,0,0,1,206.66056060791016,108.73706817626953)"></polygon>
      <polygon id="P-83-bea504" points="-126.7911376953125,-21.29364013671875 -259.51348876953125,319.75750732421875 92.4930419921875,389.87823486328125" style="stroke: rgb(212, 212, 116); stroke-opacity: 1; stroke-width: 0; fill: rgb(199, 199, 0); fill-opacity: 1;" transform="matrix(1,0,0,1,437.503173828125,297.93316650390625)"></polygon>
      <polygon id="P-f8-14290f" points="-126.05322265625,670.7745361328125 93.22402954101562,389.87823486328125 -259.50653076171875,569.6585693359375" style="stroke: rgb(212, 212, 116); stroke-opacity: 1; stroke-width: 0; fill: rgb(240, 240, 0); fill-opacity: 1;" transform="matrix(1,0,0,1,436.7652587890625,-394.1350402832031)"></polygon>
      <polygon id="P-93-c50088" points="-200.3563995361328,464.16314697265625 -149.9974822998047,395.3181457519531 -232.67898559570312,437.1952819824219" style="stroke: rgb(255, 255, 255); stroke-opacity: 1; stroke-width: 0px; fill: rgb(98, 74, 255); fill-opacity: 1;" transform="matrix(1,0,0,1,409.66898345947266,-261.6683807373047)"></polygon>
      <polygon id="P-20-db4eaf" points="-519.5707397460938,438.285400390625 -611.52001953125,389.8305358886719 -551.9072875976562,463.250244140625" style="stroke: rgb(255, 255, 255); stroke-opacity: 1; stroke-width: 0px; fill: rgb(58, 27, 255); fill-opacity: 1;" transform="matrix(1,0,0,1,1401.5749206542969,-256.18418884277344)"></polygon>
      <polygon id="P-20-801db5" points="-259.5065612792969,576.5821533203125 -611.5198974609375,389.8772277832031 -381.51251220703125,670.7745361328125" style="stroke: rgb(212, 212, 116); stroke-opacity: 1; stroke-width: 0; fill: rgb(217, 217, 0); fill-opacity: 1;" transform="matrix(1,0,0,1,1141.5092010498047,-394.1339874267578)"></polygon>
      <polygon id="P-9d-016de1" points="-579.1843872070312,50.0550537109375 -579.1838989257812,166.43540954589844 -611.5209350585938,75.0198974609375" style="stroke: rgb(255, 255, 255); stroke-opacity: 1; stroke-width: 0; fill: rgb(34, 0, 255); fill-opacity: 1;" transform="matrix(1,0,0,1,1461.1885375976562,132.04619598388672)"></polygon>
      <polygon id="P-8c-0ef655" points="-489.5149841308594,50.0550537109375 -489.5139465332031,484.069580078125 -611.5209350585938,144.24740600585938" style="stroke: rgb(212, 212, 116); stroke-opacity: 1; stroke-width: 0; fill: rgb(160, 160, 0); fill-opacity: 1;" transform="matrix(1,0,0,1,1371.5176239013672,132.39312744140625)"></polygon>
      <polygon id="P-2b-67227a" points="-67.00498962402344,480.2583923339844 5.2009124755859375,389.87823486328125 -112.43521118164062,445.7652893066406" style="stroke: rgb(255, 255, 255); stroke-opacity: 1; stroke-width: 0px; fill: rgb(98, 74, 255); fill-opacity: 1;" transform="matrix(1,0,0,1,377.71703338623047,-203.6188507080078)"></polygon>
      <polygon id="P-71-c6725f" points="41.144317626953125,229.27402114868164 113.3502197265625,138.89362335205078 183.62039184570312,229.27496337890625" style="stroke: rgb(255, 255, 255); stroke-opacity: 1; stroke-width: 0px; fill: rgb(108, 85, 255); fill-opacity: 1;" transform="matrix(1,0,0,1,269.56771850585926,47.36569976806629)"></polygon>
      <polygon id="P-10-0ab037" points="5.2081451416015625,306.8037109375 -40.22930908203125,424.371337890625 -40.22129821777344,272.31060791015625" style="stroke: rgb(255, 255, 255); stroke-opacity: 1; stroke-width: 0px; fill: rgb(78, 50, 255); fill-opacity: 1;" transform="matrix(1,0,0,1,305.50389862060547,-30.1641845703125)"></polygon>
      <polygon id="P-9d-24dee7" points="479.71197509765625,255.40560913085938 409.4405517578125,389.87945556640625 337.2347412109375,255.4041748046875" style="stroke: rgb(255, 255, 255); stroke-opacity: 1; stroke-width: 0px; fill: rgb(93, 68, 255); fill-opacity: 1;" transform="matrix(1,0,0,1,-26.52288818359375,21.2353515625)"></polygon>
      <polygon id="P-54-f7bc21" points="-66.99716186523438,255.40234375 -112.4345703125,372.97064208984375 5.208099365234375,389.87823486328125" style="stroke: rgb(255, 255, 255); stroke-opacity: 1; stroke-width: 0px; fill: rgb(65, 36, 255); fill-opacity: 1;" transform="matrix(1,0,0,1,377.70921325683594,21.2371826171875)"></polygon>
      <polygon id="P-8e-69c770" points="59.7978515625,255.402587890625 -12.9554443359375,389.8784484863281 103.1802978515625,372.9621887207031" style="stroke: rgb(255, 255, 255); stroke-opacity: 1; stroke-width: 0px; fill: rgb(64, 34, 255); fill-opacity: 1;" transform="matrix(1,0,0,1,700.198974609375,21.237960815429688)"></polygon>
      <polygon id="P-0e-65d165" points="-418.2658996582031,451.0872497558594 -526.8482666015625,389.8772277832031 -455.6002197265625,480.2630615234375" style="stroke: rgb(255, 255, 255); stroke-opacity: 1; stroke-width: 0px; fill: rgb(58, 27, 255); fill-opacity: 1;" transform="matrix(1,0,0,1,1215.5968780517578,-203.6225128173828)"></polygon>
      <polygon id="P-04-315118" points="-495.5630187988281,272.317626953125 -489.5139465332031,419.05303955078125 -532.8973388671875,301.4934387207031" style="stroke: rgb(255, 255, 255); stroke-opacity: 1; stroke-width: 0; fill: rgb(34, 0, 255); fill-opacity: 1;" transform="matrix(1,0,0,1,1292.8939971923828,-24.8529052734375)"></polygon>
      <polygon id="P-5e-6028f3" points="339.0071258544922,229.27399063110352 419.18089294433594,138.8890037536621 490.4289245605469,229.27496337890625" style="stroke: rgb(255, 255, 255); stroke-opacity: 1; stroke-width: 0px; fill: rgb(108, 85, 255); fill-opacity: 1;" transform="matrix(1,0,0,1,269.56771850585926,47.36569976806629)"></polygon>
      <polygon id="P-4c-fd332b" points="181.8482666015625,255.40335083007812 109.094970703125,389.87921142578125 30.427001953125,255.402587890625" style="stroke: rgb(255, 255, 255); stroke-opacity: 1; stroke-width: 0px; fill: rgb(93, 68, 255); fill-opacity: 1;" transform="matrix(1,0,0,1,578.1485595703125,21.2371826171875)"></polygon>
      <polygon id="P-d4-d17455" points="203.34051513671875,48.8353271484375 332.7021484375,113.62953186035156 332.7003479003906,74.37451934814453" style="stroke: rgb(255, 255, 255); stroke-opacity: 1; stroke-width: 0; fill: rgb(31, 0, 231); fill-opacity: 1;" transform="matrix(1,0,0,1,197.29656982421875,681.1796798706055)"></polygon>
      <polygon id="P-42-44b033" points="39.227386474609375,-0.36499035358428955 -91.5740966796875,65.6074447631836 -91.57408905029297,26.377269744873047" style="stroke: rgb(255, 255, 255); stroke-opacity: 1; stroke-width: 0; fill: rgb(28, 0, 210); fill-opacity: 1;" transform="matrix(1,0,0,1,621.5709991455078,729.1769295036793)"></polygon>
      <polygon id="P-64-4573ac" points="195.24688720703125,-19.28466796875 111.05633544921875,129.977783203125 30.98736572265625,-19.9169921875" style="stroke: rgb(255, 255, 255); stroke-opacity: 1; stroke-width: 0px; fill: rgb(93, 68, 255); fill-opacity: 1;" transform="matrix(1,0,0,1,419.12322998046875,557.7005615234375)"></polygon>
      <polygon id="P-6d-48acc5" points="39.22772216796875,0.4892578721046448 -90.30908203125,65.30255126953125 -90.12744140625,26.66143798828125" style="stroke: rgb(255, 255, 255); stroke-opacity: 1; stroke-width: 0; fill: rgb(28, 0, 210); fill-opacity: 1;" transform="matrix(1,0,0,1,620.3070373535156,661.0169372409582)"></polygon>
      <polygon id="P-95-2759d7" points="203.15936279296875,47.9810791015625 333.24420166015625,113.3070068359375 333.42584228515625,74.6658935546875" style="stroke: rgb(255, 255, 255); stroke-opacity: 1; stroke-width: 0; fill: rgb(31, 0, 231); fill-opacity: 1;" transform="matrix(1,0,0,1,196.75372314453125,613.012451171875)"></polygon>
      <polygon id="P-48-b38514" points="-8.654296875,-21.159423828125 -92.8448486328125,128.10302734375 36.51031494140625,101.93084716796875" style="stroke: rgb(255, 255, 255); stroke-opacity: 1; stroke-width: 0px; fill: rgb(64, 34, 255); fill-opacity: 1;" transform="matrix(1,0,0,1,623.0244445800781,559.5753173828125)"></polygon>
      <polygon id="P-ec-44b37f" points="-209.49932861328125,-21.160888671875 -259.69683837890625,102.049072265625 -129.43035888671875,128.73388671875" style="stroke: rgb(255, 255, 255); stroke-opacity: 1; stroke-width: 0px; fill: rgb(65, 36, 255); fill-opacity: 1;" transform="matrix(1,0,0,1,659.6099243164062,558.9444580078125)"></polygon>
      <polygon id="P-39-46a50a" points="-213.0340576171875,487.6948547363281 -136.67506408691406,389.87823486328125 -259.5065612792969,452.48321533203125" style="stroke: rgb(255, 255, 255); stroke-opacity: 1; stroke-width: 0px; fill: rgb(98, 74, 255); fill-opacity: 1;" transform="matrix(1,0,0,1,666.6643295288086,-394.13511657714844)"></polygon>
      <polygon id="P-09-db9b37" points="41.144317626953125,47.83731285999086 118.78591467076389,-51.622314453125 200.22682189941406,47.837646484375" style="stroke: rgb(255, 255, 255); stroke-opacity: 1; stroke-width: 0px; fill: rgb(108, 85, 255); fill-opacity: 1;" transform="matrix(1,0,0,1,410.9405822753906,46.12297058105469)"></polygon>
      <polygon id="P-fc-a7821a" points="-486.688720703125,456.08660888671875 -611.5198974609375,389.8772277832031 -529.9545288085938,489.4891357421875" style="stroke: rgb(255, 255, 255); stroke-opacity: 1; stroke-width: 0px; fill: rgb(58, 27, 255); fill-opacity: 1;" transform="matrix(1,0,0,1,1141.5095825195312,-394.13377380371094)"></polygon>
    </g>
  </svg>
  <svg id="S-36-25f0c1" style="overflow: visible; pointer-events: all;" data-disabled="false" data-hidden="false">
    <g id="G-81-46a866" transform="matrix(1,0,0,1,-880.8334587837171,-0.000179290771484375)">
      <polygon id="P-04-7eeede" points="41.144317626953125,229.27402114868164 260.42156982421875,-51.622314453125 490.4289245605469,229.27496337890625" style="stroke: rgb(255, 255, 255); stroke-opacity: 1; stroke-width: 0; fill: rgb(108, 85, 255); fill-opacity: 1;" transform="matrix(1,0,0,1,2002.5458679199219,47.363754272461165)"></polygon>
      <polygon id="P-95-ab8011" points="-126.05322265625,670.7745361328125 93.22402954101562,389.87823486328125 -259.50653076171875,569.6585693359375" style="stroke: rgb(212, 212, 116); stroke-opacity: 1; stroke-width: 0; fill: rgb(98, 74, 255); fill-opacity: 1;" transform="matrix(1,0,0,1,2169.7433166503906,-394.13697814941406)"></polygon>
      <polygon id="P-8a-ce7072" points="-213.0340576171875,487.6948547363281 -136.67506408691406,389.87823486328125 -259.5065612792969,452.48321533203125" style="stroke: rgb(255, 255, 255); stroke-opacity: 1; stroke-width: 0px; fill: rgb(240, 240, 0); fill-opacity: 1;" transform="matrix(1,0,0,1,2399.6425704956055,-394.1370620727539)"></polygon>
      <polygon id="P-6a-603ff0" points="41.144317626953125,47.83731285999086 118.78591467076389,-51.622314453125 200.22682189941406,47.837646484375" style="stroke: rgb(255, 255, 255); stroke-opacity: 1; stroke-width: 0px; fill: rgb(255, 255, 0); fill-opacity: 1;" transform="matrix(1,0,0,1,2143.918731689453,46.12102508544899)"></polygon>
      <polygon id="P-eb-4fba41" points="-259.5065612792969,576.5821533203125 -611.5198974609375,389.8772277832031 -381.51251220703125,670.7745361328125" style="stroke: rgb(212, 212, 116); stroke-opacity: 1; stroke-width: 0; fill: rgb(58, 27, 255); fill-opacity: 1;" transform="matrix(1,0,0,1,2874.487350463867,-394.13592529296875)"></polygon>
      <polygon id="P-ec-e2855b" points="-486.688720703125,456.08660888671875 -611.5198974609375,389.8772277832031 -529.9545288085938,489.4891357421875" style="stroke: rgb(255, 255, 255); stroke-opacity: 1; stroke-width: 0px; fill: rgb(217, 217, 0); fill-opacity: 1;" transform="matrix(1,0,0,1,2874.4876098632812,-394.1357192993164)"></polygon>
      <polygon id="P-32-585bd1" points="93.22401428222656,149.94305419921875 -39.49835205078125,490.99420166015625 -40.22930908203125,48.82708740234375" style="stroke: rgb(212, 212, 116); stroke-opacity: 1; stroke-width: 0; fill: rgb(78, 50, 255); fill-opacity: 1;" transform="matrix(1,0,0,1,1950.4661483764648,126.69451904296875)"></polygon>
      <polygon id="P-ea-c26f19" points="2.6520919799804688,93.75773620605469 -29.53840446472168,189.74705505371094 -29.67053985595703,66.78985595703125" style="stroke: rgb(255, 255, 255); stroke-opacity: 1; stroke-width: 0px; fill: rgb(219, 219, 0); fill-opacity: 1;" transform="matrix(1,0,0,1,1939.6387405395508,108.73511505126953)"></polygon>
      <polygon id="P-41-6c5372" points="-200.3563995361328,464.16314697265625 -149.9974822998047,395.3181457519531 -232.67898559570312,437.1952819824219" style="stroke: rgb(255, 255, 255); stroke-opacity: 1; stroke-width: 0px; fill: rgb(240, 240, 0); fill-opacity: 1;" transform="matrix(1,0,0,1,2142.6471939086914,-261.6703186035156)"></polygon>
      <polygon id="P-03-aea871" points="479.71197509765625,-21.291412353515625 249.71136474609375,389.87945556640625 30.427001953125,-21.29241943359375" style="stroke: rgb(249, 249, 249); stroke-opacity: 1; stroke-width: 0; fill: rgb(93, 68, 255); fill-opacity: 1;" transform="matrix(1,0,0,1,2013.2630310058594,297.92999267578125)"></polygon>
      <polygon id="P-a2-c66deb" points="138.4207763671875,-21.29241943359375 -91.579833984375,389.8784484863281 260.4276123046875,318.5297546386719" style="stroke: rgb(194, 194, 55); stroke-opacity: 1; stroke-width: 0; fill: rgb(64, 34, 255); fill-opacity: 1;" transform="matrix(1,0,0,1,2354.5541381835938,297.93101501464844)"></polygon>
      <polygon id="P-13-12e0d2" points="-126.7911376953125,-21.29364013671875 -259.51348876953125,319.75750732421875 92.4930419921875,389.87823486328125" style="stroke: rgb(212, 212, 116); stroke-opacity: 1; stroke-width: 0; fill: rgb(65, 36, 255); fill-opacity: 1;" transform="matrix(1,0,0,1,2170.481414794922,297.93121337890625)"></polygon>
      <polygon id="P-1b-52d5dd" points="-67.00498962402344,480.2583923339844 5.2009124755859375,389.87823486328125 -112.43521118164062,445.7652893066406" style="stroke: rgb(255, 255, 255); stroke-opacity: 1; stroke-width: 0px; fill: rgb(240, 240, 0); fill-opacity: 1;" transform="matrix(1,0,0,1,2110.6952743530273,-203.62078857421875)"></polygon>
      <polygon id="P-cf-82c7d3" points="41.144317626953125,229.27402114868164 113.3502197265625,138.89362335205078 183.62039184570312,229.27496337890625" style="stroke: rgb(255, 255, 255); stroke-opacity: 1; stroke-width: 0px; fill: rgb(255, 255, 0); fill-opacity: 1;" transform="matrix(1,0,0,1,2002.5458679199219,47.363754272461165)"></polygon>
      <polygon id="P-44-f29897" points="5.2081451416015625,306.8037109375 -40.22930908203125,424.371337890625 -40.22129821777344,272.31060791015625" style="stroke: rgb(255, 255, 255); stroke-opacity: 1; stroke-width: 0px; fill: rgb(219, 219, 0); fill-opacity: 1;" transform="matrix(1,0,0,1,2038.4820175170898,-30.1661376953125)"></polygon>
      <polygon id="P-71-2dde58" points="479.71197509765625,255.40560913085938 409.4405517578125,389.87945556640625 337.2347412109375,255.4041748046875" style="stroke: rgb(255, 255, 255); stroke-opacity: 1; stroke-width: 0px; fill: rgb(233, 233, 0); fill-opacity: 1;" transform="matrix(1,0,0,1,1706.4553527832031,21.2333984375)"></polygon>
      <polygon id="P-ed-f670e0" points="-66.99716186523438,255.40234375 -112.4345703125,372.97064208984375 5.208099365234375,389.87823486328125" style="stroke: rgb(255, 255, 255); stroke-opacity: 1; stroke-width: 0px; fill: rgb(199, 199, 0); fill-opacity: 1;" transform="matrix(1,0,0,1,2110.687454223633,21.2352294921875)"></polygon>
      <polygon id="P-be-24f889" points="339.0071258544922,229.27399063110352 419.18089294433594,138.8890037536621 490.4289245605469,229.27496337890625" style="stroke: rgb(255, 255, 255); stroke-opacity: 1; stroke-width: 0px; fill: rgb(255, 255, 0); fill-opacity: 1;" transform="matrix(1,0,0,1,2002.5458679199219,47.363754272461165)"></polygon>
      <polygon id="P-44-9dab76" points="181.8482666015625,255.40335083007812 109.094970703125,389.87921142578125 30.427001953125,255.402587890625" style="stroke: rgb(255, 255, 255); stroke-opacity: 1; stroke-width: 0px; fill: rgb(233, 233, 0); fill-opacity: 1;" transform="matrix(1,0,0,1,2311.1267700195312,21.2352294921875)"></polygon>
      <polygon id="P-cc-28ed75" points="260.433349609375,-0.3649902939796448 -91.57159423828125,177.176025390625 -91.5740966796875,70.98370361328125" style="stroke: rgb(181, 181, 0); stroke-opacity: 1; stroke-width: 0; fill: rgb(28, 0, 210); fill-opacity: 1;" transform="matrix(1,0,0,1,2354.5484008789062,616.8257446438074)"></polygon>
      <polygon id="P-80-46a2ac" points="203.34051513671875,48.8353271484375 555.3495483398438,225.14837646484375 555.3470458984375,118.9560546875" style="stroke: rgb(181, 181, 0); stroke-opacity: 1; stroke-width: 0; fill: rgb(31, 0, 231); fill-opacity: 1;" transform="matrix(1,0,0,1,1707.6273803710938,568.8534240722656)"></polygon>
      <polygon id="P-f4-96e7da" points="-489.5149841308594,50.0550537109375 -489.5139465332031,484.069580078125 -611.5209350585938,144.24740600585938" style="stroke: rgb(212, 212, 116); stroke-opacity: 1; stroke-width: 0; fill: rgb(34, 0, 255); fill-opacity: 1;" transform="matrix(1,0,0,1,3104.4957122802734,132.39117431640625)"></polygon>
      <polygon id="P-ce-be190f" points="0.37762451171875,130.17974853515625 -91.57159423828125,177.176025390625 -91.5740966796875,147.09649658203125" style="stroke: rgb(255, 255, 255); stroke-opacity: 1; stroke-width: 0; fill: rgb(148, 148, 0); fill-opacity: 1;" transform="matrix(1,0,0,1,2614.6040954589844,486.2810363769531)"></polygon>
      <polygon id="P-62-800457" points="-38.59490966796875,33.1395263671875 -91.579833984375,154.56838989257812 0.37188720703125,137.65164184570312" style="stroke: rgb(255, 255, 255); stroke-opacity: 1; stroke-width: 0px; fill: rgb(174, 174, 0); fill-opacity: 1;" transform="matrix(1,0,0,1,2614.609832763672,478.8091278076172)"></polygon>
      <polygon id="P-cf-5b1b64" points="446.83758544921875,169.93194580078125 556.215576171875,224.25946044921875 555.6055908203125,191.15655517578125" style="stroke: rgb(255, 255, 255); stroke-opacity: 1; stroke-width: 0; fill: rgb(168, 168, 0); fill-opacity: 1;" transform="matrix(1,0,0,1,1463.2641906738281,448.64569091796875)"></polygon>
      <polygon id="P-d5-52f1d1" points="93.35903930664062,90.48312377929688 50.612213134765625,197.11032104492188 51.12255859375,47.93817138671875" style="stroke: rgb(255, 255, 255); stroke-opacity: 1; stroke-width: 0px; fill: rgb(219, 219, 0); fill-opacity: 1;" transform="matrix(1,0,0,1,1859.4895935058594,421.4673309326172)"></polygon>
      <polygon id="P-82-c9652d" points="27.3382568359375,26.71356201171875 -15.4085693359375,133.34075927734375 93.35903930664062,154.56536865234375" style="stroke: rgb(255, 255, 255); stroke-opacity: 1; stroke-width: 0px; fill: rgb(199, 199, 0); fill-opacity: 1;" transform="matrix(1,0,0,1,1925.5103607177734,485.23687744140625)"></polygon>
      <polygon id="P-05-9d71b2" points="-519.5707397460938,438.285400390625 -611.52001953125,389.8305358886719 -551.9072875976562,463.250244140625" style="stroke: rgb(255, 255, 255); stroke-opacity: 1; stroke-width: 0px; fill: rgb(217, 217, 0); fill-opacity: 1;" transform="matrix(1,0,0,1,3134.552947998047,-256.1861267089844)"></polygon>
      <polygon id="P-65-dc4e21" points="59.7978515625,255.402587890625 -12.9554443359375,389.8784484863281 103.1802978515625,372.9621887207031" style="stroke: rgb(255, 255, 255); stroke-opacity: 1; stroke-width: 0px; fill: rgb(174, 174, 0); fill-opacity: 1;" transform="matrix(1,0,0,1,2433.1771240234375,21.236007690429688)"></polygon>
      <polygon id="P-83-a568bf" points="-418.2658996582031,451.0872497558594 -526.8482666015625,389.8772277832031 -455.6002197265625,480.2630615234375" style="stroke: rgb(255, 255, 255); stroke-opacity: 1; stroke-width: 0px; fill: rgb(217, 217, 0); fill-opacity: 1;" transform="matrix(1,0,0,1,2948.574905395508,-203.62445068359375)"></polygon>
      <polygon id="P-fd-19c6d4" points="-495.5630187988281,272.317626953125 -489.5139465332031,419.05303955078125 -532.8973388671875,301.4934387207031" style="stroke: rgb(255, 255, 255); stroke-opacity: 1; stroke-width: 0; fill: rgb(160, 160, 0); fill-opacity: 1;" transform="matrix(1,0,0,1,3025.8721466064453,-24.8548583984375)"></polygon>
      <polygon id="P-6d-d11ce8" points="195.24688720703125,-19.28466796875 111.05633544921875,129.977783203125 30.98736572265625,-19.9169921875" style="stroke: rgb(255, 255, 255); stroke-opacity: 1; stroke-width: 0px; fill: rgb(233, 233, 0); fill-opacity: 1;" transform="matrix(1,0,0,1,2152.1013793945312,557.6986083984375)"></polygon>
      <polygon id="P-67-99de5a" points="-8.654296875,-21.159423828125 -92.8448486328125,128.10302734375 36.51031494140625,101.93084716796875" style="stroke: rgb(255, 255, 255); stroke-opacity: 1; stroke-width: 0px; fill: rgb(174, 174, 0); fill-opacity: 1;" transform="matrix(1,0,0,1,2356.002471923828,559.5733642578125)"></polygon>
      <polygon id="P-12-7bde95" points="-209.49932861328125,-21.160888671875 -259.69683837890625,102.049072265625 -129.43035888671875,128.73388671875" style="stroke: rgb(255, 255, 255); stroke-opacity: 1; stroke-width: 0px; fill: rgb(199, 199, 0); fill-opacity: 1;" transform="matrix(1,0,0,1,2392.5880126953125,558.9425048828125)"></polygon>
      <polygon id="P-9b-5cf6fb" points="-572.5537109375,50.0550537109375 -573.0206298828125,197.1109619140625 -611.9878540039062,92.59884643554688" style="stroke: rgb(255, 255, 255); stroke-opacity: 1; stroke-width: 0; fill: rgb(160, 160, 0); fill-opacity: 1;" transform="matrix(1,0,0,1,3188.002471923828,419.34979248046875)"></polygon>
      <polygon id="P-1b-6865c7" points="-579.1843872070312,50.0550537109375 -579.1838989257812,166.43540954589844 -611.5209350585938,75.0198974609375" style="stroke: rgb(255, 255, 255); stroke-opacity: 1; stroke-width: 0; fill: rgb(160, 160, 0); fill-opacity: 1;" transform="matrix(1,0,0,1,3194.1666259765625,132.04424285888672)"></polygon>
      <polygon id="P-1e-5f01c9" points="203.34051513671875,48.8353271484375 332.7021484375,113.62953186035156 332.7003479003906,74.37451934814453" style="stroke: rgb(255, 255, 255); stroke-opacity: 1; stroke-width: 0; fill: rgb(168, 168, 0); fill-opacity: 1;" transform="matrix(1,0,0,1,1930.2748107910156,681.1777267456055)"></polygon>
      <polygon id="P-0f-f3ef87" points="39.227386474609375,-0.36499035358428955 -91.5740966796875,65.6074447631836 -91.57408905029297,26.377269744873047" style="stroke: rgb(255, 255, 255); stroke-opacity: 1; stroke-width: 0; fill: rgb(148, 148, 0); fill-opacity: 1;" transform="matrix(1,0,0,1,2354.549087524414,729.1749763786793)"></polygon>
      <polygon id="P-8a-dad01d" points="39.22772216796875,0.4892578721046448 -90.30908203125,65.30255126953125 -90.12744140625,26.66143798828125" style="stroke: rgb(255, 255, 255); stroke-opacity: 1; stroke-width: 0; fill: rgb(148, 148, 0); fill-opacity: 1;" transform="matrix(1,0,0,1,2353.2850646972656,661.0149841159582)"></polygon>
      <polygon id="P-92-868083" points="203.15936279296875,47.9810791015625 333.24420166015625,113.3070068359375 333.42584228515625,74.6658935546875" style="stroke: rgb(255, 255, 255); stroke-opacity: 1; stroke-width: 0; fill: rgb(168, 168, 0); fill-opacity: 1;" transform="matrix(1,0,0,1,1929.7318115234375,613.010498046875)"></polygon>
    </g>
  </svg>
  <defs id="SvgjsDefs1634"></defs>
</svg>