<svg width="100%" height="100%" version="1.1" 
  xmlns="http://www.w3.org/2000/svg" 
  xmlns:xlink="http://www.w3.org/1999/xlink" 
  xmlns:svgjs="http://svgjs.com/svgjs" 
style="stroke-linecap: round; stroke-linejoin: round; stroke-miterlimit: 20; background: rgba(79, 79, 79, 1);"
viewBox="-196.84006835937498 -299.0880057093608 2305.285361328125 1388.7261212820029">
  <svg id="S-12-bcf786" style="overflow: visible; pointer-events: all;" data-hidden="false" data-disabled="false">
    <g id="G-21-766446">
      <polygon id="P-20-801db5" points="-259.5065612792969,576.5821533203125 -611.522705078125,389.8748779296875 -381.51251220703125,670.7745361328125" style="stroke: rgb(212, 212, 116); stroke-opacity: 1; stroke-width: 0; fill: rgb(217, 217, 0); fill-opacity: 1;" transform="matrix(1,0,0,1,1141.5091552734375,-394.13397216796875)"></polygon>
      <polygon id="P-22-9acaaf" points="260.433349609375,-0.3649902939796448 -91.57159423828125,177.176025390625 -91.5740966796875,70.98370361328125" style="stroke: rgb(181, 181, 0); stroke-opacity: 1; stroke-width: 0; fill: rgb(148, 148, 0); fill-opacity: 1;" transform="matrix(1,0,0,1,621.5703125000001,616.8276977539062)"></polygon>
      <polygon id="P-8c-0ef655" points="-489.5149841308594,50.0550537109375 -489.5139465332031,484.069580078125 -611.5209350585938,144.24740600585938" style="stroke: rgb(212, 212, 116); stroke-opacity: 1; stroke-width: 0; fill: rgb(160, 160, 0); fill-opacity: 1;" transform="matrix(1,0,0,1,1371.517578125,132.3931274414063)"></polygon>
      <polygon id="P-7b-3ceeff" points="138.4207763671875,-21.29241943359375 -91.579833984375,389.8784484863281 260.4276123046875,318.5297546386719" style="stroke: rgb(194, 194, 55); stroke-opacity: 1; stroke-width: 0; fill: rgb(174, 174, 0); fill-opacity: 1;" transform="matrix(1,0,0,1,621.5760498046876,297.9329223632813)"></polygon>
      <polygon id="P-94-69346e" points="203.34051513671875,48.8353271484375 555.3495483398438,225.14837646484375 555.3470458984375,118.9560546875" style="stroke: rgb(181, 181, 0); stroke-opacity: 1; stroke-width: 0; fill: rgb(168, 168, 0); fill-opacity: 1;" transform="matrix(1,0,0,1,-25.350830078125,568.8553466796875)"></polygon>
      <polygon id="P-c2-ff5887" points="93.22401428222656,149.94305419921875 -39.49835205078125,490.99420166015625 -40.22930908203125,48.82708740234375" style="stroke: rgb(212, 212, 116); stroke-opacity: 1; stroke-width: 0; fill: rgb(219, 219, 0); fill-opacity: 1;" transform="matrix(1,0,0,1,217.48802185058605,126.6964721679688)"></polygon>
      <polygon id="P-83-bea504" points="-126.7911376953125,-21.29364013671875 -259.51348876953125,319.75750732421875 92.4930419921875,389.87823486328125" style="stroke: rgb(212, 212, 116); stroke-opacity: 1; stroke-width: 0; fill: rgb(199, 199, 0); fill-opacity: 1;" transform="matrix(1,0,0,1,437.5031738281251,297.9331665039063)"></polygon>
      <polygon id="P-45-2138c9" points="0.37762451171875,130.17974853515625 -91.57159423828125,177.176025390625 -91.5740966796875,147.09649658203125" style="stroke: rgb(255, 255, 255); stroke-opacity: 1; stroke-width: 0; fill: rgb(28, 0, 210); fill-opacity: 1;" transform="matrix(1,0,0,1,881.6259765625,486.2829284667968)"></polygon>
      <polygon id="P-09-a1e066" points="41.144317626953125,229.27402114868164 260.4187316894531,-51.62479019165039 490.4289245605469,229.27496337890625" style="stroke: rgb(255, 255, 255); stroke-opacity: 1; stroke-width: 0; fill: rgb(255, 255, 0); fill-opacity: 1;" transform="matrix(1,0,0,1,269.5677185058594,47.365699768066406)"></polygon>
      <polygon id="P-99-39ee7b" points="-38.59490966796875,33.1395263671875 -91.579833984375,154.56838989257812 0.37188720703125,137.65164184570312" style="stroke: rgb(255, 255, 255); stroke-opacity: 1; stroke-width: 0px; fill: rgb(64, 34, 255); fill-opacity: 1;" transform="matrix(1,0,0,1,881.6317138671875,478.8110961914063)"></polygon>
      <polygon id="P-3e-e0f389" points="479.71197509765625,-21.291412353515625 249.71136474609375,389.87945556640625 30.427001953125,-21.29241943359375" style="stroke: rgb(249, 249, 249); stroke-opacity: 1; stroke-width: 0; fill: rgb(233, 233, 0); fill-opacity: 1;" transform="matrix(1,0,0,1,280.2848205566406,297.9319458007813)"></polygon>
      <polygon id="P-bf-622657" points="-572.5537109375,50.0550537109375 -573.0206298828125,197.1109619140625 -611.9878540039062,92.59884643554688" style="stroke: rgb(255, 255, 255); stroke-opacity: 1; stroke-width: 0; fill: rgb(34, 0, 255); fill-opacity: 1;" transform="matrix(1,0,0,1,1455.0242919921877,419.3517456054688)"></polygon>
      <polygon id="P-d0-57ac68" points="446.83758544921875,169.93194580078125 556.215576171875,224.25946044921875 555.6055908203125,191.15655517578125" style="stroke: rgb(255, 255, 255); stroke-opacity: 1; stroke-width: 0; fill: rgb(31, 0, 231); fill-opacity: 1;" transform="matrix(1,0,0,1,-269.71392822265625,448.6476440429688)"></polygon>
      <polygon id="P-c0-dc3a6f" points="93.35903930664062,90.48312377929688 50.612213134765625,197.11032104492188 51.12255859375,47.93817138671875" style="stroke: rgb(255, 255, 255); stroke-opacity: 1; stroke-width: 0px; fill: rgb(78, 50, 255); fill-opacity: 1;" transform="matrix(1,0,0,1,126.511474609375,421.4692993164064)"></polygon>
      <polygon id="P-fd-663747" points="27.3382568359375,26.71356201171875 -15.4085693359375,133.34075927734375 93.35903930664062,154.56536865234375" style="stroke: rgb(255, 255, 255); stroke-opacity: 1; stroke-width: 0px; fill: rgb(65, 36, 255); fill-opacity: 1;" transform="matrix(1,0,0,1,192.53225708007812,485.2388305664063)"></polygon>
      <polygon id="P-a5-4a5a1b" points="2.6520919799804688,93.75773620605469 -29.53840446472168,189.74705505371094 -29.67053985595703,66.78985595703125" style="stroke: rgb(255, 255, 255); stroke-opacity: 1; stroke-width: 0px; fill: rgb(78, 50, 255); fill-opacity: 1;" transform="matrix(1,0,0,1,206.6605682373047,108.73706817626959)"></polygon>
      <polygon id="P-f8-14290f" points="-126.05322265625,670.7745361328125 93.22119140625,389.8759460449219 -259.50653076171875,569.6585693359375" style="stroke: rgb(212, 212, 116); stroke-opacity: 1; stroke-width: 0; fill: rgb(240, 240, 0); fill-opacity: 1;" transform="matrix(1,0,0,1,436.7652587890625,-394.1350402832031)"></polygon>
      <polygon id="P-93-c50088" points="-200.3563995361328,464.16314697265625 -149.9974822998047,395.3181457519531 -232.67898559570312,437.1952819824219" style="stroke: rgb(255, 255, 255); stroke-opacity: 1; stroke-width: 0px; fill: rgb(98, 74, 255); fill-opacity: 1;" transform="matrix(1,0,0,1,409.66897583007824,-261.6683959960937)"></polygon>
      <polygon id="P-20-db4eaf" points="-519.5707397460938,438.285400390625 -611.52001953125,389.8305358886719 -551.9072875976562,463.250244140625" style="stroke: rgb(255, 255, 255); stroke-opacity: 1; stroke-width: 0px; fill: rgb(58, 27, 255); fill-opacity: 1;" transform="matrix(1,0,0,1,1401.574951171875,-256.18420410156244)"></polygon>
      <polygon id="P-9d-016de1" points="-579.1843872070312,50.0550537109375 -579.1838989257812,166.43540954589844 -611.5209350585938,75.0198974609375" style="stroke: rgb(255, 255, 255); stroke-opacity: 1; stroke-width: 0; fill: rgb(34, 0, 255); fill-opacity: 1;" transform="matrix(1,0,0,1,1461.1884765625,132.0462036132813)"></polygon>
      <polygon id="P-2b-67227a" points="-67.00498962402344,480.2583923339844 5.2009124755859375,389.87823486328125 -112.43521118164062,445.7652893066406" style="stroke: rgb(255, 255, 255); stroke-opacity: 1; stroke-width: 0px; fill: rgb(98, 74, 255); fill-opacity: 1;" transform="matrix(1,0,0,1,377.717041015625,-203.61885070800776)"></polygon>
      <polygon id="P-71-c6725f" points="41.144317626953125,229.27402114868164 113.3502197265625,138.89362335205078 183.62039184570312,229.27496337890625" style="stroke: rgb(255, 255, 255); stroke-opacity: 1; stroke-width: 0px; fill: rgb(108, 85, 255); fill-opacity: 1;" transform="matrix(1,0,0,1,269.5677185058594,47.365699768066406)"></polygon>
      <polygon id="P-10-0ab037" points="5.2081451416015625,306.8037109375 -40.22930908203125,424.371337890625 -40.22129821777344,272.31060791015625" style="stroke: rgb(255, 255, 255); stroke-opacity: 1; stroke-width: 0px; fill: rgb(78, 50, 255); fill-opacity: 1;" transform="matrix(1,0,0,1,305.50390625,-30.164184570312443)"></polygon>
      <polygon id="P-9d-24dee7" points="479.71197509765625,255.40560913085938 409.4405517578125,389.87945556640625 337.2347412109375,255.4041748046875" style="stroke: rgb(255, 255, 255); stroke-opacity: 1; stroke-width: 0px; fill: rgb(93, 68, 255); fill-opacity: 1;" transform="matrix(1,0,0,1,-26.52288818359375,21.235351562500057)"></polygon>
      <polygon id="P-54-f7bc21" points="-66.99716186523438,255.40234375 -112.4345703125,372.97064208984375 5.208099365234375,389.87823486328125" style="stroke: rgb(255, 255, 255); stroke-opacity: 1; stroke-width: 0px; fill: rgb(65, 36, 255); fill-opacity: 1;" transform="matrix(1,0,0,1,377.7091979980469,21.237182617187557)"></polygon>
      <polygon id="P-8e-69c770" points="59.7978515625,255.402587890625 -12.9554443359375,389.8784484863281 103.1802978515625,372.9621887207031" style="stroke: rgb(255, 255, 255); stroke-opacity: 1; stroke-width: 0px; fill: rgb(64, 34, 255); fill-opacity: 1;" transform="matrix(1,0,0,1,700.1989746093751,21.237960815429744)"></polygon>
      <polygon id="P-0e-65d165" points="-418.2658996582031,451.0872497558594 -526.8482666015625,389.8772277832031 -455.6002197265625,480.2630615234375" style="stroke: rgb(255, 255, 255); stroke-opacity: 1; stroke-width: 0px; fill: rgb(58, 27, 255); fill-opacity: 1;" transform="matrix(1,0,0,1,1215.596923828125,-203.62251281738276)"></polygon>
      <polygon id="P-04-315118" points="-495.5630187988281,272.317626953125 -489.5139465332031,419.05303955078125 -532.8973388671875,301.4934387207031" style="stroke: rgb(255, 255, 255); stroke-opacity: 1; stroke-width: 0; fill: rgb(34, 0, 255); fill-opacity: 1;" transform="matrix(1,0,0,1,1292.89404296875,-24.8529052734375)"></polygon>
      <polygon id="P-5e-6028f3" points="339.0071258544922,229.27399063110352 419.18089294433594,138.8890037536621 490.4289245605469,229.27496337890625" style="stroke: rgb(255, 255, 255); stroke-opacity: 1; stroke-width: 0px; fill: rgb(108, 85, 255); fill-opacity: 1;" transform="matrix(1,0,0,1,269.5677185058594,47.365699768066406)"></polygon>
      <polygon id="P-4c-fd332b" points="181.8482666015625,255.40335083007812 109.094970703125,389.87921142578125 30.427001953125,255.402587890625" style="stroke: rgb(255, 255, 255); stroke-opacity: 1; stroke-width: 0px; fill: rgb(93, 68, 255); fill-opacity: 1;" transform="matrix(1,0,0,1,578.1485595703126,21.237182617187557)"></polygon>
      <polygon id="P-d4-d17455" points="203.34051513671875,48.8353271484375 332.7021484375,113.62953186035156 332.7003479003906,74.37451934814453" style="stroke: rgb(255, 255, 255); stroke-opacity: 1; stroke-width: 0; fill: rgb(31, 0, 231); fill-opacity: 1;" transform="matrix(1,0,0,1,197.29656982421875,681.1796875)"></polygon>
      <polygon id="P-42-44b033" points="39.227386474609375,-0.36499035358428955 -91.5740966796875,65.6074447631836 -91.57408905029297,26.377269744873047" style="stroke: rgb(255, 255, 255); stroke-opacity: 1; stroke-width: 0; fill: rgb(28, 0, 210); fill-opacity: 1;" transform="matrix(1,0,0,1,621.5709838867189,729.1769409179688)"></polygon>
      <polygon id="P-64-4573ac" points="195.24688720703125,-19.28466796875 111.05633544921875,129.977783203125 30.98736572265625,-19.9169921875" style="stroke: rgb(255, 255, 255); stroke-opacity: 1; stroke-width: 0px; fill: rgb(93, 68, 255); fill-opacity: 1;" transform="matrix(1,0,0,1,419.12322998046886,557.7005615234375)"></polygon>
      <polygon id="P-6d-48acc5" points="39.22772216796875,0.4892578721046448 -90.30908203125,65.30255126953125 -90.12744140625,26.66143798828125" style="stroke: rgb(255, 255, 255); stroke-opacity: 1; stroke-width: 0; fill: rgb(28, 0, 210); fill-opacity: 1;" transform="matrix(1,0,0,1,620.3070678710938,661.0169067382812)"></polygon>
      <polygon id="P-95-2759d7" points="203.15936279296875,47.9810791015625 333.24420166015625,113.3070068359375 333.42584228515625,74.6658935546875" style="stroke: rgb(255, 255, 255); stroke-opacity: 1; stroke-width: 0; fill: rgb(31, 0, 231); fill-opacity: 1;" transform="matrix(1,0,0,1,196.7537231445313,613.012451171875)"></polygon>
      <polygon id="P-48-b38514" points="-8.654296875,-21.159423828125 -92.8448486328125,128.10302734375 36.51031494140625,101.93084716796875" style="stroke: rgb(255, 255, 255); stroke-opacity: 1; stroke-width: 0px; fill: rgb(64, 34, 255); fill-opacity: 1;" transform="matrix(1,0,0,1,623.0244140625001,559.5753173828125)"></polygon>
      <polygon id="P-ec-44b37f" points="-209.49932861328125,-21.160888671875 -259.69683837890625,102.049072265625 -129.43035888671875,128.73388671875" style="stroke: rgb(255, 255, 255); stroke-opacity: 1; stroke-width: 0px; fill: rgb(65, 36, 255); fill-opacity: 1;" transform="matrix(1,0,0,1,659.6099243164064,558.9444580078125)"></polygon>
      <polygon id="P-39-46a50a" points="-213.07266235351562,487.75750732421875 -136.6778564453125,389.87603759765625 -259.5065612792969,452.48321533203125" style="stroke: rgb(255, 255, 255); stroke-opacity: 1; stroke-width: 0px; fill: rgb(98, 74, 255); fill-opacity: 1;" transform="matrix(1,0,0,1,666.6643066406251,-394.13513183593744)"></polygon>
      <polygon id="P-09-db9b37" points="42.65106201171875,47.49940490722656 119.04586791992188,-50.38206100463867 200.37277221679688,48.53501892089844" style="stroke: rgb(255, 255, 255); stroke-opacity: 1; stroke-width: 0px; fill: rgb(108, 85, 255); fill-opacity: 1;" transform="matrix(1,0,0,1,410.9405822753906,46.122970581054744)"></polygon>
      <polygon id="P-fc-a7821a" points="-486.688720703125,456.08660888671875 -611.5230712890625,389.87469482421875 -530.1961669921875,488.7917785644531" style="stroke: rgb(255, 255, 255); stroke-opacity: 1; stroke-width: 0px; fill: rgb(58, 27, 255); fill-opacity: 1;" transform="matrix(1,0,0,1,1141.509521484375,-394.1337890625)"></polygon>
    </g>
  </svg>
  <svg id="S-36-25f0c1" style="overflow: visible; pointer-events: all;" data-disabled="false" data-hidden="false">
    <polygon id="P-04-7eeede" points="41.14434814453125,229.2738494873047 260.42291259765625,-51.60403823852539 490.4289245605469,229.27496337890625" style="stroke: rgb(255, 255, 255); stroke-opacity: 1; stroke-width: 0; fill: rgb(108, 85, 255); fill-opacity: 1;" transform="matrix(1,0,0,1,1121.7124633789062,47.363574981675015)"></polygon>
    <polygon id="P-95-ab8011" points="-126.05316162109375,670.7745971679688 93.22540283203125,389.8966979980469 -259.50653076171875,569.6585693359375" style="stroke: rgb(212, 212, 116); stroke-opacity: 1; stroke-width: 0; fill: rgb(98, 74, 255); fill-opacity: 1;" transform="matrix(1,0,0,1,1288.9099731445312,-394.1371726989891)"></polygon>
    <polygon id="P-8a-ce7072" points="-213.80670166015625,487.8951110839844 -136.67376708984375,389.8967590332031 -259.5065612792969,452.48321533203125" style="stroke: rgb(255, 255, 255); stroke-opacity: 1; stroke-width: 0px; fill: rgb(240, 240, 0); fill-opacity: 1;" transform="matrix(1,0,0,1,1518.8091430664067,-394.1372337341453)"></polygon>
    <polygon id="P-6a-603ff0" points="41.91717529296875,47.63704299926758 119.05010986328125,-50.36130905151367 199.91595458984375,48.38811111450195" style="stroke: rgb(255, 255, 255); stroke-opacity: 1; stroke-width: 0px; fill: rgb(255, 255, 0); fill-opacity: 1;" transform="matrix(1,0,0,1,1263.0852661132817,46.120845794663296)"></polygon>
    <polygon id="P-eb-4fba41" points="-259.50592041015625,576.40869140625 -611.5184936523438,389.8956298828125 -381.51251220703125,670.7745361328125" style="stroke: rgb(212, 212, 116); stroke-opacity: 1; stroke-width: 0; fill: rgb(58, 27, 255); fill-opacity: 1;" transform="matrix(1,0,0,1,1993.6538696289067,-394.1361045837547)"></polygon>
    <polygon id="P-ec-e2855b" points="-486.688720703125,456.08660888671875 -611.5187377929688,389.8954162597656 -530.6561889648438,488.644775390625" style="stroke: rgb(255, 255, 255); stroke-opacity: 1; stroke-width: 0px; fill: rgb(217, 217, 0); fill-opacity: 1;" transform="matrix(1,0,0,1,1993.6541137695312,-394.13589096070785)"></polygon>
    <polygon id="P-32-585bd1" points="93.22406005859375,149.94308471679688 -39.93133544921875,491.43865966796875 -40.22930908203125,48.82708740234375" style="stroke: rgb(212, 212, 116); stroke-opacity: 1; stroke-width: 0; fill: rgb(78, 50, 255); fill-opacity: 1;" transform="matrix(1,0,0,1,1069.6327514648438,126.69433975218283)"></polygon>
    <polygon id="P-ea-c26f19" points="4.043205261230469,92.15870666503906 -29.53840446472168,189.74705505371094 -29.67053985595703,66.78985595703125" style="stroke: rgb(255, 255, 255); stroke-opacity: 1; stroke-width: 0px; fill: rgb(219, 219, 0); fill-opacity: 1;" transform="matrix(1,0,0,1,1058.8053588867188,108.73493576048361)"></polygon>
    <polygon id="P-41-6c5372" points="-198.9666290283203,462.5641174316406 -149.9974822998047,395.3181457519531 -232.67898559570312,437.1952819824219" style="stroke: rgb(255, 255, 255); stroke-opacity: 1; stroke-width: 0px; fill: rgb(240, 240, 0); fill-opacity: 1;" transform="matrix(1,0,0,1,1261.8137817382812,-261.67049789430155)"></polygon>
    <polygon id="P-03-aea871" points="479.71197509765625,-21.291412353515625 249.71136474609375,389.87945556640625 30.42718505859375,-21.29239273071289" style="stroke: rgb(249, 249, 249); stroke-opacity: 1; stroke-width: 0; fill: rgb(93, 68, 255); fill-opacity: 1;" transform="matrix(1,0,0,1,1132.4296264648438,297.9298133849953)"></polygon>
    <polygon id="P-a2-c66deb" points="138.4207763671875,-21.29241943359375 -91.579833984375,389.8784484863281 260.42755126953125,318.52972412109375" style="stroke: rgb(194, 194, 55); stroke-opacity: 1; stroke-width: 0; fill: rgb(64, 34, 255); fill-opacity: 1;" transform="matrix(1,0,0,1,1473.7207641601562,297.9308509826516)"></polygon>
    <polygon id="P-13-12e0d2" points="-126.79119873046875,-21.29361343383789 -259.94659423828125,320.20196533203125 92.4930419921875,389.87823486328125" style="stroke: rgb(212, 212, 116); stroke-opacity: 1; stroke-width: 0; fill: rgb(65, 36, 255); fill-opacity: 1;" transform="matrix(1,0,0,1,1289.6480102539062,297.93103408812055)"></polygon>
    <polygon id="P-1b-52d5dd" points="-67.00506591796875,480.2583923339844 3.85650634765625,389.7201232910156 -112.43521118164062,445.7652893066406" style="stroke: rgb(255, 255, 255); stroke-opacity: 1; stroke-width: 0px; fill: rgb(240, 240, 0); fill-opacity: 1;" transform="matrix(1,0,0,1,1229.8618774414062,-203.62096786500467)"></polygon>
    <polygon id="P-cf-82c7d3" points="41.14434814453125,229.2738494873047 112.00592041015625,138.73558044433594 183.62039184570312,229.27496337890625" style="stroke: rgb(255, 255, 255); stroke-opacity: 1; stroke-width: 0px; fill: rgb(255, 255, 0); fill-opacity: 1;" transform="matrix(1,0,0,1,1121.7124633789062,47.363574981675015)"></polygon>
    <polygon id="P-44-f29897" points="5.20819091796875,306.8037414550781 -40.22930908203125,424.371337890625 -40.22129821777344,272.31060791015625" style="stroke: rgb(255, 255, 255); stroke-opacity: 1; stroke-width: 0px; fill: rgb(219, 219, 0); fill-opacity: 1;" transform="matrix(1,0,0,1,1157.6486206054688,-30.166316986098423)"></polygon>
    <polygon id="P-71-2dde58" points="479.71197509765625,255.40560913085938 408.89349365234375,389.8797607421875 337.23492431640625,255.40420532226562" style="stroke: rgb(255, 255, 255); stroke-opacity: 1; stroke-width: 0px; fill: rgb(233, 233, 0); fill-opacity: 1;" transform="matrix(1,0,0,1,825.6218872070312,21.233219146714077)"></polygon>
    <polygon id="P-ed-f670e0" points="-66.99725341796875,255.40237426757812 -112.4345703125,372.97064208984375 4.66131591796875,389.8779296875" style="stroke: rgb(255, 255, 255); stroke-opacity: 1; stroke-width: 0px; fill: rgb(199, 199, 0); fill-opacity: 1;" transform="matrix(1,0,0,1,1229.8540649414062,21.235050201401577)"></polygon>
    <polygon id="P-be-24f889" points="339.0071258544922,229.27399063110352 417.48973083496094,138.8890037536621 490.4289245605469,229.27496337890625" style="stroke: rgb(255, 255, 255); stroke-opacity: 1; stroke-width: 0px; fill: rgb(255, 255, 0); fill-opacity: 1;" transform="matrix(1,0,0,1,1121.7124633789062,47.363574981675015)"></polygon>
    <polygon id="P-44-9dab76" points="181.8482666015625,255.40335083007812 106.77154541015625,389.72425270080566 30.427001953125,255.402587890625" style="stroke: rgb(255, 255, 255); stroke-opacity: 1; stroke-width: 0px; fill: rgb(233, 233, 0); fill-opacity: 1;" transform="matrix(1,0,0,1,1430.2932739257817,21.235050201401577)"></polygon>
    <polygon id="P-cc-28ed75" points="260.43341064453125,-0.3649940490722656 -91.57183837890625,177.57257080078125 -91.5740966796875,70.98370361328125" style="stroke: rgb(181, 181, 0); stroke-opacity: 1; stroke-width: 0; fill: rgb(28, 0, 210); fill-opacity: 1;" transform="matrix(1,0,0,1,1473.7149047851562,616.8255653381201)"></polygon>
    <polygon id="P-80-46a2ac" points="202.90740966796875,49.279720306396484 555.3490600585938,225.54486083984375 555.3470458984375,118.9560546875" style="stroke: rgb(181, 181, 0); stroke-opacity: 1; stroke-width: 0; fill: rgb(31, 0, 231); fill-opacity: 1;" transform="matrix(1,0,0,1,826.7940063476565,568.8532752990578)"></polygon>
    <polygon id="P-f4-96e7da" points="-489.51422119140625,49.881587982177734 -489.51385498046875,484.069580078125 -611.5209350585938,144.24740600585938" style="stroke: rgb(212, 212, 116); stroke-opacity: 1; stroke-width: 0; fill: rgb(34, 0, 255); fill-opacity: 1;" transform="matrix(1,0,0,1,2223.6621704101562,132.39099502562033)"></polygon>
    <polygon id="P-ce-be190f" points="0.37774658203125,130.17971801757812 -91.57159423828125,177.176025390625 -91.5740966796875,147.09649658203125" style="stroke: rgb(255, 255, 255); stroke-opacity: 1; stroke-width: 0; fill: rgb(148, 148, 0); fill-opacity: 1;" transform="matrix(1,0,0,1,1733.7705688476562,486.2808570861672)"></polygon>
    <polygon id="P-62-800457" points="-38.59490966796875,33.1395263671875 -91.579833984375,154.56838989257812 0.37188720703125,137.651611328125" style="stroke: rgb(255, 255, 255); stroke-opacity: 1; stroke-width: 0px; fill: rgb(174, 174, 0); fill-opacity: 1;" transform="matrix(1,0,0,1,1733.7764282226562,478.8089637756203)"></polygon>
    <polygon id="P-cf-5b1b64" points="447.27069091796875,169.48748779296875 556.215576171875,224.25946044921875 555.6055908203125,191.15655517578125" style="stroke: rgb(255, 255, 255); stroke-opacity: 1; stroke-width: 0; fill: rgb(168, 168, 0); fill-opacity: 1;" transform="matrix(1,0,0,1,582.4307250976562,448.6455116271826)"></polygon>
    <polygon id="P-d5-52f1d1" points="93.35903930664062,90.48312377929688 51.04522705078125,196.66583251953125 51.12255859375,47.93817138671875" style="stroke: rgb(255, 255, 255); stroke-opacity: 1; stroke-width: 0px; fill: rgb(219, 219, 0); fill-opacity: 1;" transform="matrix(1,0,0,1,978.6561889648438,421.4671669006203)"></polygon>
    <polygon id="P-82-c9652d" points="27.3382568359375,26.71356201171875 -14.97552490234375,132.89630126953125 93.35903930664062,154.56536865234375" style="stroke: rgb(255, 255, 255); stroke-opacity: 1; stroke-width: 0px; fill: rgb(199, 199, 0); fill-opacity: 1;" transform="matrix(1,0,0,1,1044.6769409179688,485.2366981506203)"></polygon>
    <polygon id="P-05-9d71b2" points="-519.5715942382812,438.4588928222656 -611.52001953125,389.8305358886719 -551.9072875976562,463.250244140625" style="stroke: rgb(255, 255, 255); stroke-opacity: 1; stroke-width: 0px; fill: rgb(217, 217, 0); fill-opacity: 1;" transform="matrix(1,0,0,1,2253.7195434570317,-256.1863059997704)"></polygon>
    <polygon id="P-65-dc4e21" points="59.7978515625,255.402587890625 -15.27899169921875,389.7234592437744 101.95343017578125,373.15110778808594" style="stroke: rgb(255, 255, 255); stroke-opacity: 1; stroke-width: 0px; fill: rgb(174, 174, 0); fill-opacity: 1;" transform="matrix(1,0,0,1,1552.3438110351567,21.235828399643765)"></polygon>
    <polygon id="P-83-a568bf" points="-418.2658996582031,451.0872497558594 -528.5399169921875,389.8772277832031 -455.6002197265625,480.2630615234375" style="stroke: rgb(255, 255, 255); stroke-opacity: 1; stroke-width: 0px; fill: rgb(217, 217, 0); fill-opacity: 1;" transform="matrix(1,0,0,1,2067.7415161132817,-203.62462997437967)"></polygon>
    <polygon id="P-fd-19c6d4" points="-495.5630187988281,272.317626953125 -490.74249267578125,419.2419891357422 -532.8973388671875,301.4934387207031" style="stroke: rgb(255, 255, 255); stroke-opacity: 1; stroke-width: 0; fill: rgb(160, 160, 0); fill-opacity: 1;" transform="matrix(1,0,0,1,2145.0386352539067,-24.855037689223423)"></polygon>
    <polygon id="P-6d-d11ce8" points="195.24688720703125,-19.28466796875 111.05633544921875,129.977783203125 30.98736572265625,-19.9169921875" style="stroke: rgb(255, 255, 255); stroke-opacity: 1; stroke-width: 0px; fill: rgb(233, 233, 0); fill-opacity: 1;" transform="matrix(1,0,0,1,1271.2678833007812,557.6984291076516)"></polygon>
    <polygon id="P-67-99de5a" points="-8.654296875,-21.159423828125 -92.8448486328125,128.10302734375 36.51031494140625,101.93084716796875" style="stroke: rgb(255, 255, 255); stroke-opacity: 1; stroke-width: 0px; fill: rgb(174, 174, 0); fill-opacity: 1;" transform="matrix(1,0,0,1,1475.1690063476567,559.5731849670266)"></polygon>
    <polygon id="P-12-7bde95" points="-209.49932861328125,-21.160888671875 -259.69683837890625,102.6396484375 -129.43035888671875,128.73388671875" style="stroke: rgb(255, 255, 255); stroke-opacity: 1; stroke-width: 0px; fill: rgb(199, 199, 0); fill-opacity: 1;" transform="matrix(1,0,0,1,1511.7546997070317,558.9423255920266)"></polygon>
    <polygon id="P-9b-5cf6fb" points="-572.5537109375,50.0550537109375 -573.0206909179688,197.1109619140625 -611.9878540039062,92.59884643554688" style="stroke: rgb(255, 255, 255); stroke-opacity: 1; stroke-width: 0; fill: rgb(160, 160, 0); fill-opacity: 1;" transform="matrix(1,0,0,1,2307.169006347656,419.3496131896828)"></polygon>
    <polygon id="P-1b-6865c7" points="-579.1851196289062,50.228511810302734 -579.1838989257812,166.43540954589844 -611.5209350585938,75.0198974609375" style="stroke: rgb(255, 255, 255); stroke-opacity: 1; stroke-width: 0; fill: rgb(160, 160, 0); fill-opacity: 1;" transform="matrix(1,0,0,1,2313.3330688476562,132.04407119749533)"></polygon>
    <polygon id="P-1e-5f01c9" points="203.34051513671875,48.8353271484375 332.70172119140625,113.2205810546875 332.7003479003906,74.37451934814453" style="stroke: rgb(255, 255, 255); stroke-opacity: 1; stroke-width: 0; fill: rgb(168, 168, 0); fill-opacity: 1;" transform="matrix(1,0,0,1,1049.4413452148438,681.1775550842141)"></polygon>
    <polygon id="P-0f-f3ef87" points="39.305267333984375,-1.1450196504592896 -91.57257080078125,65.22332763671875 -91.57408905029297,26.377269744873047" style="stroke: rgb(255, 255, 255); stroke-opacity: 1; stroke-width: 0; fill: rgb(148, 148, 0); fill-opacity: 1;" transform="matrix(1,0,0,1,1473.7156372070312,729.1748085021828)"></polygon>
    <polygon id="P-8a-dad01d" points="39.22772216796875,0.4892578721046448 -90.30908203125,65.30255126953125 -90.12744140625,26.66143798828125" style="stroke: rgb(255, 255, 255); stroke-opacity: 1; stroke-width: 0; fill: rgb(148, 148, 0); fill-opacity: 1;" transform="matrix(1,0,0,1,1472.4517211914067,661.0147743224956)"></polygon>
    <polygon id="P-92-868083" points="203.15936279296875,48.5716552734375 333.24420166015625,113.3070068359375 333.42584228515625,74.6658935546875" style="stroke: rgb(255, 255, 255); stroke-opacity: 1; stroke-width: 0; fill: rgb(168, 168, 0); fill-opacity: 1;" transform="matrix(1,0,0,1,1048.8983764648438,613.0103187560891)"></polygon>
  </svg>
  <defs id="SvgjsDefs1195"></defs>
</svg>