<svg width="100%" height="100%" version="1.1" 
  xmlns="http://www.w3.org/2000/svg" 
  xmlns:xlink="http://www.w3.org/1999/xlink" 
  xmlns:svgjs="http://svgjs.com/svgjs" 
style="stroke-linecap: round; stroke-linejoin: round; stroke-miterlimit: 20; background: rgba(163, 0, 0, 1);"
viewBox="-3586.456777978516 -3133.459377441406 6061.458477832032 3651.4810107421877">
  <g id="G-39-950ede" transform="matrix(1,0,0,1,0,4.547473508864641e-13)">
    <polygon id="P-b5-790f31" points="-2960.0146484375,1569.585205078125 -3337.482177734375,1845.658935546875 -3716.583251953125,1572.3321533203125 -3573.574951171875,1127.2908935546875 -3106.117919921875,1125.7601318359375" style="stroke: rgb(244, 244, 219); stroke-opacity: 1; stroke-width: 0; fill: rgb(120, 105, 237); fill-opacity: 1;" class="" transform="matrix(1,0,0,1,2785.078735351563,-2748.4162597656255)"></polygon>
    <polygon id="P-d8-56e3a8" points="-2668.985595703125,127.68212890625 -2841.381103515625,670.1805419921875 -3037.656005859375,742.079345703125 -3062.651611328125,301.3563232421875 -2789.5791015625,-38.907958984375" style="stroke: rgb(244, 244, 219); stroke-opacity: 1; stroke-width: 0; fill: rgb(61, 55, 118); fill-opacity: 1;" class="" transform="matrix(1,0,0,1,3149.988403320313,-1394.6737060546877)"></polygon>
    <polygon id="P-30-f27800" points="-2201.14697265625,131.00601196289062 -2323.274658203125,296.8733825683594 -2892.197021484375,298.12359619140625 -3020.5478515625,133.08438110351562 -2608.314208984375,-25.38568115234375" style="stroke: rgb(244, 244, 219); stroke-opacity: 1; stroke-width: 0; fill: rgb(51, 47, 100); fill-opacity: 1;" class="" transform="matrix(1,0,0,1,2056.924682617188,-602.317016601563)"></polygon>
    <polygon id="P-52-562759" points="-2086.382080078125,292.2239990234375 -2107.003662109375,727.8387451171875 -2302.522216796875,664.01025390625 -2482.259765625,123.8450927734375 -2365.89892578125,-49.96630859375" style="stroke: rgb(244, 244, 219); stroke-opacity: 1; stroke-width: 0; fill: rgb(75, 67, 144); fill-opacity: 1;" class="" transform="matrix(1,0,0,1,893.5880737304683,-1382.4174804687505)"></polygon>
    <polygon id="P-ae-d3f854" points="-2464.826904296875,781.3427734375 -2456.695556640625,990.176025390625 -2884.051513671875,878.608154296875 -3123.53515625,513.859619140625 -2927.927734375,450.43017578125" style="stroke: rgb(244, 244, 219); stroke-opacity: 1; stroke-width: 0; fill: rgb(75, 69, 147); fill-opacity: 1;" class="" transform="matrix(1,0,0,1,2721.718139648437,-2727.0827636718755)"></polygon>
    <polygon id="P-98-709946" points="-2051.364013671875,508.551513671875 -2292.566512003933,879.4842903474761 -2713.379150390625,991.5006103515625 -2711.958984375,785.8260498046875 -2252.240966796875,450.351806640625" style="stroke: rgb(244, 244, 219); stroke-opacity: 1; stroke-width: 0; fill: rgb(104, 92, 197); fill-opacity: 1;" class="" transform="matrix(1,0,0,1,1342.7868652343745,-2718.4580078125005)"></polygon>
  </g>
  <g id="G-de-952e96" transform="matrix(1,0,0,1,0,4.547473508864641e-13)">
    <polygon id="P-91-f240b3" points="-3305.76171875,341.19622802734375 -3394.902099609375,-108.08778985477004 -3226.50439453125,-163.56585693359375 -2847.4033203125,109.76092529296875 -2846.6282639614906,287.1555789566854" style="stroke: rgb(244, 244, 219); stroke-opacity: 1; stroke-width: 0; fill: rgb(104, 92, 197); fill-opacity: 1;" class="" transform="matrix(0.9999999999999999,0,0,0.9999999999999999,2294.999877929687,-1012.5182495117183)"></polygon>
    <polygon id="P-be-a02097" points="-3149.974853515625,349.3794272383718 -3343.81396484375,-69.89459228515625 -2942.518310546875,-292.29107666015625 -2838.569091796875,-151.14154052734375 -2981.577392578125,293.89971923828125" style="stroke: rgb(244, 244, 219); stroke-opacity: 1; stroke-width: 0; fill: rgb(90, 81, 174); fill-opacity: 1;" class="" transform="matrix(0.9999999999999999,0,0,0.9999999999999999,2050.072875976563,-1469.9838256835933)"></polygon>
    <polygon id="P-89-20e88c" points="-2638.5888671875,97.87188720703125 -2742.5380859375,-43.27764892578125 -2403.83642578125,-358.34161376953125 -2068.408935546875,-48.87469482421875 -2171.1318359375,96.34112548828125" style="stroke: rgb(244, 244, 219); stroke-opacity: 1; stroke-width: 0; fill: rgb(67, 62, 133); fill-opacity: 1;" class="" transform="matrix(0.9999999999999999,0,0,0.9999999999999999,1850.0927734374995,-1718.9972534179685)"></polygon>
    <polygon id="P-04-b4b409" points="-3250.7205073244136,652.5506578272934 -3251.4951171875,475.15545654296875 -2874.027587890625,199.08172607421875 -2705.182373046875,253.94256591796875 -2794.949951171875,707.9873046875" style="stroke: rgb(244, 244, 219); stroke-opacity: 1; stroke-width: 0; fill: rgb(130, 113, 255); fill-opacity: 1;" class="" transform="matrix(0.9999999999999999,0,0,0.9999999999999999,2699.091674804687,-1377.9127807617183)"></polygon>
    <polygon id="P-70-e5f399" points="-2824.266357421875,715.7826538085938 -2970.369384765625,271.95758056640625 -2867.646728515625,126.74176025390625 -2463.391845703125,352.87921142578125 -2655.421142578125,770.6434936523438" style="stroke: rgb(244, 244, 219); stroke-opacity: 1; stroke-width: 0; fill: rgb(104, 92, 197); fill-opacity: 1;" class="" transform="matrix(0.9999999999999999,0,0,0.9999999999999999,2649.330444335937,-1894.6137084960933)"></polygon>
    <polygon id="P-f4-1b6a80" points="-2782.2451171875,-80.16580200195312 -3169.889404296875,-4.239097595214844 -3282.2958984375,-161.51272583007812 -3160.168212890625,-327.3800964355469 -2949.356201171875,-304.5649719238281" style="stroke: rgb(244, 244, 219); stroke-opacity: 1; stroke-width: 0; fill: rgb(61, 55, 118); fill-opacity: 1;" class="" transform="matrix(0.9999999999999999,0,0,0.9999999999999999,3015.945861816406,-143.93090724945068)"></polygon>
    <polygon id="P-04-85f4f9" points="-2444.41064453125,-107.18269348144531 -2838.6527994626254,56.26905078782744 -3234.5546875,-105.2840576171875 -3125.727783203125,-263.2059020996094 -2556.8056640625,-264.45611572265625" style="stroke: rgb(244, 244, 219); stroke-opacity: 1; stroke-width: 0; fill: rgb(75, 67, 144); fill-opacity: 1;" class="" transform="matrix(0.9999999999999999,0,0,0.9999999999999999,2290.455627441406,-40.98752498626709)"></polygon>
    <polygon id="P-bd-de66d5" points="-2108.6025390625,-162.83155822753906 -2217.41845703125,-4.9099884033203125 -2605.543701171875,-79.29911804199219 -2443.822265625,-307.6229248046875 -2236.95361328125,-327.87078857421875" style="stroke: rgb(244, 244, 219); stroke-opacity: 1; stroke-width: 0; fill: rgb(61, 55, 118); fill-opacity: 1;" class="" transform="matrix(0.9999999999999999,0,0,0.9999999999999999,1273.3303833007808,-141.36186122894287)"></polygon>
    <polygon id="P-42-5df9f6" points="-2660.61572265625,426.6142883300781 -2871.427734375,403.7991638183594 -3278.5947265625,247.40748596191406 -3278.660888671875,149.5632781982422 -2823.063720703125,205.18470764160156" style="stroke: rgb(244, 244, 219); stroke-opacity: 1; stroke-width: 0; fill: rgb(45, 40, 86); fill-opacity: 1;" class="" transform="matrix(0.9999999999999999,0,0,0.9999999999999999,2727.205383300781,-875.1101827621455)"></polygon>
    <polygon id="P-b0-6a2250" points="-2273.889892578125,238.78334045410156 -2686.12353515625,397.2533874511719 -2892.992431640625,417.5012512207031 -2733.262451171875,195.1640167236328 -2273.9553834648436,140.9380340576172" style="stroke: rgb(244, 244, 219); stroke-opacity: 1; stroke-width: 0; fill: rgb(45, 40, 86); fill-opacity: 1;" class="" transform="matrix(0.9999999999999999,0,0,0.9999999999999999,1722.5004272460942,-866.486037254333)"></polygon>
    <polygon id="P-1d-537c78" points="-3290.10400390625,-87.72743225097656 -3020.546630859375,-375.7376403808594 -2837.283447265625,-314.1711730957031 -2838.70361328125,-108.49659729003906 -3023.01513671875,-4.3975982666015625" style="stroke: rgb(244, 244, 219); stroke-opacity: 1; stroke-width: 0; fill: rgb(111, 97, 219); fill-opacity: 1;" class="" transform="matrix(1,0,0,1,1468.1112060546875,-1618.4608001708984)"></polygon>
    <polygon id="P-e0-57efc8" points="-3157.489990234375,130.2252655029297 -2934.4111328125,-233.61415100097656 -2519.103759765625,-335.3863525390625 -2514.51806640625,-143.67593383789062 -2974.236328125,191.79830932617188" style="stroke: rgb(244, 244, 219); stroke-opacity: 1; stroke-width: 0; fill: rgb(120, 105, 237); fill-opacity: 1;" class="" transform="matrix(1,0,0,1,1605.06396484375,-2124.4302673339844)"></polygon>
    <polygon id="P-f1-c365b7" points="-2559.152587890625,-23.787261962890625 -2563.7470703125,-215.49093627929688 -2208.451171875,-386.4002990722656 -2205.01708984375,-106.62490844726562 -2358.275634765625,34.412445068359375" style="stroke: rgb(244, 244, 219); stroke-opacity: 1; stroke-width: 0; fill: rgb(81, 76, 161); fill-opacity: 1;" class="" transform="matrix(1,0,0,1,1649.6983642578125,-2244.3189392089844)"></polygon>
    <polygon id="P-fd-9dc10d" points="-3305.84521484375,357.1245422363281 -3121.53369140625,253.02552795410156 -2700.15380859375,140.22100830078125 -2643.38671875,217.70803833007812 -3044.682373046875,440.1045227050781" style="stroke: rgb(244, 244, 219); stroke-opacity: 1; stroke-width: 0; fill: rgb(81, 76, 161); fill-opacity: 1;" class="" transform="matrix(1,0,0,1,1750.9412841796875,-1979.9829330444336)"></polygon>
    <polygon id="P-f5-a6ac2f" points="-2809.933837890625,496.4217834472656 -2569.333984375,126.2208480834961 -2416.075439453125,-14.816505432128906 -2414.50048828125,258.7884826660156 -2753.2021484375,573.8524169921875" style="stroke: rgb(244, 244, 219); stroke-opacity: 1; stroke-width: 0; fill: rgb(75, 67, 144); fill-opacity: 1;" class="" transform="matrix(1,0,0,1,1860.7567749023438,-2336.127342224121)"></polygon>
    <polygon id="P-07-ae74a8" points="-3184.370361328125,-379.0587158203125 -2831.09521484375,-218.2493438720703 -2831.8271484375,-24.992080688476562 -3027.434326171875,38.43736267089844 -3180.93603515625,-99.28334045410156" style="stroke: rgb(244, 244, 219); stroke-opacity: 1; stroke-width: 0; fill: rgb(67, 62, 133); fill-opacity: 1;" class="" transform="matrix(1,0,0,1,2625.617401123047,-2251.6605072021484)"></polygon>
    <polygon id="P-85-2e4498" points="-3162.156982421875,-332.188232421875 -2746.5712890625,-235.0699462890625 -2519.1630859375,127.03933715820312 -2699.797119140625,191.97470092773438 -3162.89794921875,-138.93789672851562" style="stroke: rgb(244, 244, 219); stroke-opacity: 1; stroke-width: 0; fill: rgb(104, 92, 197); fill-opacity: 1;" class="" transform="matrix(1,0,0,1,2956.688301086426,-2137.7146911621094)"></polygon>
    <polygon id="P-67-75db28" points="-2555.758544921875,-313.7168273925781 -2375.13330078125,-378.6584167480469 -2102.11181640625,-87.29812622070312 -2366.913330078125,3.051727294921875 -2547.626953125,-104.88357543945312" style="stroke: rgb(244, 244, 219); stroke-opacity: 1; stroke-width: 0; fill: rgb(120, 105, 237); fill-opacity: 1;" class="" transform="matrix(1,0,0,1,2812.649658203125,-1632.0231628417969)"></polygon>
    <polygon id="P-53-e066b4" points="-3139.527099609375,-2.8793716430664062 -2986.025390625,134.84132385253906 -2746.5419921875,499.5898742675781 -2802.524658203125,580.1925048828125 -3137.9521484375,270.7256164550781" style="stroke: rgb(244, 244, 219); stroke-opacity: 1; stroke-width: 0; fill: rgb(61, 55, 118); fill-opacity: 1;" class="" transform="matrix(1,0,0,1,2584.20849609375,-2348.0644760131836)"></polygon>
    <polygon id="P-c2-da59b7" points="-2859.966064453125,134.18263244628906 -2432.610107421875,245.75050354003906 -2251.896240234375,353.6858215332031 -2511.69384765625,440.9227600097656 -2915.94873046875,214.78530883789062" style="stroke: rgb(244, 244, 219); stroke-opacity: 1; stroke-width: 0; fill: rgb(67, 62, 133); fill-opacity: 1;" class="" transform="matrix(1,0,0,1,2697.6325759887695,-1982.6572494506836)"></polygon>
    <polygon id="P-04-936f18" points="-3039.475341796875,98.69682312011719 -3230.60205078125,-243.28111267089844 -3116.1962890625,-399.0494384765625 -2920.677490234375,-335.220947265625 -2877.75390625,-129.62696838378906" style="stroke: rgb(244, 244, 219); stroke-opacity: 1; stroke-width: 0; fill: rgb(120, 105, 237); fill-opacity: 1;" class="" transform="matrix(1,0,0,1,1707.261962890625,-319.35780334472656)"></polygon>
    <polygon id="P-56-eb7580" points="-2712.812744140625,270.011962890625 -2991.6162109375,-53.11643600463867 -2962.318359375,-479.7067565917969 -2778.14111328125,-425.9104919433594 -2598.403564453125,114.25466918945312" style="stroke: rgb(244, 244, 219); stroke-opacity: 1; stroke-width: 0; fill: rgb(104, 92, 197); fill-opacity: 1;" class="" transform="matrix(1,0,0,1,1189.4693603515625,-832.6618957519531)"></polygon>
    <polygon id="P-64-5f8f76" points="-2282.02001953125,69.98422241210938 -2466.19384765625,16.19798469543457 -2515.34130859375,-377.6316223144531 -2248.252197265625,-294.3017883300781 -2165.6591796875,-103.82717895507812" style="stroke: rgb(244, 244, 219); stroke-opacity: 1; stroke-width: 0; fill: rgb(67, 62, 133); fill-opacity: 1;" class="" transform="matrix(1,0,0,1,693.348388671875,-1328.5566101074219)"></polygon>
    <polygon id="P-e6-960f11" points="-3007.623046875,625.38623046875 -3050.54638671875,419.7922668457031 -3029.925048828125,-15.822486877441406 -2936.81494140625,-46.7441520690918 -2847.89306640625,403.0489807128906" style="stroke: rgb(244, 244, 219); stroke-opacity: 1; stroke-width: 0; fill: rgb(90, 81, 174); fill-opacity: 1;" class="" transform="matrix(1,0,0,1,1837.1309814453125,-1074.370994567871)"></polygon>
    <polygon id="P-37-756ff2" points="-2447.0107421875,561.9671630859375 -2726.52734375,219.77687072753906 -2809.120361328125,29.302268981933594 -2547.95751953125,112.2822494506836 -2353.8994140625,531.0454711914062" style="stroke: rgb(244, 244, 219); stroke-opacity: 1; stroke-width: 0; fill: rgb(61, 55, 118); fill-opacity: 1;" class="" transform="matrix(1,0,0,1,1254.216552734375,-1652.1606674194336)"></polygon>
    <polygon id="P-23-9ebba2" points="-2876.8193359375,-381.536865234375 -2922.27001953125,12.045910835266113 -3106.354248046875,70.79283142089844 -3226.94775390625,-95.79725646972656 -3141.62060546875,-291.18701171875" style="stroke: rgb(244, 244, 219); stroke-opacity: 1; stroke-width: 0; fill: rgb(51, 47, 100); fill-opacity: 1;" class="" transform="matrix(1,0,0,1,3587.3569946289062,-1337.784408569336)"></polygon>
    <polygon id="P-6a-450c5c" points="-2721.81787109375,-481.3692626953125 -2686.39208984375,-56.05952453613281 -2960.992919921875,271.70880126953125 -3078.2939453125,119.86526489257812 -2905.8984375,-422.6331481933594" style="stroke: rgb(244, 244, 219); stroke-opacity: 1; stroke-width: 0; fill: rgb(81, 76, 161); fill-opacity: 1;" class="" transform="matrix(1,0,0,1,3386.9012451171875,-844.3584289550781)"></polygon>
    <polygon id="P-56-4e5731" points="-2277.51318359375,-401.3528137207031 -2160.208984375,-249.519775390625 -2352.419921875,99.04364013671875 -2519.531005859375,-125.35552978515625 -2473.788330078125,-329.4540100097656" style="stroke: rgb(244, 244, 219); stroke-opacity: 1; stroke-width: 0; fill: rgb(75, 67, 144); fill-opacity: 1;" class="" transform="matrix(1,0,0,1,2586.120620727539,-323.1403503417969)"></polygon>
    <polygon id="P-a1-cebab2" points="-2745.434814453125,32.027610778808594 -2830.761962890625,227.41737365722656 -3103.834228515625,567.681640625 -3197.261962890625,537.02880859375 -3005.232666015625,119.2645492553711" style="stroke: rgb(244, 244, 219); stroke-opacity: 1; stroke-width: 0; fill: rgb(45, 40, 86); fill-opacity: 1;" class="" transform="matrix(1,0,0,1,3191.1712341308594,-1660.9990463256836)"></polygon>
    <polygon id="P-00-2859c3" points="-2529.001953125,-26.998390197753906 -2504.00634765625,413.7246398925781 -2549.749267578125,617.8231201171875 -2712.197265625,396.3935241699219 -2622.429443359375,-57.651222229003906" style="stroke: rgb(244, 244, 219); stroke-opacity: 1; stroke-width: 0; fill: rgb(51, 47, 100); fill-opacity: 1;" class="" transform="matrix(1,0,0,1,2616.3388175964355,-1066.318992614746)"></polygon>
  </g>
  <defs id="SvgjsDefs22658"></defs>
</svg>