<svg width="100%" height="100%" version="1.1" 
  xmlns="http://www.w3.org/2000/svg" 
  xmlns:xlink="http://www.w3.org/1999/xlink" 
  xmlns:svgjs="http://svgjs.com/svgjs" 
style="stroke-linecap: round; stroke-linejoin: round; stroke-miterlimit: 20; background: rgba(0, 0, 0, 1);"
viewBox="-4625.149459060669 -1878.6710304260255 16278.749632232666 9806.47568206787">
  <polygon id="P-2e-af9bad" points="500.8263854980469,4.9359588623046875 999.5000610351562,868.2628784179688 500.1639099121094,1730.8330078125 -0.49934160709381104,864.8034057617188" style="stroke: rgb(255, 255, 255); stroke-opacity: 1; stroke-width: 0; fill: rgb(128, 0, 0); fill-opacity: 1;" transform="matrix(1,0,0,1,1014.7238304337377,3454.4006729125977)"></polygon>
  <polygon id="P-50-b469e7" points="1621.58203125,650.1799926757812 1120.2557373046875,1510.047119140625 120.25541687011719,1510.0472412109375 1120.9207763671875,-214.06568908691406" style="stroke: rgb(255, 255, 255); stroke-opacity: 1; stroke-width: 0px; fill: rgb(192, 0, 0); fill-opacity: 1;" transform="matrix(1,0,0,1,-106.02931174432092,2809.1552200317383)"></polygon>
  <polygon id="P-9b-81d794" points="2623.510498046875,1082.746337890625 3125.499267578125,1948.7598876953125 123.50358581542969,1948.765869140625 -875.832763671875,216.71485900878906 123.50105285644531,216.71023559570312 624.1668701171875,1082.741943359375" style="stroke: rgb(255, 255, 255); stroke-opacity: 1; stroke-width: 0px; fill: rgb(64, 0, 0); fill-opacity: 1;" transform="matrix(1,0,0,1,890.7205280383939,4102.489486694336)"></polygon>
  <polygon id="P-d6-0b161e" points="1492.4202880859375,-0.36838769912719727 2496.850830078125,5.216283321380615 1495.523193359375,1731.4039306640625 -503.816162109375,1731.400634765625 -4.47991943359375,868.830322265625 995.81396484375,865.367919921875" style="stroke: rgb(255, 255, 255); stroke-opacity: 1; stroke-width: 0; fill: rgb(192, 0, 0); fill-opacity: 1;" transform="matrix(1,0,0,1,2018.7038044055816,3453.831349596381)"></polygon>
  <polygon id="P-a2-e64abe" points="500.839599609375,5.5055999755859375 999.5,865.6719360351562 499.5065612792969,1731.6934814453125 -0.486846923828125,2597.715087890625 -500.48687744140625,1731.689208984375" style="stroke: rgb(255, 255, 255); stroke-opacity: 1; stroke-width: 0; fill: rgb(128, 0, 0); fill-opacity: 1;" transform="matrix(1,0,0,1,4014.715340050113,3453.5415115356445)"></polygon>
  <polygon id="P-12-2d1dc9" points="-250.4988555908203,432.6429443359375 749.501220703125,432.64910888671875 1249.5015869140625,1298.6746826171875 249.501220703125,1298.674560546875" style="stroke: rgb(255, 255, 255); stroke-opacity: 1; stroke-width: 0; fill: rgb(32, 0, 64); fill-opacity: 1;" transform="matrix(1,0,0,1,3266.7178196033356,431.260986328125)"></polygon>
  <polygon id="P-3f-f5f025" points="1481.1658935546875,1731.681640625 499.4968566894531,1731.6812850592346 -0.5,865.6598006842346 499.5000305175781,-0.3659973776732318" style="stroke: rgb(255, 255, 255); stroke-opacity: 1; stroke-width: 0px; fill: rgb(64, 0, 128); fill-opacity: 1;" transform="matrix(1.0000000763159278,0,0,1.0000000763159278,4016.717964591634,-1.753585770726204)"></polygon>
  <polygon id="P-b2-4d262d" points="372.47662353515625,2814.16259765625 -627.5173950195312,2814.157470703125 874.4666137695312,217.30557250976562 2874.466552734375,217.30694580078125 2373.140869140625,1083.3341064453125 1374.4703369140625,1083.3260498046875" style="stroke: rgb(255, 255, 255); stroke-opacity: 1; stroke-width: 0px; fill: rgb(96, 0, 192); fill-opacity: 1;" transform="matrix(1,0,0,1,1641.7497333606598,-219.4287872314453)"></polygon>
  <polygon id="P-66-3e9e93" points="1.8858642578125,859.956787109375 497.89788818359375,1723.3363037109375 1.294084906578064,2592.53515625 -999.0013427734375,865.83349609375 2.9914867877960205,-866.2235107421875 502.9900207519531,-0.19033858180046082" style="stroke: rgb(255, 255, 255); stroke-opacity: 1; stroke-width: 0; fill: rgb(64, 0, 128); fill-opacity: 1;" transform="matrix(1,0,0,1,3013.226082237613,1730.1307983398438)"></polygon>
  <polygon id="P-95-2e7b7c" points="1251.2586669921875,2155.9892578125 250.96629333496094,2159.454345703125 -247.7073974609375,1296.1273193359375 -747.0457763671875,432.75360107421875 252.95458984375,432.7537536621094" style="stroke: rgb(255, 255, 255); stroke-opacity: 1; stroke-width: 0; fill: rgb(32, 0, 64); fill-opacity: 1;" transform="matrix(1,0,0,1,1763.257149132144,2163.210723876953)"></polygon>
  <polygon id="P-d1-976d1f" points="1249.294189453125,432.52752685546875 749.9646606445312,1298.482421875 -250.70489501953125,1298.5528564453125 249.29544067382812,432.52728271484375" style="stroke: rgb(255, 255, 255); stroke-opacity: 1; stroke-width: 0px; fill: rgb(255, 255, 85); fill-opacity: 1;" transform="matrix(1,0,0,1,4764.927223595035,3886.673797607422)"></polygon>
  <polygon id="P-3e-d890ee" points="124.37478637695312,216.32505798339844 1125.0137939453125,216.33018493652344 1624.3443603515625,1082.4263916015625 -375.8485412597656,1082.4188232421875" style="stroke: rgb(255, 255, 255); stroke-opacity: 1; stroke-width: 0px; fill: rgb(174, 174, 0); fill-opacity: 1;" transform="matrix(1,0,0,1,4389.878746422183,4968.8259353637695)"></polygon>
  <polygon id="P-da-f22fa8" points="-0.503875732421875,2597.709483301422 -499.8350830078125,1731.615966796875 -0.5,865.6598006842346 -1000.5077972412109,-866.3910622139069 -516.8404541015625,-1723.60986328125 999.5000610351562,865.6598006842346" style="stroke: rgb(255, 255, 255); stroke-opacity: 1; stroke-width: 0px; fill: rgb(231, 231, 0); fill-opacity: 1;" transform="matrix(1.0000000763159278,0,0,1.0000000763159278,6014.724312218082,3453.5392456054688)"></polygon>
  <polygon id="P-fd-f9e08b" points="2999.724609375,864.68896484375 1999.7242431640625,864.6890869140625 1501.0556640625,4.5360107421875 496.62530517578125,-1.0484524965286255 0.613037109375,-864.4281005859375 2001.72119140625,-867.3587646484375" style="stroke: rgb(255, 255, 255); stroke-opacity: 1; stroke-width: 0px; fill: rgb(174, 174, 0); fill-opacity: 1;" transform="matrix(1,0,0,1,3014.499336632144,3454.5120849609375)"></polygon>
  <polygon id="P-7f-7cacad" points="1489.6988525390625,859.6869506835938 1008.028564453125,1716.9073486328125 -993.0728759765625,1719.8399658203125 -491.9676818847656,850.8760986328125" style="stroke: rgb(255, 255, 255); stroke-opacity: 1; stroke-width: 0px; fill: rgb(255, 255, 85); fill-opacity: 1;" transform="matrix(1,0,0,1,4008.1852497180816,870.2440185546875)"></polygon>
  <defs id="SvgjsDefs1235"></defs>
</svg>